<?xml version="1.0" standalone="no"?>
<!DOCTYPE svg PUBLIC "-//W3C//DTD SVG 1.1//EN" "http://www.w3.org/Graphics/SVG/1.1/DTD/svg11.dtd" >
<svg xmlns="http://www.w3.org/2000/svg" width="100%" height="100%">
<metadata>
Created by FontForge 20090622 at Fri Apr 19 03:36:06 2013
 By fontface
Copyright 2004, SUDTIPOS. Disenada por Angel Koziupa y digitalizada por Alejandro Paul. Todos los derechos reservados. Buenos Aires, Argentina.
</metadata>
<defs>
<font id="Romy" horiz-adv-x="500" >
  <font-face 
    font-family="Romy"
    font-weight="400"
    font-stretch="normal"
    units-per-em="1000"
    panose-1="2 0 5 6 4 0 0 2 0 3"
    ascent="800"
    descent="-200"
    x-height="307"
    cap-height="504"
    bbox="-56 -420 746 739"
    underline-thickness="50"
    underline-position="-50"
    unicode-range="U+0020-U+FB02"
  />
<missing-glyph horiz-adv-x="180" 
 />
    <glyph glyph-name=".notdef" horiz-adv-x="180" 
 />
    <glyph glyph-name=".null" horiz-adv-x="0" 
 />
    <glyph glyph-name="nonmarkingreturn" horiz-adv-x="180" 
 />
    <glyph glyph-name="space" unicode=" " horiz-adv-x="180" 
 />
    <glyph glyph-name="space" unicode="&#xa0;" horiz-adv-x="180" 
 />
    <glyph glyph-name="Scaron" unicode="&#x160;" horiz-adv-x="448" 
d="M330 689q0 -18 -11.5 -40t-27.5 -41t-31.5 -31.5t-24.5 -12.5h-22q-12 0 -28.5 14.5t-31.5 35t-25 41.5t-10 34q0 8 4 9t9 1q7 0 18 -4.5t28 -17.5q7 -6 15 -12q7 -5 15 -11.5t17 -11.5q28 18 49 37t44 20q8 0 11 -5q2 -3 2 -5zM436 126q0 -24 -16.5 -56t-50.5 -61
t-84.5 -49t-119.5 -20q-40 0 -63.5 10.5t-36 24.5t-16 29t-3.5 26q0 32 12.5 52.5t27.5 32.5t27.5 17l12.5 5q15 0 19 -5.5t4 -10.5q0 -2 -0.5 -2.5t-0.5 -1.5v-2q-5 -14 -6.5 -25t-1.5 -19q0 -29 16 -39.5t39 -10.5q24 0 47 7.5t41.5 20t30 30t11.5 37.5q0 24 -22 39
t-55 25.5t-71 19.5t-71 22t-55 32.5t-22 50.5q0 39 28.5 79.5t72 74t96.5 54.5t103 21q16 0 32 -4.5t28.5 -14t20 -25.5t7.5 -40q0 -17 -5.5 -35.5t-15.5 -33.5t-24 -25t-30 -10q-5 0 -14.5 5t-9.5 23q0 7 1 10.5t1.5 7t1.5 8t1 13.5q0 36 -38 36q-21 0 -47.5 -12t-50 -30
t-39 -39.5t-15.5 -39.5q0 -19 22.5 -31.5t56 -23.5t73 -22.5t73 -27.5t56 -39.5t22.5 -57.5z" />
    <glyph glyph-name="scaron" unicode="&#x161;" horiz-adv-x="292" 
d="M262 489q0 -18 -11.5 -40t-27.5 -41t-31.5 -31.5t-24.5 -12.5h-22q-12 0 -28.5 14.5t-31.5 35t-25 41.5t-10 34q0 8 4 9t9 1q7 0 18 -4.5t28 -17.5q7 -6 15 -12q7 -5 15 -11.5t17 -11.5q28 18 49 37t44 20q8 0 11 -5q2 -3 2 -5zM272 83q0 -31 -19 -53.5t-46 -37.5
t-56 -22t-49 -7q-44 0 -63 18t-19 38q0 17 12 25t21 8q10 0 26 -7.5t39 -7.5q31 0 46.5 9.5t15.5 21.5q0 11 -11.5 18.5t-29 13t-37.5 11t-37.5 14t-29 21t-11.5 31.5q0 24 15.5 51t40.5 49.5t57 37.5t65 15q29 0 46 -16.5t17 -51.5q0 -16 -8 -30t-29 -14q-12 0 -16 6.5
t-7 14t-8 14t-20 6.5q-6 0 -17 -4.5t-22.5 -12.5t-20 -19t-8.5 -24q0 -12 12 -20t30 -15t39.5 -13t39.5 -15t30 -21.5t12 -31.5z" />
    <glyph glyph-name="Yacute" unicode="&#xdd;" horiz-adv-x="411" 
d="M307 669q0 -5 -2.5 -9t-4.5 -6q-3 -3 -6 -5q-20 -8 -36.5 -20.5l-31 -24.5t-28 -21t-27.5 -10q-9 -1 -11 5q-2 3 -1 5q0 18 11 40t26 41t30.5 31.5t23.5 12.5q6 0 15.5 -2t18.5 -6.5t16 -12t7 -18.5zM399 531q0 -3 -1 -22t-6 -52.5t-16 -80.5t-32 -107q0 -2 1 -3t1 -2
t2 -1q24 -6 31 -20q4 -7 4 -14q0 -27 -21.5 -43t-47.5 -16q-4 0 -7 -3q-2 -2 -2 -3q-15 -39 -39 -84t-55 -83.5t-68 -64t-78 -25.5q-18 0 -28 6.5t-15 14.5q-6 10 -7 22q0 12 3.5 20t8.5 13q5 6 13 10q34 5 58.5 19.5t40.5 30.5q18 18 31 40l23 40t19 42q1 2 1 5q0 4 -4 4
q-67 13 -108 41.5t-63 63.5t-29 72t-7 66q0 26 3 43q1 9 3 17q4 12 12 22q7 8 17 15.5t27 7.5q1 0 8.5 -0.5t15 -5t14 -13.5t6.5 -26q0 -8 -1 -12.5t-2 -10t-2 -14.5t-1 -26q0 -29 7.5 -54t24 -44t44 -31.5t68.5 -16.5q4 0 6 6q14 41 23.5 83t14.5 77q6 40 9 78
q0 15 17 33.5t48 18.5q12 0 23.5 -6t11.5 -27z" />
    <glyph glyph-name="yacute" unicode="&#xfd;" horiz-adv-x="332" 
d="M270 469q0 -5 -2.5 -9t-4.5 -6q-3 -3 -6 -5q-20 -8 -36.5 -20.5l-31 -24.5t-28 -21t-27.5 -10q-9 -1 -11 5q-2 3 -1 5q0 18 11 40t26 41t30.5 31.5t23.5 12.5q6 0 15.5 -2t18.5 -6.5t16 -12t7 -18.5zM303 236q0 -15 -2.5 -32l-6 -41t-6 -57.5t-2.5 -80.5
q0 -94 -19.5 -166t-47.5 -121t-60 -74t-57 -25q-8 0 -12 2.5t-6 6.5q-3 4 -3 10q0 7 3.5 14.5t8.5 13.5q5 7 13 14q38 39 59.5 91t32.5 105t14 100.5t3 77.5q0 6 -2 6q-1 0 -3 -2l-1 -1q-20 -38 -39 -57.5t-35 -29.5q-18 -11 -35 -13q-26 0 -42 18.5t-26 46t-13.5 59
t-3.5 57.5q0 81 21.5 126.5t58.5 45.5q2 0 7 -0.5t9.5 -3t8 -8t3.5 -15.5q0 -11 -7 -26q-8 -18 -14 -39q-5 -18 -9.5 -42.5t-4.5 -51.5q0 -6 0.5 -19t3 -26.5t8 -23.5t15.5 -10q7 0 16.5 5.5t22.5 22.5t29 48t37 81q5 15 13 26q7 10 17.5 18.5t25.5 8.5q3 0 8 -1t9 -4.5
t7 -11.5t3 -22z" />
    <glyph glyph-name="Thorn" unicode="&#xde;" horiz-adv-x="413" 
d="M435 308q0 -29 -11.5 -51.5t-31 -40t-44 -30.5t-49.5 -22q-60 -21 -135 -28q-4 0 -6 -5q-1 -2 -1 -4q-1 -4 -2 -11q-1 -6 -1 -15v-20q0 -18 1.5 -35t5.5 -28q8 -24 9.5 -37t1.5 -21q-5 -23 -21 -28t-32 -5q-20 0 -31.5 16.5t-17.5 41t-8 51.5t-2 48v31q-17 0 -27 7
t-15 15t-6.5 15.5t-1.5 8.5q0 11 4 18t9 11q6 4 14 5q8 0 18 2q4 1 9 3t5 7l4.5 44.5l5.5 51.5t5.5 54.5t5.5 53.5l-29 1q-18 1 -28 0.5t-16 -1.5t-11 -2t-12 -1q-19 0 -27 7.5t-8 15.5q0 6 6 17t20.5 21t39 17.5t61.5 7.5h12q1 5 1 10t1 9q0 4 1 8q7 23 19 36.5t30 13.5
q16 0 25.5 -5.5t14.5 -14t7 -18.5t2 -18l-4 -33q43 -8 85.5 -23t77 -36.5t56 -50t21.5 -64.5zM326 308q0 18 -12.5 32.5t-32 25.5t-45 19t-52.5 14q-3 -27 -6.5 -54.5l-6.5 -51t-4.5 -40t-1.5 -21.5q0 -6 3 -7q1 -1 3 -1q57 15 88.5 29.5t46.5 26.5t17.5 19.5t2.5 8.5z" />
    <glyph glyph-name="thorn" unicode="&#xfe;" horiz-adv-x="393" 
d="M385 221q0 -52 -24.5 -95.5t-61 -76t-79 -52.5t-78.5 -26q-2 0 -5 -3q-1 -2 -2 -3q-3 -59 -3 -125q0 -23 2 -44q2 -19 4.5 -39t7.5 -34q6 -17 8 -26t2 -13q0 -20 -13.5 -27.5t-22.5 -7.5q-8 0 -11 1q-3 0 -4 1q-17 6 -26 28.5t-13 47.5t-5 46t-1 25v59.5t0.5 45t1 34.5
t0.5 29q0 1 -1 2q-2 2 -5 3q-20 4 -35 13q-13 7 -23.5 19t-10.5 29q0 16 10 24t18 8q11 0 22.5 -7t21.5 -7q4 0 6 3q1 1 1 3q5 71 16.5 150.5t23.5 148.5q13 80 29 159q3 8 9 15q5 5 14 10t23 5q7 0 16 -2.5t9 -16.5q0 -1 -3.5 -23.5t-9.5 -56t-12 -73t-12 -74.5t-9.5 -60.5
t-3.5 -31.5q0 -4 2 -4q1 0 5 5q18 24 44 42q21 16 52 29.5t70 13.5q16 -2 28 -11q11 -8 19.5 -22t8.5 -38zM307 190q0 8 -3 13t-7 7q-4 3 -10 3q-25 0 -51.5 -19t-48 -45t-35 -53t-13.5 -43q0 -6 3 -7q2 -1 4 -1q27 0 55.5 16t52 39t38.5 47.5t15 42.5z" />
    <glyph glyph-name="Zcaron" unicode="&#x17d;" horiz-adv-x="388" 
d="M320 689q0 -18 -11.5 -40t-27.5 -41t-31.5 -31.5t-24.5 -12.5h-22q-12 0 -28.5 14.5t-31.5 35t-25 41.5t-10 34q0 8 4 9t9 1q7 0 18 -4.5t28 -17.5q7 -6 15 -12q7 -5 15 -11.5t17 -11.5q28 18 49 37t44 20q8 0 11 -5q2 -3 2 -5zM403 440q0 -10 -5.5 -21.5t-19.5 -25.5
q-63 -57 -116 -112q-23 -24 -45 -49.5t-41 -51.5t-33 -51t-19 -47q-1 -2 -1 -3q-1 -2 -1 -5q0 -6 7 -6q1 0 15.5 3t36.5 7t47.5 7t48.5 3q15 0 32 -2.5t31 -9.5t23.5 -18t9.5 -28q0 -18 -7.5 -27t-15.5 -14q-10 -5 -22 -6q-11 0 -29 5t-51 5q-45 0 -74 -4t-50 -8.5l-38.5 -8
t-39.5 -3.5q-20 0 -31.5 5t-18.5 12.5t-9 16t-2 16.5v9t1 7q1 4 2 7q14 36 38.5 76.5t53.5 80t59 76.5l54.5 65.5l40 47t15.5 21.5q0 7 -7.5 10.5t-17.5 5t-19.5 2t-13.5 0.5q-20 0 -37 -3t-30 -7q-15 -4 -28 -10q-8 -2 -11 -2q-11 0 -17.5 4.5t-10.5 10.5t-5 11t-1 7
q0 39 41.5 59.5t109.5 20.5q9 0 41.5 -3t68 -12t63.5 -24t28 -39z" />
    <glyph glyph-name="zcaron" unicode="&#x17e;" horiz-adv-x="328" 
d="M270 489q0 -18 -11.5 -40t-27.5 -41t-31.5 -31.5t-24.5 -12.5h-22q-12 0 -28.5 14.5t-31.5 35t-25 41.5t-10 34q0 8 4 9t9 1q7 0 18 -4.5t28 -17.5q7 -6 15 -12q7 -5 15 -11.5t17 -11.5q28 18 49 37t44 20q8 0 11 -5q2 -3 2 -5zM313 -61q0 -22 -8 -57t-26 -77t-47.5 -88
t-72.5 -90q-17 -18 -30 -22.5t-20 -4.5q-17 0 -17 13q0 4 2 8.5t4 8.5q3 4 6 9l34 49.5t43.5 72t37 82t15.5 79.5q0 26 -7.5 42.5t-19 25.5t-25.5 12.5t-28 3.5q-15 0 -28 -3.5t-23 -7.5q-11 -5 -21 -11q-5 -5 -9.5 -6.5t-8.5 -1.5q-9 0 -15.5 5t-10.5 11.5t-5.5 13.5
t-1.5 11q0 18 13 37t32 38t41.5 38l41.5 36t32 32.5t13 27.5q0 11 -8.5 13t-15.5 2q-16 0 -32 -6t-29 -13q-16 -9 -30 -19q-11 -7 -16.5 -12l-9.5 -8.5t-8.5 -5.5t-12.5 -2q-17 0 -21.5 11.5t-4.5 19.5q0 24 18 43t45 32t59.5 20t62.5 7q9 0 24.5 -2t30.5 -8t25.5 -16.5
t10.5 -27.5q0 -34 -23.5 -64t-52 -55t-52 -43t-23.5 -27q0 -3 3 -3q2 0 4 1q6 1 14 3q7 1 16 2t20 1q51 0 83 -30.5t32 -99.5z" />
    <glyph glyph-name="brokenbar" unicode="&#xa6;" horiz-adv-x="260" 
d="M181 529q0 -28 -4 -85.5l-9 -126.5q0 -4 -9.5 -9.5t-20.5 -7.5t-20 1.5t-9 17.5q2 48 4.5 85.5t2.5 43.5q0 26 1 51t3 45q2 24 4 45q1 19 8.5 23t12.5 4q11 0 18 -7.5t11 -19.5t5.5 -27.5t1.5 -32.5zM162 241q-4 -55 -6 -97t-2 -77q0 -27 1 -55.5t3 -59.5q-3 -10 -11 -21
t-25 -11q-11 0 -17.5 10.5t-10 25.5t-4.5 31.5t-1 28.5q1 46 5.5 97.5t8.5 123.5q4 7 10 12q5 5 12.5 8.5t18.5 3.5t15 -10q2 -4 3 -10z" />
    <glyph glyph-name="minus" unicode="&#x2212;" horiz-adv-x="444" 
d="M399 254q0 -9 -7 -14.5t-18 -8.5t-25 -4t-29 -1h-49q-32 0 -67 -4.5t-64 -9.5q-34 -6 -67 -13q-8 2 -16.5 7t-11.5 19q0 13 12.5 21.5t29.5 13t34 7t25 4.5q21 4 47 8q22 3 50 6t60 3q16 0 32 -1t33 -3q23 -4 27 -13.5t4 -16.5z" />
    <glyph glyph-name="multiply" unicode="&#xd7;" horiz-adv-x="387" 
d="M337 339q0 -7 -3 -12.5t-6 -9.5q-4 -5 -9 -9q-24 -17 -45.5 -36.5t-41.5 -39.5q-1 0 -1 -1v-3v-2q27 -35 53 -65t38 -39q9 -8 9 -15q0 -12 -13 -22t-25 -10q-13 0 -30 17t-34 37q-19 24 -39 54q-1 0 -1.5 -0.5t-1.5 -0.5l-1 -1l-36 -45t-27 -37q-13 -18 -22 -34t-22 -16
q-29 0 -29 34q0 16 13 38l23 32q11 15 27.5 35t37.5 43v1q0 1 0.5 1t0.5 1l-1 2q-23 30 -44 54.5l-33 38.5q-8 11 -10 17t-2 8q0 8 8 18.5t23 10.5q9 0 22.5 -7.5t30.5 -31.5l13 -19q12 -18 33 -45l2 -1q2 0 3 1l46 44t51 42q1 1 4 2q6 2 11 2q10 0 19 -9t9 -22z" />
    <glyph glyph-name="lslash" unicode="&#x142;" horiz-adv-x="176" 
d="M188 301q0 -17 -22 -27t-46 -18q-2 -27 -3.5 -53.5t-1.5 -52.5q0 -51 6 -95t22 -75q1 -3 3 -7q4 -8 4 -17t-10 -22t-31 -13q-10 0 -17.5 4t-12.5 9q-6 6 -11 14q-17 32 -23.5 80t-6.5 104q0 45 3 90q-17 -8 -31.5 -13.5t-21.5 -5.5q-6 0 -10.5 6t-4.5 14q0 9 6.5 17
t16.5 15t20.5 12.5t19.5 9.5q6 2 10 3q7 72 19.5 139.5t26.5 123.5q2 9 8 17q5 7 14.5 12.5t25.5 7.5q11 0 20.5 -2.5t9.5 -13.5l-1 -6q-8 -36 -16 -76q-7 -35 -15 -80t-13 -96q26 8 33.5 9.5t11.5 1.5q7 0 11.5 -3t6.5 -13z" />
    <glyph glyph-name="exclam" unicode="!" horiz-adv-x="216" 
d="M167 414q0 -44 -5 -107t-21 -143q-2 -9 -8 -16q-5 -6 -14.5 -10.5t-25.5 -4.5t-20 7.5t-4 14.5v6q0 1 1 2q9 75 10 130.5t1 96.5q0 33 -1 56.5t-3 37.5q-2 17 -3 28q0 4 1 9.5t6 11t14 9t25 3.5q2 0 9 -1t14 -6t13 -14.5t7 -27.5q1 -10 2 -22q1 -11 1.5 -25.5t0.5 -34.5z
M140 21q0 -15 -7.5 -26t-17.5 -18.5t-21 -11t-18 -3.5q-4 0 -10 1t-12 5t-10.5 12t-4.5 21q0 9 4 19.5t12 19.5t20 15.5t27 6.5q16 0 27 -9.5t11 -31.5z" />
    <glyph glyph-name="quotedbl" unicode="&#x22;" horiz-adv-x="305" 
d="M267 414q0 -15 -1.5 -32.5t-6.5 -32.5t-14.5 -25.5t-25.5 -10.5q-2 0 -7 1.5t-10 5t-8.5 9.5t-3.5 16q0 6 1 9q3 19 4 37.5t1 33.5v29q0 32 10 39t18 6q14 -1 22.5 -9.5t13.5 -18.5q5 -11 6 -26v-9q0 -5 0.5 -10t0.5 -12zM138 414q0 -15 -1.5 -32.5t-6.5 -32.5
t-14.5 -25.5t-25.5 -10.5q-2 0 -7 1.5t-10 5t-8.5 9.5t-3.5 16q0 6 1 9q3 19 4 37.5t1 33.5v29q0 32 10 39t18 6q14 -1 22.5 -9.5t13.5 -18.5q5 -11 6 -26v-9q0 -5 0.5 -10t0.5 -12z" />
    <glyph glyph-name="numbersign" unicode="#" horiz-adv-x="517" 
d="M482 311q0 -16 -29 -23.5t-72 -10.5q-1 -1 -2 -1q-3 -3 -3 -2l-29 -70v-2q0 -1 3 -1q23 0 41 1t32 1q24 0 35.5 -4.5t11.5 -18.5q0 -11 -13.5 -17.5t-34 -10t-45.5 -5t-47 -2.5h-2q-2 0 -2 -3q-11 -29 -19.5 -57.5l-16.5 -54.5q-4 -7 -8 -11q-9 -11 -24 -11q-7 0 -11 8.5
t-4 18.5q0 16 4.5 33.5t8.5 28.5q2 5 4 11q2 5 4 13t6 19l-2 2q-1 0 -1 1q-17 -2 -37 -4l-42 -4q-2 -1 -3 -2l-1 -1q-10 -29 -18.5 -56.5l-15.5 -51.5q-3 -7 -7 -11t-9.5 -7t-13.5 -3t-11 8t-3 19q0 16 5.5 37.5t16.5 56.5l-2 2q-1 0 -1 1l-70 -11q-8 0 -14 4.5t-6 14.5
q0 14 14 22t32 12.5t36 6.5t26 4q1 0 2 1l2 2t2 4l12 35t14 38q0 2 -2 2h-1q-4 0 -20.5 -3t-35.5 -6q-22 -4 -49 -8q-8 0 -16 4.5t-8 15.5q0 15 19 23.5t44.5 13.5t50 7.5t36.5 5.5q1 0 2 1t1.5 1t1.5 2l20 44.5t19 38.5q8 15 19 18.5t19 3.5q10 0 10 -14t-7 -36.5
t-18 -47.5v-2q0 -1 3 -1q34 4 72 6q2 0 4 2q1 1 1 2q9 21 18 40t17 34t19 18.5t19 3.5q10 0 10 -15q0 -13 -6.5 -34.5t-15.5 -44.5q0 -3 8 -3q7 0 16.5 1t19.5 1q14 0 25.5 -4.5t11.5 -18.5zM316 271l-2 2q-1 0 -1 1q-20 0 -36.5 -1t-36.5 -4h-2q-3 0 -3 -3l-9 -20t-6 -15
l-7.5 -19.5l-7.5 -20.5v-2q0 -1 2 -1l77 8q1 0 4 3l2 2l12.5 34.5z" />
    <glyph glyph-name="dollar" unicode="$" horiz-adv-x="456" 
d="M431 126q0 -19 -12 -44t-35 -49.5t-56 -46t-75 -33.5l2 -37l2 -37q0 -11 -3.5 -16.5t-8.5 -7.5q-5 -3 -12 -3q-10 1 -16.5 10.5t-10.5 23t-6 29t-3 27.5q-8 -1 -16.5 -1.5t-16.5 -0.5q-40 1 -63.5 11t-36 24t-16 29t-3.5 26q0 32 12.5 52.5t27.5 32.5t27.5 17l12.5 5
q15 0 19 -5.5t4 -10.5q0 -2 -0.5 -2.5t-0.5 -1.5v-2q-5 -14 -6.5 -25t-1.5 -19q0 -29 16 -39.5t39 -10.5h4q1 34 3.5 75t5.5 95q-30 6 -61 14t-57 21t-42.5 31.5t-16.5 45.5t16 56t42.5 56t61 50t72.5 38q1 26 2 48t3 38q2 20 9 24t11 4q19 -5 25 -29t6 -53v-16q25 5 46 5
q16 0 32 -4.5t28.5 -14t20 -25.5t7.5 -40q0 -17 -5.5 -35.5t-15.5 -33.5t-24 -25t-30 -10q-5 0 -14.5 5t-9.5 23q0 7 1 10.5t1.5 7.5t1.5 9t1 14q0 17 -10 26.5t-35 9.5l-11 -191q30 -9 60.5 -19.5t54.5 -25t39 -34t15 -45.5zM218 422q-17 -10 -33.5 -22.5t-29 -26.5
t-20 -28.5t-7.5 -26.5q0 -18 24 -30t59 -23l7 157v0zM320 116q0 22 -17.5 35.5t-45.5 24.5v-7q0 -20 -1.5 -58.5t-1.5 -77.5q28 13 47 34.5t19 48.5z" />
    <glyph glyph-name="percent" unicode="%" horiz-adv-x="459" 
d="M213 397q0 -38 -11.5 -62t-27 -37t-31.5 -17.5t-24 -4.5q-27 0 -42 12.5t-22 27.5q-8 18 -9 40q0 16 5 40t16.5 46t31 37.5t49.5 15.5q28 0 46.5 -27.5t18.5 -70.5zM411 477q0 -8 -3 -16.5t-6 -14.5q-4 -8 -9 -14l-61.5 -90l-72.5 -104l-70 -101.5t-54 -82.5
q-12 -19 -19.5 -32.5t-12.5 -23.5q-5 -11 -9 -19q-5 -14 -13.5 -18t-16.5 -4q-7 0 -9 1q-2 0 -4 1q-9 4 -12 10t-3 12q0 7 2 13q1 3 3 5q4 14 37.5 64l83 120.5l106.5 152.5l107 160q1 2 4 4q2 2 5 3.5t6 1.5q6 0 13.5 -7.5t7.5 -20.5zM424 121q0 -38 -11.5 -62t-27 -37
t-31.5 -17.5t-24 -4.5q-27 0 -42 12.5t-22 27.5q-8 18 -9 40q0 16 5 40t16.5 46t31 37.5t49.5 15.5q28 0 46.5 -27.5t18.5 -70.5zM162 398q0 15 -4 24t-9 13t-10 5t-6 1q-12 0 -23.5 -17.5t-11.5 -45.5q0 -3 0.5 -11.5t3 -16.5t7.5 -14.5t14 -6.5q10 1 19 9q8 7 14 20.5
t6 39.5zM373 122q0 15 -4 24t-9 13t-10 5t-6 1q-12 0 -23.5 -17.5t-11.5 -45.5q0 -3 0.5 -11.5t3 -16.5t7.5 -14.5t14 -6.5q10 1 19 9q8 7 14 20.5t6 39.5z" />
    <glyph glyph-name="ampersand" unicode="&#x26;" horiz-adv-x="488" 
d="M467 -13q0 -17 -9.5 -31t-28.5 -14q-8 0 -14.5 4t-10.5 9q-5 6 -8 14q-4 14 -13.5 28.5t-20.5 29.5l-2 2q-1 0 -1.5 -0.5t-1.5 -0.5l-1 -1q-27 -25 -55.5 -39t-54 -21.5t-47.5 -9.5t-37 -2q-45 0 -70.5 17t-38.5 40t-16 45t-3 33q0 28 9.5 54.5t25 51t35.5 46t41 39.5
q2 2 2 5q0 1 -0.5 1.5t-0.5 1.5v1q-19 44 -19 87q0 19 9 45.5t27 50.5t45.5 41t65.5 17q9 0 21.5 -2.5t24.5 -11.5t20 -25.5t8 -44.5q0 -47 -29 -88t-75 -83q-1 -1 -1 -2v-2q0 -6 16.5 -25.5t37 -41.5t39 -39t22.5 -17q3 0 7 9.5t7.5 22.5t6 26.5t2.5 21.5q0 17 -3 26t-7 14
t-7 9.5t-3 12.5q0 7 9.5 19t35.5 12q11 0 21 -2.5t18 -10.5t13 -22t5 -37q0 -29 -5.5 -53t-13.5 -42.5t-16 -33l-14 -24.5q-1 -1 -1 -2v-3q0 -2 1 -3q22 -26 37.5 -50.5t15.5 -51.5zM281 440q0 13 -6 20.5t-13 7.5q-14 0 -25 -9t-18.5 -23.5t-12 -31.5t-4.5 -32q1 -11 2 -19
q1 -7 2.5 -12.5t3.5 -5.5q3 0 14.5 10.5t24 26t22.5 34t10 34.5zM310 84q0 3 -2 4q-9 9 -42 38t-77 90q-1 1 -3 1q-1 0 -1.5 -0.5t-1.5 -0.5h-1q-21 -23 -38.5 -52.5t-17.5 -63.5q0 -3 1 -14.5t7.5 -24t20.5 -22t39 -9.5q22 0 42.5 7.5t37 17t26.5 18t10 11.5z" />
    <glyph glyph-name="quotesingle" unicode="'" horiz-adv-x="177" 
d="M139 414q0 -15 -1.5 -32.5t-6.5 -32.5t-14.5 -25.5t-25.5 -10.5q-2 0 -7 1.5t-10 5t-8.5 9.5t-3.5 16q0 6 1 9q3 19 4 37.5t1 33.5v29q0 32 10 39t18 6q14 -1 22.5 -9.5t13.5 -18.5q5 -11 6 -26v-9q0 -5 0.5 -10t0.5 -12z" />
    <glyph glyph-name="parenleft" unicode="(" horiz-adv-x="268" 
d="M232 527q0 -5 -2 -11.5t-10 -15.5q-24 -32 -42 -72q-16 -34 -29 -80.5t-13 -102.5q0 -26 1.5 -61.5t8.5 -76.5t21 -84.5t40 -83.5l5 -5q2 -2 3.5 -5t1.5 -6q0 -5 -2.5 -7t-4.5 -4q-3 -2 -6 -2q-20 0 -45.5 22t-48 62.5t-38.5 96t-16 123.5q0 82 22 143t50.5 101.5t56 60
t38.5 19.5q9 0 9 -11z" />
    <glyph glyph-name="parenright" unicode=")" horiz-adv-x="268" 
d="M222 234q0 -83 -22 -143.5t-50.5 -101t-56 -60t-38.5 -19.5q-9 0 -9 11q0 5 2 11.5t10 15.5q24 32 42 72q16 34 29 80t13 103q0 25 -1.5 61t-8.5 77t-21.5 84t-39.5 84q-3 2 -5 5q-5 5 -5 11q0 7 6 11q3 2 7 2q19 0 45 -22t48.5 -62.5t38.5 -96.5t16 -123z" />
    <glyph glyph-name="asterisk" unicode="*" horiz-adv-x="360" 
d="M343 465q0 -5 -2 -11.5t-7.5 -12.5t-16.5 -9.5t-29 -2.5q-5 0 -10 1q-5 0 -9.5 0.5t-9.5 0.5q-14 0 -14 -3q0 -9 8.5 -17.5t19 -17t19 -18.5t8.5 -23q0 -11 -5 -16.5t-11 -8.5q-7 -4 -16 -4q-15 0 -25.5 10.5t-18.5 22.5t-14 22.5t-11 10.5q-4 0 -7.5 -10.5t-5.5 -23.5
t-3.5 -24t-1.5 -12q-3 -19 -11.5 -24.5t-16.5 -5.5q-17 0 -24 8t-7 22t5 27q2 7 5 13q4 16 6 25t2 14q0 8 -5 8q-7 0 -15.5 -3.5l-18.5 -7.5l-19.5 -7.5t-17.5 -3.5t-14 3q-5 2 -9 6.5t-4 13.5q0 15 11 24t25 14q16 5 36 8q4 0 16 2.5t12 7.5q0 4 -7.5 11.5l-15.5 15.5
l-22 19q-3 2 -5 6q-5 7 -5 17q0 11 8.5 23t26.5 12q12 0 21 -11t17.5 -24l16 -24t16.5 -11q4 0 6 6q5 10 9 23.5t9.5 25.5t14.5 20t25 8q10 0 17.5 -6.5t7.5 -20.5q0 -7 -2.5 -15t-9.5 -18q-7 -9 -11 -16t-7 -13t-3 -9q0 -2 1.5 -3.5t7.5 -1.5q17 0 28.5 7t32.5 7
q11 0 20 -6t9 -20z" />
    <glyph glyph-name="plus" unicode="+" 
d="M434 273q0 -14 -9.5 -20.5t-19.5 -6.5q-6 0 -29.5 3t-45.5 3q-26 0 -33.5 -2t-9.5 -8l-6 -93q-1 -12 -0.5 -17.5t1.5 -8.5t2 -5.5t1 -7.5q0 -9 -6.5 -13t-14.5 -4q-19 0 -29 11.5t-10 41.5q0 38 3 57.5l5 33.5q0 4 -4 6l-4 2q-28 -4 -50 -8t-39 -8q-19 -4 -34 -9
q-8 -3 -13 -3q-10 0 -16 8q-3 4 -3 8q0 3 1 9.5t5 13.5t12.5 14t23.5 11l31 7q15 3 38 6t52 6q2 0 4 1q4 2 4 7q2 24 3.5 46t3.5 39l2 37q2 3 6 6q3 2 8 4.5t13 2.5q3 0 7.5 -0.5t9 -4t8 -11.5t3.5 -22q0 -13 -1 -20t-2.5 -15t-3 -20.5t-3.5 -36.5q0 -2 1 -4q2 -4 5 -4h43
q25 0 39.5 -0.5t28.5 -1.5q6 -3 11 -7q4 -4 7.5 -9.5t3.5 -13.5z" />
    <glyph glyph-name="comma" unicode="," horiz-adv-x="248" 
d="M166 85q0 -24 -12.5 -52t-31 -52t-39.5 -40t-37 -16q-14 0 -14 10q0 3 1 5q0 1 1 3q16 16 27.5 43t19.5 52.5t12 44.5l4 19q0 7 10.5 12t21.5 5q12 0 24.5 -6t12.5 -28z" />
    <glyph glyph-name="hyphen" unicode="-" horiz-adv-x="444" 
d="M399 254q0 -9 -7 -14.5t-18 -8.5t-25 -4t-29 -1h-49q-32 0 -67 -4.5t-64 -9.5q-34 -6 -67 -13q-8 2 -16.5 7t-11.5 19q0 13 12.5 21.5t29.5 13t34 7t25 4.5q21 4 47 8q22 3 50 6t60 3q16 0 32 -1t33 -3q23 -4 27 -13.5t4 -16.5z" />
    <glyph glyph-name="period" unicode="." horiz-adv-x="251" 
d="M170 60q0 -15 -5.5 -26t-13 -18t-17 -10t-16.5 -3q-19 0 -27 11t-8 25q0 9 2.5 19t8.5 18.5t16 13.5t24 5q4 0 10 -1t12 -4.5t10 -10.5t4 -19z" />
    <glyph glyph-name="slash" unicode="/" 
d="M406 587q0 -16 -13 -49.5t-33.5 -80t-47.5 -102l-54.5 -115l-54 -120t-47.5 -115.5q-8 -22 -13 -38.5t-10 -28t-12 -17t-19 -5.5q-14 0 -20.5 11.5t-6.5 24.5t12 48.5t32 84l45.5 105.5l52.5 115l142 299q3 5 7 9q3 3 7 6t9 3q14 -2 19 -11.5t5 -23.5z" />
    <glyph glyph-name="zero" unicode="0" horiz-adv-x="448" 
d="M422 282q0 -74 -19.5 -133.5t-50.5 -101t-69.5 -64t-76.5 -22.5q-53 0 -88 27t-56 66.5t-29.5 84.5t-8.5 81q0 58 15.5 118t40 108.5t55.5 79t61 30.5q7 0 14.5 -2.5t7.5 -14.5q0 -14 -10.5 -28t-10.5 -30q0 -6 3 -6q1 0 5 2q12 7 27 13q13 5 29 9.5t34 4.5q27 0 50 -16
t40.5 -45t27 -70t9.5 -91zM331 295q-2 36 -10 64q-8 24 -22.5 44t-43.5 20q-8 0 -21.5 -3.5t-28.5 -9.5t-29 -15t-23 -21q-10 -13 -16.5 -33.5t-10.5 -44t-5.5 -47.5t-1.5 -45t4 -46.5t13 -48t24.5 -38t38.5 -15.5q15 0 37.5 13.5t43.5 42.5t36 74.5t15 108.5z" />
    <glyph glyph-name="one" unicode="1" horiz-adv-x="319" 
d="M293 495q0 -11 -2.5 -18.5t-6.5 -15t-8 -16.5t-7 -23l-9 -48.5t-11 -74t-9 -87t-4 -88.5q0 -32 3.5 -58.5t8.5 -49.5q0 -2 1 -4q2 -4 2 -9q-1 -13 -6 -24q-5 -9 -13.5 -16.5t-25.5 -7.5q-20 0 -32 11t-19 28t-9 37.5t-2 40.5t2.5 50.5t6 64.5t8 68.5l8 62.5t6.5 47t4 22
q0 11 -2 13.5t-6 2.5q-3 0 -10 -4.5t-15 -11.5t-15.5 -15.5t-12.5 -15.5q-14 -23 -31 -38t-31 -15q-24 0 -28 12t-4 22q0 29 27 62t65 61.5t78 47t67 18.5q9 0 20.5 -5.5t11.5 -25.5z" />
    <glyph glyph-name="two" unicode="2" horiz-adv-x="408" 
d="M394 33q0 -15 -5 -23t-11 -12q-7 -4 -16 -5q-11 0 -18 2.5t-15.5 6t-21 6t-35.5 2.5q-42 0 -77 -10.5t-64 -23l-53.5 -23t-46.5 -10.5q-13 0 -20.5 5t-11.5 11.5t-5 13.5t-1 12q1 18 11.5 34.5t27.5 34.5l60 67.5l64 74t57 72.5t38 63q9 20 12.5 34t3.5 24q0 13 -4 20
t-10 10.5t-12 4t-10 0.5q-23 0 -43.5 -10.5t-36.5 -22.5q-18 -15 -34 -33q-20 -29 -34 -35.5t-21 -7.5q-21 0 -27 13.5t-6 25.5q0 21 15.5 49t45 53.5t71 43.5t94.5 18q14 0 33.5 -3t37.5 -13.5t30.5 -30.5t12.5 -54q0 -41 -20 -86t-50 -90t-65 -86l-65 -74q0 -7 3 -7
q2 0 15 4t32 8.5t42.5 8.5t46.5 4q35 0 60.5 -17t25.5 -49z" />
    <glyph glyph-name="three" unicode="3" horiz-adv-x="370" 
d="M349 175q0 -29 -9.5 -54.5t-24.5 -48t-34.5 -41.5t-39.5 -34q-48 -36 -107 -64q-29 -10 -49 -10q-17 0 -28 4t-17 10.5t-8 14t-2 13.5q0 11 4.5 17t10.5 10t15 6q29 6 62 22t61 37.5t46.5 46.5t18.5 48q0 16 -15.5 28t-38.5 19.5t-48.5 11t-44.5 3.5h-11t-9 -1
q-36 0 -36 27q0 18 14.5 35t36 32t46.5 29l46.5 26t36 22.5t14.5 19.5q0 10 -10.5 17t-24.5 11.5t-28.5 6.5t-21.5 2q-16 0 -29 -2.5t-23 -5.5l-21 -8q-18 -9 -29 -9q-9 0 -14.5 3.5t-8.5 8.5t-4 9.5t-1 7.5q0 10 5 23.5t19 25.5t37.5 20t61.5 8q27 0 61 -7t64 -21t50.5 -36
t20.5 -52q0 -17 -10 -30.5t-25 -25t-33 -21l-33 -18t-25 -16.5t-10 -15q0 -3 6.5 -6.5t14.5 -6.5q10 -4 22 -7q27 -8 49 -19q19 -10 34.5 -26t15.5 -40z" />
    <glyph glyph-name="four" unicode="4" horiz-adv-x="439" 
d="M439 153q0 -13 -9.5 -16.5t-17.5 -3.5h-6q-2 0 -3 1q-20 2 -39 4.5t-38 2.5q-1 0 -3 -2l-1 -1q-1 -11 -1 -22v-22q0 -32 3 -57.5t11 -42.5q1 -3 3 -6l2 -6t1 -8q0 -14 -6 -23t-14.5 -13.5t-17 -6t-12.5 -1.5q-19 0 -30.5 13.5t-18 34.5t-8.5 46t-2 47v23t1 19q1 10 2 17
q0 2 -2 2h-2q-44 -10 -67.5 -17.5t-38.5 -14l-29 -13t-39 -15.5q-18 -7 -31 -7q-20 0 -25.5 12.5t-5.5 25.5v9t1 8l2 8q13 46 40.5 95t61 95t69 85.5t65.5 66.5q18 16 38 28q17 11 39.5 19.5t48.5 8.5q2 0 7 -1t9.5 -4t8 -9.5t3.5 -17.5q0 -6 -1.5 -12.5l-3.5 -15.5
q-7 -15 -13 -35q-5 -17 -11.5 -41.5t-11.5 -56.5l-5 -30q-2 -14 -5.5 -32.5t-5.5 -40.5q-1 -1 0 -2q0 -2 4 -2q6 0 23 -1t35 -8t32 -22t14 -42zM273 388q0 6 -4 6q-2 0 -6 -2q-2 -1 -3 -2q-23 -21 -47 -49q-20 -24 -43 -60t-42 -83q-1 0 -1 -1v-4q0 -7 6 -7l49 14
q19 5 36 10t22 5q1 0 4 3q1 1 1 3q4 34 9 63.5l9 52t7 36t3 15.5z" />
    <glyph glyph-name="five" unicode="5" horiz-adv-x="382" 
d="M356 199q0 -41 -22.5 -89t-61.5 -88.5t-90 -67.5t-108 -27q-23 0 -35 7t-17 15q-6 10 -7 23q1 13 6.5 21t12.5 12t14 5t11 1q51 0 89 18.5t63.5 44t38.5 54t13 49.5t-6.5 34.5t-16.5 21t-22.5 10t-25.5 2.5q-17 0 -31 -4.5t-25 -9.5q-13 -6 -24 -13q-25 -15 -42 -15
q-11 0 -17.5 5t-9.5 12t-4 14.5t-1 13.5q0 20 5 47t11 51q7 28 17 57q0 3 -0.5 4.5t-0.5 2.5v2q0 29 8.5 47.5t35.5 29.5q14 6 32.5 12.5t40 12t44.5 9.5t45 4q28 0 51.5 -8t23.5 -36q0 -4 -1.5 -13t-6 -18t-11.5 -16t-17 -7q-7 0 -14 4q-5 2 -11 4q-5 2 -13.5 3t-19.5 1
q-15 0 -35 -3t-43 -14q-2 -1 -9 -7t-14.5 -18t-13.5 -32t-6 -50q0 -8 7 -8q2 0 8 2q11 3 24 6l25 4.5t30 2.5q25 0 48 -6.5t40 -21.5t27.5 -39t10.5 -58z" />
    <glyph glyph-name="six" unicode="6" horiz-adv-x="433" 
d="M412 210q0 -65 -29 -119t-70 -93t-85.5 -60.5t-74.5 -21.5q-25 0 -40.5 12t-23.5 30.5t-11 40.5t-3 43v14.5t1 11.5q0 5 1 10q0 5 -0.5 5.5t-2.5 0.5t-2.5 -0.5t-1.5 -0.5h-1q-19 -10 -30 -10q-10 0 -15.5 6.5t-8.5 15.5t-3.5 19.5t-0.5 19.5q0 49 11.5 99t30.5 97t44 88
t52.5 72t55.5 48.5t54 17.5q6 0 14 -0.5t15.5 -3.5t12.5 -8.5t5 -15.5q0 -17 -9 -26.5t-24 -17.5q-40 -26 -73 -66q-29 -35 -56 -89t-37 -132q0 -2 1 -3q2 -2 4 -2q4 0 9 5q27 31 59 56q27 21 62.5 39t77.5 18q11 0 26.5 -2.5t30 -12.5t25 -30t10.5 -55zM315 176q0 10 -4 18
q-3 7 -9.5 12.5t-17.5 5.5q-21 0 -42.5 -12t-38.5 -28t-28 -30.5t-12 -18.5q-3 -9 -5 -20q-5 -20 -5 -43q0 -19 6.5 -34t26.5 -15q21 0 43.5 15t41.5 39t31.5 53t12.5 58z" />
    <glyph glyph-name="seven" unicode="7" horiz-adv-x="350" 
d="M401 470q0 -20 -13 -31.5t-34 -19.5q-10 -4 -21 -15q-10 -9 -22.5 -24.5t-26.5 -40.5q-28 -54 -52 -112q-20 -50 -38 -112.5t-21 -125.5q0 -7 -1.5 -15t-5 -15.5t-11 -12.5t-20.5 -5q-20 0 -30.5 9.5t-15.5 21.5q-6 14 -7 32q1 43 12.5 89t28 90t35.5 83.5t35.5 70.5
t28 50.5t12.5 22.5q1 2 1 5q0 5 -4 7q-2 1 -3 1h-15q-26 0 -49 -5t-40 -11t-28 -11.5t-14 -7.5q-15 -12 -27.5 -16t-21.5 -4q-22 0 -30.5 9.5t-8.5 25.5q0 28 26.5 49t67 35t88 20.5t89.5 6.5q20 0 43.5 -1t44 -5.5t34.5 -13t14 -24.5z" />
    <glyph glyph-name="eight" unicode="8" horiz-adv-x="435" 
d="M416 446q0 -25 -12 -48t-30 -44t-38.5 -40.5l-38.5 -36.5l-1 -2q0 -2 2 -3q31 -16 56 -34q21 -16 39 -37t18 -46q0 -44 -15 -76.5t-39.5 -55.5t-54.5 -37.5t-60 -23t-56 -11.5t-43 -3q-47 0 -73.5 13.5t-40 31.5t-17 36.5t-3.5 28.5q0 29 16 58.5t38.5 55.5t46.5 47
t41 33q2 2 2 3t-0.5 1t-0.5 1q-1 0 -1 1q-28 12 -49 28q-18 14 -33 32t-15 40q0 29 22 59.5t58 56t82 42t95 16.5q19 0 37.5 -4.5t33.5 -15t24.5 -26.5t9.5 -40zM310 420q0 14 -6.5 21t-14.5 11q-10 4 -21 5q-18 0 -37 -7t-35.5 -18.5t-27 -26t-10.5 -30.5q0 -15 9.5 -27
t21.5 -20q14 -10 32 -17q1 -1 3 -1h3q1 0 1 1q23 16 41 34q15 15 28 34.5t13 40.5zM314 134q0 14 -7 26t-18.5 23t-25.5 20t-28 17h-2q-3 0 -4 -1q-33 -25 -59 -50q-23 -22 -41.5 -46.5t-17.5 -47.5q0 -16 5.5 -26t14 -16t19.5 -8t22 -2q37 0 64 11.5t44 28.5t25.5 36
t8.5 35z" />
    <glyph glyph-name="nine" unicode="9" horiz-adv-x="424" 
d="M395 354q0 -78 -13.5 -142.5t-35.5 -116.5t-49.5 -90.5t-55 -64.5t-52.5 -39t-42 -13q-22 0 -29.5 10t-7.5 24q0 9 3 15t7 10t11 7q56 39 87 85.5t46 87.5t18 70t3 35q0 8 -3 8q-1 0 -3 -2q-1 -1 -2 -1q-36 -27 -69 -42t-58 -23q-30 -9 -55 -10q-44 0 -59.5 23.5
t-15.5 53.5q0 42 20.5 91.5t56 92t83.5 71t104 28.5q35 0 54 -19t19 -67q0 -9 -1 -20t-4 -22q-1 -1 -1 -2v-4q0 -5 3 -5q2 0 3 1q3 1 7 3l6 2t7 1q7 0 10 -4q8 -8 8 -32zM281 387q0 13 -4 24q-3 9 -10 16.5t-19 7.5q-14 0 -36.5 -12t-44 -32t-37 -47.5t-15.5 -58.5
q0 -4 1 -9.5t5 -11t12 -9.5t21 -4q20 0 40 8.5t36 19.5t26.5 22.5t13.5 17.5q4 9 7.5 30t3.5 38z" />
    <glyph glyph-name="colon" unicode=":" horiz-adv-x="251" 
d="M168 268q0 -21 -8 -32t-18 -16q-11 -6 -25 -7q-20 0 -27.5 11t-7.5 25q0 8 2.5 17.5t8.5 18t15.5 14t23.5 5.5q4 0 10 -1t12 -5t10 -11t4 -19zM170 70q0 -15 -5.5 -26t-13 -18t-17 -10t-16.5 -3q-19 0 -27 11t-8 25q0 9 2.5 19t8.5 18.5t16 13.5t24 5q4 0 10 -1t12 -4.5
t10 -10.5t4 -19z" />
    <glyph glyph-name="semicolon" unicode=";" horiz-adv-x="248" 
d="M180 271q0 -26 -16.5 -41t-34.5 -15q-36 0 -36 37q0 6 2.5 15.5t8 18t15.5 15t25 6.5q4 0 10 -1.5t12 -5t10 -10.5t4 -19zM166 85q0 -24 -12.5 -52t-31 -52t-39.5 -40t-37 -16q-14 0 -14 10q0 3 1 5q0 1 1 3q16 16 27.5 43t19.5 52.5t12 44.5l4 19q0 7 10.5 12t21.5 5
q12 0 24.5 -6t12.5 -28z" />
    <glyph glyph-name="less" unicode="&#x3c;" horiz-adv-x="433" 
d="M368 164q0 -14 -10.5 -19t-18.5 -5q-12 0 -18 3q-4 2 -7 4q-21 8 -56 13.5t-68.5 8.5t-58 4t-25.5 1q-21 0 -32.5 4.5t-16.5 10.5q-6 7 -7 16q0 12 16.5 29.5t42.5 36t58 36.5t63 32.5t57.5 23.5t41.5 9q17 0 22.5 -11.5t5.5 -16.5q0 -7 -6.5 -16.5t-31.5 -14.5
q-27 -6 -56 -17q-25 -9 -55 -24.5t-60 -37.5q-1 -1 -2 -3q-2 -4 -2 -6q0 -4 6 -4q33 0 66 -2q28 -2 57.5 -5t51.5 -9q28 -8 35.5 -20.5t7.5 -20.5z" />
    <glyph glyph-name="equal" unicode="=" horiz-adv-x="459" 
d="M409 316q0 -13 -15.5 -19t-37.5 -8t-46 -1.5t-41 0.5q-18 -1 -49 -5t-62 -9l-76 -13q-11 0 -20 5.5t-9 20.5q0 13 28.5 23.5t70 17.5t86.5 10.5t78 3.5q45 0 69 -3t24 -23zM409 189q0 -11 -5 -17t-10 -8q-6 -4 -14 -3q-11 0 -36.5 3t-45.5 3q-46 0 -86 -5t-70 -11
q-35 -7 -65 -16q-5 -2 -12 -2q-13 0 -16.5 8t-3.5 9t1 6.5t5 12t13 13t24 10.5q31 7 67 12q31 5 72.5 9t90.5 4q10 0 25.5 -0.5t30 -3t25 -8.5t10.5 -16z" />
    <glyph glyph-name="greater" unicode="&#x3e;" horiz-adv-x="433" 
d="M380 307q0 -13 -16.5 -30t-42.5 -35.5t-58 -36.5t-63 -32.5t-57.5 -23.5t-41.5 -9q-17 0 -22.5 11.5t-5.5 16.5q0 7 6.5 16.5t31.5 14.5q26 6 55 17q25 9 55.5 24t60.5 38q1 1 2 3q2 4 2 6q0 4 -6 4q-33 0 -66 2q-28 2 -58 5t-51 9q-28 8 -35.5 20.5t-7.5 20.5
q0 14 10.5 19t18.5 5t18 -4q4 -2 7 -3q21 -8 56 -13.5t68.5 -8.5t58 -4t25.5 -1q21 0 32.5 -5t16.5 -11q6 -7 7 -15z" />
    <glyph glyph-name="question" unicode="?" horiz-adv-x="346" 
d="M318 430q0 -27 -11.5 -48.5t-29.5 -40t-38 -36t-38 -36t-29.5 -39.5t-11.5 -47q0 -6 1.5 -14.5t0 -16t-7 -13t-18.5 -5.5q-16 0 -26 8.5t-16 19t-8 21t-2 15.5q0 36 22.5 65t49.5 54t49.5 48t22.5 47q0 39 -26 57.5t-57 18.5q-36 0 -50.5 -13.5t-14.5 -31.5
q0 -11 3.5 -19t7 -14.5l7 -13t3.5 -14.5q0 -12 -11 -16.5t-18 -4.5q-19 0 -33 10.5t-23 25t-13 30.5t-4 27q0 16 9.5 33.5t28 32.5t46 25t64.5 10q23 0 52.5 -6.5t56 -21t44.5 -38.5t18 -59zM167 36q0 -14 -7.5 -25t-17.5 -18.5t-21.5 -11.5t-18.5 -4q-23 0 -30.5 12.5
t-7.5 27.5q0 9 4 20.5t11.5 21.5t19 16.5t26.5 6.5q16 0 29 -10t13 -36z" />
    <glyph glyph-name="at" unicode="@" horiz-adv-x="732" 
d="M718 242q0 -77 -19 -126.5t-45.5 -77.5t-53.5 -38.5t-43 -10.5q-29 0 -47.5 13.5t-30 31.5t-18 37.5l-10.5 31.5q-1 5 -5 5q-2 0 -4 -2l-1 -1q-19 -19 -36.5 -29t-32.5 -15t-26.5 -6t-19.5 -1q-29 0 -45.5 10.5t-24.5 25t-10 28.5t-2 21q0 19 7 37t19 34t27 30t31 25
q37 26 85 48q8 3 10 7t2 6q-3 11 -21 14.5t-36 3.5q-23 0 -28.5 -1.5t-16.5 -1.5t-17.5 3.5t-10 9t-4.5 11.5t-1 11q2 10 12 19q8 8 24 14t43 6q21 0 47 -4t49 -14.5t39 -27.5t16 -43q0 -12 -14 -23.5t-35 -24l-46 -26.5t-46 -30.5t-35 -36t-14 -42.5q1 -6 5 -10q7 -9 21 -9
q9 0 21.5 5t23 14t18.5 21t8 27q-1 1 -1 2v6q0 8 6 20.5t28 26.5q2 0 5 1q6 2 12 2t11.5 -3t5.5 -13q0 2 0.5 -9.5t2.5 -30t6.5 -41t12 -42t19 -32.5t28.5 -13q7 0 22 5t30 23t26 51.5t11 90.5q0 12 -2 36t-9.5 53t-23 59.5t-42.5 55.5t-67.5 41t-98.5 16q-53 0 -105 -20
t-92.5 -58t-65.5 -92.5t-25 -123.5q0 -15 2 -37.5t9 -48t20.5 -51.5t35.5 -46.5t55 -33.5t80 -13q15 0 24.5 2t16 4.5t12.5 4.5t15 2q5 0 9 -3q4 -2 7 -7t3 -13q0 -23 -17.5 -36t-37.5 -18q-24 -7 -54 -7q-52 0 -91.5 15t-68 39t-47.5 55.5t-30.5 64t-16 64t-4.5 56.5
q0 84 33 150.5t87 112.5t121.5 70.5t136.5 24.5q85 0 142 -30.5t91.5 -77t49 -101t14.5 -102.5z" />
    <glyph glyph-name="A" unicode="A" horiz-adv-x="496" 
d="M480 43q0 -16 -8 -24t-18 -12q-11 -4 -25 -5q-29 0 -47.5 25.5t-29.5 56.5q-13 36 -20 82q0 5 -3 6t-6 1q-37 -3 -66.5 -9.5t-49.5 -12.5q-24 -7 -42 -15q-8 -5 -11 -11q-2 -4 -3 -7q-12 -44 -17.5 -70t-8 -41.5l-4 -25.5t-5.5 -22q-5 -15 -14 -22.5t-19 -11t-18 -4
t-12 -0.5q-11 0 -17 6t-9 14.5t-3.5 16.5t-0.5 12q0 20 4 44t9 45q6 25 14 50q0 5 -2 7q-1 1 -2 1q-16 6 -21 16.5t-5 15.5q4 21 15 33t22 19q13 7 28 10q4 1 8 5q1 2 2 3q9 23 24 56.5t33.5 70.5t40 74t43.5 66.5t42.5 48t38.5 18.5q11 0 12.5 -3t9.5 -3q3 0 6.5 4t9 8.5
t14 9t20.5 4.5q9 1 19.5 -5.5t10.5 -35.5q0 -12 -1 -21t-1.5 -22t-1.5 -32.5t-1 -52.5q0 -38 2 -82.5t8.5 -89.5t17.5 -86t29 -71q9 -20 9 -32zM327 275q-1 23 -1.5 52t-0.5 55v60q0 2 -1 4q-2 4 -4 4q-12 -3 -25 -18t-25.5 -36.5t-24 -45.5t-20 -44.5l-14 -34.5t-5.5 -15
q0 -10 4 -10l10.5 2.5t26.5 5.5t35 6t37 4q2 0 4 2q4 4 4 9z" />
    <glyph glyph-name="B" unicode="B" horiz-adv-x="458" 
d="M448 186q0 -14 -8 -37t-25.5 -49.5t-46.5 -53t-71.5 -48.5t-99.5 -35.5t-131 -13.5q-14 0 -21.5 15.5t-11.5 38t-4.5 47t-0.5 42.5q0 57 7 109t15 92q10 47 22 86q15 36 33.5 44.5t31.5 8.5q20 -1 24 -9t4 -13q-23 -92 -30.5 -163.5t-7.5 -116.5v-26t1 -19q1 -9 2 -16
q1 -14 8 -18q3 -3 6 -2q34 0 68.5 11t62.5 29t46 40t18 45q0 30 -23 47t-51 25.5t-52.5 10.5t-26.5 4q-8 9 -8 23q0 23 9.5 34t20.5 16q38 17 59 32t30 26q11 13 11 25q0 23 -17 38t-42.5 24t-54.5 12.5t-53 3.5q-39 0 -66.5 -4.5t-46.5 -10.5t-31.5 -10.5t-21.5 -4.5
q-13 0 -17 7.5t-4 16.5q0 14 9 30t29 29.5t52 23t77 9.5q35 0 85 -8t96 -26t78.5 -47.5t32.5 -71.5q0 -13 -6.5 -29t-18 -31.5t-28 -29t-36.5 -21.5q-2 -1 -3 -2q-2 -2 -2 -5t3 -4q40 -13 64.5 -29t38 -32.5t18.5 -31.5t5 -27z" />
    <glyph glyph-name="C" unicode="C" horiz-adv-x="443" 
d="M431 147q0 -31 -20 -64t-53 -60.5t-75 -44.5t-85 -17q-41 0 -70 12.5t-48 31t-30 41t-16 43.5t-6.5 37.5t-1.5 23.5q0 58 21.5 124.5t60.5 123.5t93 94.5t119 37.5q6 0 20.5 -1.5t30 -10.5t27.5 -28t12 -55q0 -15 -5 -41t-16.5 -52t-30.5 -45t-48 -19q-14 0 -25 6.5
t-11 25.5q0 15 11 33q7 12 13 24q5 11 9 22t4 22q0 22 -25 22q-23 0 -49.5 -21t-49.5 -57.5t-38 -85.5t-15 -104q0 -11 1.5 -28.5t7.5 -35t18.5 -30.5t34.5 -13q10 0 28 2.5t40.5 14t47.5 33.5t48 61q4 6 9 10t11 7t14 3q15 0 26 -10t11 -32z" />
    <glyph glyph-name="D" unicode="D" horiz-adv-x="460" 
d="M450 279q0 -55 -23.5 -104.5t-61 -91.5t-84.5 -75.5t-94 -56.5t-90 -35.5t-72 -12.5q-25 0 -31 8.5t-6 13.5q2 17 10 28t16 16q10 6 22 8q61 15 117 47t98 72t67 82t25 78q0 40 -21.5 68.5t-49.5 46.5t-55 26.5t-38 8.5q-2 0 -3 -1q-3 -3 -3 -4q-3 -20 -5 -44
q-2 -20 -3 -46t-1 -53q0 -32 2.5 -62.5t10.5 -53.5l2 -8t2 -8.5t1 -9.5q0 -17 -13 -25t-28 -8q-23 0 -37 16.5t-21.5 39t-9.5 47t-2 41.5q0 45 5 95t11 95q0 2 -1 3t-5 3q-32 3 -53 3.5t-26 0.5q-19 0 -22.5 9t-3.5 12q2 20 13.5 31.5t23.5 16.5q14 6 31 7h29t24 -1q5 0 5 4
q3 22 21.5 41.5t47.5 19.5q5 0 12.5 -2.5t7.5 -14.5q0 -3 -2 -17t-5 -37q0 -3 2 -5q1 -1 2 -1q46 -9 93 -27t84.5 -44.5t61 -61.5t23.5 -78z" />
    <glyph glyph-name="E" unicode="E" horiz-adv-x="434" 
d="M441 268q0 -23 -17.5 -36.5t-38.5 -21.5q-25 -9 -56 -12q-36 -4 -66.5 -8.5t-52.5 -9.5q-26 -5 -46 -10q-3 -1 -4 -3t-1 -4q0 -7 6 -25.5t20 -38t37.5 -35t58.5 -15.5q11 0 23.5 2.5l26.5 5.5q7 2 14 5q6 2 13 3.5t15 1.5q13 0 19.5 -6t6.5 -22q0 -15 -8.5 -29.5
t-25.5 -26t-42 -18.5t-58 -7q-35 0 -63 7.5t-49 20t-36.5 28t-26.5 32.5q-26 39 -35 89l-2 2q-3 3 -5 3q-5 0 -13 -2.5l-17.5 -5.5t-19 -5.5t-15.5 -2.5q-11 0 -16.5 3.5t-7.5 8.5q-3 5 -3 13q0 5 2 17t10.5 26t25.5 27t48 21q2 0 4 1q4 2 4 8q0 15 6 41.5t18.5 57.5
t32 62.5t48 57.5t65.5 42.5t84 16.5q7 0 20.5 -1t26 -5.5t22 -14t9.5 -25.5q0 -31 -21.5 -40t-59.5 -9t-66 -17.5t-46 -42.5t-27.5 -53.5t-9.5 -50.5q0 -2 1 -3q2 -2 6 -2q51 8 110.5 14.5t115.5 6.5q9 0 18.5 -0.5t18 -2t14 -4.5t5.5 -9z" />
    <glyph glyph-name="F" unicode="F" horiz-adv-x="370" 
d="M374 491q0 -14 -8 -28.5t-28 -14.5q-4 0 -7.5 0.5t-8.5 1.5q-7 0 -27.5 -3.5t-44 -19t-45 -47.5t-30.5 -89q0 -3 2 -5q1 -1 3 -1q17 4 35 5.5t35 1.5q31 0 50 -8t19 -33q0 -12 -5.5 -19t-11.5 -11q-8 -4 -17 -5q-30 -2 -60 -7.5t-57 -13.5q-2 -1 -3 -2t-4 -6
q-2 -24 -3 -46t-1 -42q0 -36 2 -65t5 -49q4 -24 8 -42q0 -12 -5.5 -20.5t-13.5 -14t-17 -8.5t-17 -3q-14 0 -23.5 8t-14.5 18q-6 11 -9 26q-8 42 -10.5 87.5t-2.5 113.5q0 5 -4 5q-3 0 -10.5 -4t-18.5 -4q-10 0 -15.5 4.5t-8.5 9.5q-4 6 -4 15q0 20 10 34t23 23q14 11 33 18
q1 0 3 1q3 1 4 6q4 59 26.5 110.5t56 89.5t76 59.5t86.5 21.5q23 0 40.5 -10.5t17.5 -37.5z" />
    <glyph glyph-name="G" unicode="G" horiz-adv-x="496" 
d="M496 293q0 -8 -5 -23t-30 -29q-12 -5 -22 -13q-8 -7 -14.5 -17.5t-6.5 -26.5v-23q0 -16 1 -39.5t4 -48.5t9 -47.5t16 -36.5q1 -2 2 -5q1 -2 2 -5t1 -6q-1 -11 -6 -19q-5 -7 -13.5 -12.5t-25.5 -5.5q-26 0 -40.5 19t-21.5 41.5t-8.5 41.5l-1.5 19q0 7 -4 7q-3 0 -5 -2
q-1 -1 -2 -1q-23 -29 -47 -46.5t-45.5 -26.5t-39.5 -12t-30 -3q-32 0 -54.5 11t-38.5 28.5t-25.5 38t-14.5 39.5t-7 33.5t-2 19.5q0 66 22.5 132t63 119.5t97.5 87t126 33.5q13 0 28.5 -2t29.5 -8t23.5 -18t9.5 -32q0 -8 -3 -18t-9.5 -19t-16.5 -15.5t-23 -6.5q-14 0 -24 14
l-12 7l-14 4.5t-19 2.5q-28 0 -59 -20.5t-57 -55.5t-43 -83t-17 -103q0 -9 1.5 -24.5t8 -30.5t19.5 -26t35 -11q11 0 28.5 5t36.5 19t37.5 38t31.5 63q0 2 -0.5 4t-4.5 2q-8 0 -16.5 -2.5t-26.5 -11.5q-6 -3 -11 -5t-10.5 -3t-11.5 -1q-10 0 -17.5 6t-7.5 18q0 5 1.5 13.5
t7.5 18.5t17 20.5t29 19.5q27 13 57 24q26 9 57 17t63 8q17 0 32.5 -5t15.5 -25z" />
    <glyph glyph-name="H" unicode="H" horiz-adv-x="476" 
d="M516 522q0 -7 -2.5 -14.5t-7.5 -18.5q-16 -23 -32 -52q-14 -26 -28.5 -61.5t-24.5 -81.5q-6 -26 -10 -56q-4 -26 -6.5 -59.5t-2.5 -70.5q0 -25 1.5 -50t6.5 -50q0 -2 1 -5q2 -6 2 -12q0 -14 -5 -23t-12.5 -14t-16 -7.5t-15.5 -2.5q-23 0 -35 15t-17.5 37t-6.5 46.5
t-1 43.5q0 32 2.5 64t5.5 65q0 4 -8.5 4.5t-16.5 0.5q-23 0 -48.5 -4t-49.5 -10q-4 -2 -5 -3t-1 -2q-12 -66 -29 -117q-7 -22 -16 -43t-20 -37.5t-23.5 -26.5t-26.5 -10q-19 0 -27 10t-8 24q0 12 3 20q1 4 3 9l22 55q8 23 15 47t7 39q0 1 -5 1q-11 -3 -17.5 -6.5t-12 -6
t-10.5 -4t-14 -1.5q-11 0 -17 3.5t-9 8.5t-3.5 10t-0.5 9q0 14 5.5 24t13.5 18q9 9 20 15q6 4 15 8q8 4 19 8.5l26 10.5l2 2q2 2 3 5q1 11 1 21.5v20.5q0 34 -3 59.5t-6 43.5q-4 20 -9 36q-1 2 -1 5q-1 3 -1 12q0 17 11.5 29t34.5 12q14 0 31 -10.5t29 -45.5l5 -31
q2 -15 3.5 -36.5t1.5 -48.5v-20t-1 -21q0 -1 1 -2q2 -2 4 -2q26 5 57 9.5t68 7.5q3 0 4 4q10 47 24.5 89.5t33.5 75t42.5 51.5t52.5 19q3 0 9 -1t11.5 -4t10 -9.5t4.5 -17.5z" />
    <glyph glyph-name="I" unicode="I" horiz-adv-x="298" 
d="M290 468q0 -6 -1 -11.5t-6 -11.5t-15 -11.5t-27 -10.5q-8 -1 -14 -4q-5 -2 -10.5 -5t-7.5 -6q-12 -41 -20 -95.5t-8 -138.5q0 -15 0.5 -32.5t3 -32t6 -24t9.5 -9.5h6q2 0 5.5 0.5t7.5 0.5q36 0 36 -32q0 -18 -8.5 -28.5t-18.5 -15.5q-12 -6 -27 -7q-25 -2 -47.5 -8
t-40.5 -12q-21 -7 -40 -15q-13 -5 -24 -5t-17.5 4.5t-9.5 10.5q-4 6 -5 15q0 14 5 24t12 17q8 8 18 13q9 5 16 10l11.5 10t5.5 10q0 42 3.5 96t8.5 103q5 57 13 116q1 6 -5 7.5t-11 1.5q-20 -3 -25 -3q-17 0 -22 9t-5 16q0 11 9.5 29.5t46.5 34.5q19 7 40 13q18 5 40.5 9
t46.5 4q6 0 17 -0.5t21.5 -4t18.5 -11t8 -20.5z" />
    <glyph glyph-name="J" unicode="J" horiz-adv-x="394" 
d="M423 495q0 -5 -4 -19t-25 -24q-7 -5 -15 -9.5t-8 -12.5v-14q0 -7 0.5 -16t0.5 -21q0 -19 -2 -60t-10 -92t-23.5 -105.5t-43 -99t-68 -73.5t-98.5 -29q-48 0 -75 17.5t-40.5 40.5t-16.5 45.5t-3 31.5q0 45 16 76t38 50.5t45.5 28.5t38.5 9q14 0 23 -3t13.5 -8t6 -11
t1.5 -11q0 -8 -3.5 -13t-7.5 -9t-10 -7q-24 -11 -37.5 -26t-20.5 -29q-8 -17 -10 -34q0 -35 11.5 -50.5t37.5 -15.5q28 0 49.5 18t37 47t26.5 64.5t17.5 71.5t9 68t2.5 53q0 14 -0.5 25t-1.5 19q-1 10 -1 17l-5.5 24.5t-10.5 6.5q-11 0 -21.5 -4.5t-21 -10t-21 -10
t-19.5 -4.5q-20 0 -23.5 11.5t-3.5 18.5q0 11 7 29t33 37q23 14 54 25q26 9 62.5 17t84.5 8q3 0 9 -1t11.5 -5t10 -11.5t4.5 -20.5z" />
    <glyph glyph-name="K" unicode="K" horiz-adv-x="448" 
d="M443 -32q0 -20 -7.5 -30t-15.5 -15q-11 -5 -23 -6q-14 0 -23.5 7.5t-14.5 16.5q-7 11 -10 25q-17 45 -49.5 80.5t-65.5 60.5t-58 38t-26 13q-2 0 -5 -3q-1 -1 -1 -2q-1 -35 -5.5 -69t-14 -62t-25.5 -45t-40 -17q-12 0 -19 4t-10 10t-3.5 12t-0.5 10q0 14 5 34l10.5 41.5
l10.5 42.5t5 38q0 1 -3 4q-1 1 -2 1q-21 0 -26 12.5t-5 20.5q0 12 6 23.5t14 20.5q9 11 21 20q3 3 3 5v3q0 51 -5.5 93t-11.5 72q-8 35 -17 62q-1 2 -2 5t-1 11q0 17 15 32.5t41 15.5q12 0 24 -6t20 -26q7 -15 12 -41q5 -23 8.5 -60.5t4.5 -94.5q0 -1 1 -2q2 -2 3 -2
q2 0 3 2q0 1 9 13t25 29.5t36.5 37t43.5 36.5t46.5 28.5t45.5 11.5q17 0 28 -9.5t11 -30.5q0 -10 -5.5 -22.5t-23.5 -21.5q-10 -5 -23 -10t-33 -19.5t-48.5 -42.5t-70.5 -77q-1 0 -1 -1v-4q0 -4 3 -6q67 -37 120 -80q22 -18 44 -39.5t38.5 -45.5t27 -49.5t10.5 -52.5z" />
    <glyph glyph-name="L" unicode="L" horiz-adv-x="327" 
d="M363 50q0 -17 -8 -26t-18 -14q-11 -5 -26 -6q-11 0 -22 3t-26 3q-41 0 -79 -11.5t-70 -26l-56 -26t-37 -11.5q-20 0 -27.5 12t-7.5 25q0 15 8 27t19 22t22.5 17.5l19.5 12.5q3 2 4 5t1 5q-3 51 -3 92q0 73 6.5 130.5t14.5 96.5q9 46 21 80q5 17 15 30q8 11 22.5 21
t36.5 10q5 0 12 -1t13 -4t10 -9.5t4 -17.5q0 -16 -8 -35q-16 -41 -27 -89q-11 -42 -19 -95.5t-8 -113.5q0 -17 1 -35t3 -35q0 -2 1 -3q2 -2 5 -2q1 0 12.5 3t28.5 7t38.5 7t41.5 3q11 0 25.5 -1.5t27 -6.5t21 -15t8.5 -28z" />
    <glyph glyph-name="M" unicode="M" horiz-adv-x="529" 
d="M508 468q0 -11 -4.5 -38t-10.5 -67t-10.5 -91.5t-4.5 -111.5q0 -42 4 -72t9.5 -52t9.5 -36.5t4 -24.5q0 -21 -15 -28.5t-26 -7.5q-27 0 -43.5 16.5t-25.5 43.5t-12 62t-3 73q0 32 1.5 61t3.5 52l6 51q1 10 -4 10q-3 0 -7 -4l-3 -3q-25 -40 -45.5 -60.5t-35.5 -30.5
q-18 -11 -32 -13q-19 0 -34 19.5t-26 43.5q-13 28 -23 64q-3 9 -6 9q-7 0 -12.5 -13.5t-9 -34t-6.5 -45.5t-4.5 -47.5t-2 -40.5t-0.5 -25v-34t1 -27q1 -13 2 -24q1 -17 -6.5 -25.5t-15.5 -13.5q-11 -5 -23 -6q-9 0 -18.5 4t-17.5 13.5t-13.5 25.5t-5.5 40q0 13 1 50.5t6 86
t14 102t26 98t42 73.5t61 29q7 0 14.5 -3t9.5 -14q11 -50 23 -89q10 -34 23 -61.5t25 -27.5q1 0 8.5 2.5t22.5 17.5t38 48.5t53 95.5q3 8 8 15q5 5 12.5 10t18.5 5q6 0 16 -2t19.5 -8t16.5 -15.5t7 -24.5z" />
    <glyph glyph-name="N" unicode="N" horiz-adv-x="481" 
d="M493 495q0 -8 -2.5 -18.5t-10.5 -24.5q-22 -38 -39 -99q-14 -53 -26 -135.5t-12 -203.5q0 -22 -8 -33.5t-17 -16.5q-11 -6 -25 -7q-22 0 -43 19.5t-39.5 50t-35 68t-30 74t-23.5 68t-17 50.5q-4 10 -6 10t-3.5 -2.5t-3.5 -4.5q-2 -3 -3 -6q-12 -38 -16.5 -73t-4.5 -66
q0 -35 2.5 -55.5t5.5 -33.5t5.5 -22.5t2.5 -21.5q0 -25 -15.5 -33.5t-29.5 -8.5q-24 0 -37.5 18t-20 43t-8 51.5t-1.5 43.5q0 9 2 37t7 65t14.5 78t25 75t37.5 56.5t53 22.5q11 0 19.5 -5.5t16 -18.5t15 -35.5t16.5 -56.5q14 -49 29 -87q12 -33 26 -60t25 -27q5 0 8 6.5
t4 33.5q0 8 1 35t5 63t11.5 75t21.5 72t35 54.5t52 21.5q14 0 25.5 -6t11.5 -30z" />
    <glyph glyph-name="O" unicode="O" horiz-adv-x="475" 
d="M461 293q0 -13 -3.5 -42t-13 -64.5t-26.5 -74t-44.5 -70t-66 -51.5t-90.5 -20q-25 0 -55.5 12.5t-57 40.5t-44.5 73t-18 110q0 38 7 70.5t15 57t15 39t7 16.5q0 1 -3 4q-2 1 -3 2q-7 0 -20 -6t-24 -6q-8 0 -15 4.5t-7 20.5q0 20 15.5 43t44.5 42.5t69.5 32.5t91.5 13
q45 0 85.5 -15.5t72 -46.5t50 -77.5t18.5 -107.5zM362 271q-3 46 -16 82q-6 15 -14.5 30t-21 26.5t-29.5 18.5t-38 7t-34.5 -4t-21.5 -9q-9 -5 -13 -12q-11 -20 -20 -45q-8 -21 -14 -49.5t-6 -61.5q0 -19 5.5 -50.5t18.5 -62t34.5 -52.5t52.5 -22q16 0 36.5 11t38.5 35
t30 63t12 95z" />
    <glyph glyph-name="P" unicode="P" horiz-adv-x="413" 
d="M435 370q0 -29 -11.5 -53.5t-31 -45.5t-44 -38t-49.5 -30q-60 -32 -135 -52q-4 0 -6 -5q-1 -2 -1 -4q-1 -9 -2 -19q-1 -8 -1 -19.5v-22.5q0 -18 1.5 -35t5.5 -28q8 -24 9.5 -37t1.5 -21q-5 -23 -21 -28t-32 -5q-20 0 -31.5 16.5t-17.5 41t-8 51.5t-2 48v27q0 5 1 10
q0 3 -2 7l-2 2q-17 0 -26.5 7t-14 15t-5.5 15.5t-1 8.5q0 11 4 18t9 11q6 4 14 5q8 0 18 2q4 1 9 3t5 7q4 38 8.5 67.5t9.5 49.5q5 24 10 42q7 23 17 28t15 5q16 0 25.5 -5.5t14.5 -14t7 -18.5t2 -18q0 -4 -2 -18.5l-4.5 -32t-4.5 -34.5t-2 -26q0 -6 3 -7q1 -1 3 -1
q57 15 88.5 37t46.5 42.5t17.5 35.5t2.5 16q0 30 -28.5 50.5t-68 32.5t-81.5 17.5t-70 5.5q-18 0 -28 -0.5t-16 -1.5t-11 -1.5t-12 -0.5q-19 0 -27 7.5t-8 15.5q0 6 6 17t20.5 21t39 17.5t61.5 7.5q30 0 66 -5t73 -15t71.5 -25.5t61.5 -36t43.5 -47.5t16.5 -59z" />
    <glyph glyph-name="Q" unicode="Q" horiz-adv-x="474" 
d="M485 -11q0 -28 -6 -43t-14.5 -22t-16.5 -8t-12 -1q-12 0 -18.5 5.5t-9.5 12.5q-4 8 -4 18q0 26 -5.5 42.5t-11.5 26.5q-8 11 -17 18q-1 0 -1.5 -0.5t-1.5 -0.5h-1q-9 -11 -25 -25.5t-40 -27.5t-56.5 -22.5t-73.5 -9.5q-34 3 -60 17q-23 12 -41 37.5t-18 71.5q2 18 8 37
q5 17 15 36.5t28 39.5q2 2 2 3t-2 3l-1 1q-26 15 -41.5 31.5t-23 32t-9.5 29t-2 22.5q0 27 16.5 65t47.5 73.5t76 60t102 24.5q28 0 58 -12t55 -42t41.5 -80.5t16.5 -126.5q0 -29 -3.5 -55.5t-8.5 -46.5q-5 -24 -11 -43q0 -4 1 -5l2 -2q18 -15 33 -35q12 -17 22.5 -42
t10.5 -57zM349 285q0 46 -8 77t-21 50.5t-30 28t-35 8.5q-22 0 -44 -10.5t-39.5 -27.5t-28.5 -39t-11 -45q0 -28 19.5 -48.5t49 -37t64.5 -31.5t66 -33h2q3 0 3 3q3 14 6 31l4.5 33t2.5 41zM301 96q0 3 -3 5q-23 14 -46.5 26.5t-41.5 20.5l-41 18h-1q-1 0 -2 0.5t-2 0.5
q-4 0 -6 -3q-4 -9 -8 -19q-3 -9 -5.5 -20t-2.5 -25q0 -12 3.5 -24t11 -21t20 -15t31.5 -6q21 0 38.5 9.5t29.5 21.5q14 13 25 31z" />
    <glyph glyph-name="R" unicode="R" horiz-adv-x="438" 
d="M459 -77q-1 -12 -6 -22q-5 -8 -14.5 -14.5t-26.5 -6.5q-24 0 -48 18.5t-45.5 47t-40 62.5t-32 63.5t-22.5 51t-10 25.5q-3 7 -7 7q-1 0 -1.5 -0.5t-1.5 -0.5l-1 -1q-15 0 -23.5 5t-13 12t-5.5 14t-1 10q0 5 2 9.5t4 8.5q3 4 7 7q50 20 78 40.5t42 38t17 30t3 17.5
q0 28 -25 50t-61.5 36.5t-78.5 22t-76 7.5q-26 0 -42.5 -2t-20.5 -2q-14 0 -21 4.5t-11 10.5t-5 15q1 18 29 35t85 17q55 0 114 -13t107 -37t79 -58.5t31 -77.5q0 -5 -2.5 -19.5t-14.5 -35.5t-36.5 -45.5t-68.5 -49.5q-2 -1 -3 -2q-2 -2 -2 -5q0 -1 10 -29t28.5 -66.5
t44.5 -77.5t58 -61q9 -6 18 -15.5t10 -23.5zM172 358q0 -8 -3 -18q-13 -47 -23 -99q-9 -45 -16 -100t-7 -112v-17t1 -17v-2q0 -1 0.5 -2.5t0.5 -3.5q0 -14 -7 -21t-15 -11q-10 -4 -22 -5q-17 0 -27 10.5t-15 25t-6.5 30t-1.5 26.5q0 66 10 125t23 105q14 54 33 100q4 7 9 12
t12 9t16 4q3 0 9.5 -1.5t13 -6t11 -12t4.5 -19.5z" />
    <glyph glyph-name="S" unicode="S" horiz-adv-x="448" 
d="M436 126q0 -24 -16.5 -56t-50.5 -61t-84.5 -49t-119.5 -20q-40 0 -63.5 10.5t-36 24.5t-16 29t-3.5 26q0 32 12.5 52.5t27.5 32.5t27.5 17l12.5 5q15 0 19 -5.5t4 -10.5q0 -2 -0.5 -2.5t-0.5 -1.5v-2q-5 -14 -6.5 -25t-1.5 -19q0 -29 16 -39.5t39 -10.5q24 0 47 7.5
t41.5 20t30 30t11.5 37.5q0 24 -22 39t-55 25.5t-71 19.5t-71 22t-55 32.5t-22 50.5q0 39 28.5 79.5t72 74t96.5 54.5t103 21q16 0 32 -4.5t28.5 -14t20 -25.5t7.5 -40q0 -17 -5.5 -35.5t-15.5 -33.5t-24 -25t-30 -10q-5 0 -14.5 5t-9.5 23q0 7 1 10.5t1.5 7t1.5 8t1 13.5
q0 36 -38 36q-21 0 -47.5 -12t-50 -30t-39 -39.5t-15.5 -39.5q0 -19 22.5 -31.5t56 -23.5t73 -22.5t73 -27.5t56 -39.5t22.5 -57.5z" />
    <glyph glyph-name="T" unicode="T" horiz-adv-x="252" 
d="M372 526q0 -6 -1 -15t-5 -17t-11.5 -13.5t-20.5 -5.5q-4 0 -23 -1.5t-44 -5.5t-52 -11t-48 -19l-1 -2q0 -2 3.5 -3.5t8 -4t8.5 -5.5t5 -8q-2 -18 -6.5 -45.5t-9 -62.5t-8 -75t-3.5 -82q0 -41 4.5 -77.5t16.5 -63.5q1 -1 2 -4q2 -6 2 -11q0 -2 -1.5 -8.5t-6.5 -13.5
t-15 -12.5t-27 -5.5t-29.5 10t-20.5 25t-12.5 33t-7 35t-3 30t-0.5 18q0 46 6 100.5t14 102.5q9 55 20 111q0 5 -4 5q-18 -4 -31.5 -9.5t-25 -11t-21.5 -9t-19 -3.5q-17 0 -24 13q-4 5 -5 13q0 11 7 30.5t37 36.5q44 24 92 42q41 16 91.5 29t101.5 13q7 0 18.5 -1t22 -5.5
t18.5 -13t8 -22.5z" />
    <glyph glyph-name="U" unicode="U" horiz-adv-x="456" 
d="M431 416q-3 -128 -29 -227q-11 -43 -28 -83.5t-42 -72.5t-59 -51.5t-78 -19.5q-29 0 -51 10.5t-38 27.5t-27 39t-18 45q-17 54 -20 123q0 90 15 144.5t47 72.5q5 2 11 4q5 2 11 3t13 1q13 0 23 -5.5t10 -24.5q0 -5 -5.5 -23t-12.5 -46.5t-12.5 -66t-5.5 -80.5
q0 -23 3 -45.5t10 -40.5t19 -29.5t31 -11.5q33 0 57.5 29.5t40.5 74.5t23.5 98.5t7.5 101.5q0 33 -3 72.5t-11 80.5q1 20 12 36.5t42 16.5q38 0 51 -35.5t13 -117.5z" />
    <glyph glyph-name="V" unicode="V" horiz-adv-x="405" 
d="M457 527q0 -9 -4.5 -21.5t-17.5 -27.5q-21 -20 -42 -53q-18 -28 -39.5 -71t-40.5 -106l-27 -86q-11 -34 -20.5 -66.5t-12.5 -45.5q-6 -23 -14 -37t-17 -21t-18.5 -9t-18.5 -2q-15 0 -27.5 7.5t-20.5 17.5q-11 11 -18 25q-37 66 -58 134t-31 126.5t-12 101t-2 56.5
q0 8 5 18.5t13.5 20t20.5 16t27 6.5q5 0 11.5 -1.5t12.5 -7t10 -15.5t4 -28q-1 -5 -1 -12v-33q0 -24 2 -58t7.5 -71t16 -74.5t27.5 -69.5q1 -3 3 -5q3 -5 8 -5t8 9q4 12 13 48.5t23 84t33 99t43 95t52 71.5t61 28q16 0 28.5 -8t12.5 -30z" />
    <glyph glyph-name="W" unicode="W" horiz-adv-x="683" 
d="M665 401q0 -36 -8 -80t-22 -89t-33.5 -87.5t-42 -76t-48.5 -53.5t-52 -20q-18 0 -33 8.5t-28 22t-23 31.5t-18 36q-18 43 -30 99q-1 10 -6 10q-2 0 -7 -5q-2 -2 -3 -4q-7 -8 -16.5 -31.5l-19.5 -49.5l-23 -65q-8 -19 -17.5 -29t-19 -15t-17.5 -6t-12 -1q-27 0 -49 18
t-38.5 46.5t-28 64t-19 70.5t-11 66t-3.5 50q0 29 3 52t7 38q4 18 11 30q4 10 12 18q7 7 18.5 12t28.5 6q9 0 16 -5q6 -5 11 -14.5t5 -26.5q0 -15 -4 -32q-4 -14 -7 -32q-2 -15 -4 -35.5t-2 -43.5q0 -10 2.5 -35.5t9 -52.5t16.5 -47.5t25 -20.5q6 0 13.5 3.5t16.5 23.5
q15 39 30 74l28 62t27 54l2 8q2 8 2 11q-1 10 3 20q3 8 9 17.5t18 17.5l14 7l13 4.5t15 2.5q9 0 15 -5.5t7 -19.5q0 -7 0.5 -31t2.5 -55.5t6 -66.5t12 -64t20.5 -48t30.5 -19q13 0 29.5 18.5t31.5 50.5t25 75.5t10 93.5q0 24 -4.5 49.5t-10.5 53.5q-2 3 -3 7q-2 8 -2 16
q0 18 12 34.5t40 16.5q37 0 52 -37.5t15 -94.5z" />
    <glyph glyph-name="X" unicode="X" horiz-adv-x="446" 
d="M498 487q0 -14 -6 -23.5t-14 -16.5q-9 -8 -20 -13q-13 -6 -28 -16q-13 -8 -29.5 -20.5t-34.5 -28.5q-20 -18 -42 -41l-43.5 -47l-51.5 -59q-1 0 -1 -1v-4q0 -3 1 -4l25.5 -33.5t33 -34.5t40 -27t47.5 -11q14 0 22.5 2.5t16.5 2.5q17 0 28 -9.5t11 -32.5q0 -17 -8.5 -29
t-22.5 -20t-31 -12t-32 -4q-41 0 -75.5 20t-60 44t-41 44t-17.5 20q-1 0 -3 -2q-1 -1 -2 -1q-16 -23 -30.5 -47t-27.5 -49q-8 -15 -12 -28t-11 -29q-8 -17 -17 -26t-17.5 -13.5t-15 -5t-8.5 -0.5q-16 0 -23.5 7.5t-11.5 16.5q-4 11 -5 25q0 10 3 22q2 11 8 24t17 30l28 44
l32.5 48l41.5 60q2 2 2 4q0 1 -0.5 2t-0.5 2l-1 1q-25 47 -39 89.5t-20.5 74.5t-7.5 51l-1 19q0 10 3.5 20.5t11.5 19.5t19.5 15t26.5 6q10 0 21.5 -7t13.5 -32q1 -24 5 -50q4 -23 11.5 -53t21.5 -65q0 -1 1 -1q1 -1 3 -1q48 63 96 112q20 21 42.5 41t44.5 36t43.5 25.5
t39.5 9.5q3 0 11.5 -1t17.5 -5t15.5 -12.5t6.5 -22.5z" />
    <glyph glyph-name="Y" unicode="Y" horiz-adv-x="411" 
d="M399 531q0 -3 -1 -22t-6 -52.5t-16 -80.5t-32 -107q0 -2 1 -3t1 -2t2 -1q24 -6 31 -20q4 -7 4 -14q0 -27 -21.5 -43t-47.5 -16q-4 0 -7 -3q-2 -2 -2 -3q-15 -39 -39 -84t-55 -83.5t-68 -64t-78 -25.5q-18 0 -28 6.5t-15 14.5q-6 10 -7 22q0 12 3.5 20t8.5 13q5 6 13 10
q34 5 58.5 19.5t40.5 30.5q18 18 31 40l23 40t19 42q1 2 1 5q0 4 -4 4q-67 13 -108 41.5t-63 63.5t-29 72t-7 66q0 26 3 43q1 9 3 17q4 12 12 22q7 8 17 15.5t27 7.5q1 0 8.5 -0.5t15 -5t14 -13.5t6.5 -26q0 -8 -1 -12.5t-2 -10t-2 -14.5t-1 -26q0 -29 7.5 -54t24 -44
t44 -31.5t68.5 -16.5q4 0 6 6q14 41 23.5 83t14.5 77q6 40 9 78q0 15 17 33.5t48 18.5q12 0 23.5 -6t11.5 -27z" />
    <glyph glyph-name="Z" unicode="Z" horiz-adv-x="388" 
d="M403 440q0 -10 -5.5 -21.5t-19.5 -25.5q-63 -57 -116 -112q-23 -24 -45 -49.5t-41 -51.5t-33 -51t-19 -47q-1 -2 -1 -3q-1 -2 -1 -5q0 -6 7 -6q1 0 15.5 3t36.5 7t47.5 7t48.5 3q15 0 32 -2.5t31 -9.5t23.5 -18t9.5 -28q0 -18 -7.5 -27t-15.5 -14q-10 -5 -22 -6
q-11 0 -29 5t-51 5q-45 0 -74 -4t-50 -8.5l-38.5 -8t-39.5 -3.5q-20 0 -31.5 5t-18.5 12.5t-9 16t-2 16.5v9t1 7q1 4 2 7q14 36 38.5 76.5t53.5 80t59 76.5l54.5 65.5l40 47t15.5 21.5q0 7 -7.5 10.5t-17.5 5t-19.5 2t-13.5 0.5q-20 0 -37 -3t-30 -7q-15 -4 -28 -10
q-8 -2 -11 -2q-11 0 -17.5 4.5t-10.5 10.5t-5 11t-1 7q0 39 41.5 59.5t109.5 20.5q9 0 41.5 -3t68 -12t63.5 -24t28 -39z" />
    <glyph glyph-name="bracketleft" unicode="[" horiz-adv-x="210" 
d="M183 561q0 -5 -4.5 -13.5t-19.5 -22.5q-7 -5 -11 -11q-4 -5 -7.5 -12.5t-3.5 -16.5q-2 -24 -3 -58q-3 -59 -3 -178v-268q2 -13 4.5 -24.5t16.5 -27.5q10 -9 16 -19t6 -19q0 -8 -5 -12t-11 -6q-7 -3 -15 -2q-33 0 -59 28t-26 74q0 48 1 97t1 85q0 53 1 110t2.5 106l2.5 84
t1 43q0 21 11.5 37t26.5 26.5t30 16t23 5.5q10 0 15 -3.5t7 -7.5q3 -5 3 -11z" />
    <glyph glyph-name="backslash" unicode="\" horiz-adv-x="336" 
d="M275 -48q0 -13 -6.5 -24.5t-20.5 -11.5q-12 0 -19 5.5t-12 17t-10 28t-13 38.5q-21 55 -47.5 115.5l-54 120l-54.5 115t-47.5 102t-33.5 80t-13 49.5q0 14 5 23.5t19 11.5q5 0 9 -3t7 -6q4 -4 7 -9l142 -299l52.5 -115l45.5 -105.5t32 -84t12 -48.5z" />
    <glyph glyph-name="bracketright" unicode="]" horiz-adv-x="210" 
d="M154 481q0 -48 -1 -97t-1 -85q0 -53 -1 -110t-2.5 -106l-2.5 -84t-1 -43q0 -21 -11.5 -37t-26.5 -26.5t-30.5 -16t-22.5 -5.5q-17 0 -22 11q-3 4 -3 11q0 5 4.5 13.5t19.5 22.5q7 5 11 11q4 5 7 12t4 17q1 24 3 58q1 29 2 73.5t1 104.5v268q-2 13 -4.5 24.5t-16.5 27.5
q-10 9 -16 19t-6 19q0 8 4.5 11.5t10.5 5.5q7 2 16 3q33 0 59 -28t26 -74z" />
    <glyph glyph-name="underscore" unicode="_" horiz-adv-x="444" 
d="M384 -50q0 -17 -14 -22.5t-34 -5.5q-8 0 -16.5 0.5t-16.5 1.5q-47 4 -65 5t-29 1q-29 0 -56 -2t-49 -4q-26 -3 -49 -6q-8 3 -16 8.5t-10 19.5q1 13 14.5 20.5t30.5 10.5t34 4t26 3q12 1 27 2q13 1 30.5 2t38.5 1q16 0 42 -1t51 -4.5t43 -11.5t18 -22z" />
    <glyph glyph-name="grave" unicode="`" 
d="M341 383q0 -8 -4 -9t-8 -1q-7 0 -18 4t-26 18q-17 14 -32 25q-13 10 -26 18.5t-21 10.5q-4 2 -7 5q-6 6 -6 15q0 1 1.5 7.5t7 13.5t17 12.5t31.5 5.5q12 0 27.5 -15t30 -35t24 -41t9.5 -34z" />
    <glyph glyph-name="a" unicode="a" horiz-adv-x="334" 
d="M321 -28q0 -12 -6 -18.5t-14 -9.5q-9 -4 -20 -4q-18 0 -30.5 10.5t-20.5 23.5q-10 15 -16 35q-1 5 -4 5q-2 0 -4 -2l-2 -2q-15 -17 -31 -27.5t-31 -16t-27 -7t-20 -1.5q-29 0 -46 10.5t-25 24t-10 27t-2 19.5q0 20 7 38.5t19 35t27 30.5t31 26q37 27 85 49q3 1 6 3
q6 4 6 9q0 11 -18 15t-39 4q-9 0 -17.5 -0.5t-14.5 -1.5q-8 -1 -14 -1q-11 -1 -17.5 2.5t-9.5 8.5t-4 10.5t-1 8.5t2 9.5t10 14t23.5 13t42.5 5.5q18 0 44 -4t49.5 -13.5t40 -24.5t16.5 -37q0 -16 -14 -30.5t-35 -27.5l-45.5 -27t-45.5 -29t-35 -33.5t-14 -40.5
q0 -4 3.5 -13t17.5 -9q10 0 22.5 6t23.5 15.5t19 21.5t8 25q-1 1 -1 2v6q0 7 3.5 16t10.5 16.5t16 12.5t20 5q6 0 11.5 -3t5.5 -13q3 -28 9 -54q5 -22 14 -44t23 -34l9 -11q3 -5 6 -11t3 -13z" />
    <glyph glyph-name="b" unicode="b" horiz-adv-x="354" 
d="M331 224q0 -40 -11.5 -85t-32.5 -82.5t-50 -62.5t-64 -25q-20 0 -32 10.5t-20 24.5q-9 15 -14 35q-2 3 -3 3q-5 0 -8.5 -5t-8 -10.5t-11.5 -10.5t-17 -5q-8 0 -12 5.5t-6 13t-2.5 15t-0.5 12.5q0 52 1 118.5t5.5 136t12.5 137t23 121.5q3 7 7 12t10 9t16 4q14 0 22 -6.5
t12 -14.5q4 -10 5 -21q-12 -52 -22 -110q-8 -51 -15 -115t-7 -135q-1 -3 0 -5q0 -5 4 -5q2 0 5 4q38 65 78 98.5t72 33.5q3 0 13.5 -1.5t21.5 -10.5t20 -28t9 -55zM256 191q0 27 -7.5 32.5t-11.5 5.5q-18 0 -35 -20t-31 -43q-16 -27 -29 -62q3 -16 9 -28q5 -11 13.5 -19
t22.5 -8q15 0 28 15.5t22 38t14 46.5t5 42z" />
    <glyph glyph-name="c" unicode="c" horiz-adv-x="307" 
d="M276 85q0 -23 -12.5 -45t-34 -40t-50 -29t-60.5 -11q-33 0 -53 16t-30.5 38t-14 44t-3.5 33q0 39 14 80.5t39 76t60 56.5t77 22q26 0 39 -10.5t20 -23.5q7 -15 9 -34q0 -5 -2 -21t-9.5 -33t-22.5 -30.5t-41 -13.5q-11 0 -15 11q-2 5 -2 12t3 13t7 12t7 13t3 15
q0 6 -3 13.5t-14 7.5q-9 0 -24.5 -8.5t-30.5 -27t-25.5 -47t-10.5 -68.5q0 -13 1.5 -26.5t6.5 -25t13 -19t22 -7.5q6 0 15 1.5t20 8t23 19.5t24 37q5 9 13.5 15t17.5 6t14 -5t7 -10q3 -7 3 -15z" />
    <glyph glyph-name="d" unicode="d" horiz-adv-x="374" 
d="M357 258q0 -19 -9 -25t-18 -6q-8 0 -11 1t-5 2q-1 -12 -1 -26.5v-27.5q0 -26 1.5 -50.5t4.5 -44.5t8.5 -34t13.5 -20q6 -5 7.5 -10t1.5 -8q0 -12 -6 -19t-13 -10.5t-13 -4.5l-6 -1q-24 0 -37 13.5t-20 30.5q-8 19 -9 44q0 5 -2 5q-1 0 -3 -2l-2 -2q-27 -36 -54.5 -55.5
t-50 -28.5t-38.5 -10.5t-19 -1.5q-21 0 -33 9t-19 22t-9 27.5t-2 25.5q0 53 20.5 96t53 75t73.5 52t83 28q1 0 2 1t2 1.5t1 2.5q1 18 2 38.5t2 45.5q2 52 7 96q2 19 5 37.5t7 35t9 28.5t11 18t12 10q5 4 12.5 7.5t15.5 3.5t15 -4t7 -23q0 -10 -3 -26q-8 -37 -13 -75.5
l-9 -70.5q-4 -38 -7 -73q0 -7 -1 -15q-1 -7 -1.5 -17t-1.5 -22q0 -2 1 -3t2 -1q13 -5 24.5 -14t11.5 -25zM243 224q0 4 -6 4q-26 -3 -51 -17.5t-44.5 -36t-32 -48t-12.5 -53.5q0 -11 4 -20t16 -9q16 0 38 14.5t41.5 39.5t33 57.5t13.5 68.5z" />
    <glyph glyph-name="e" unicode="e" horiz-adv-x="287" 
d="M282 249q0 -31 -13 -60.5t-34.5 -52.5t-49.5 -37t-59 -14q-2 0 -4 -2q-1 -1 -1 -2q2 -23 10.5 -36t17.5 -21q11 -9 24 -12q26 -7 31.5 -18.5t5.5 -19.5q0 -13 -6.5 -19.5t-14.5 -9.5q-9 -4 -20 -5q-34 0 -56.5 15.5t-36.5 34.5q-16 22 -25 51l-3 12q-2 6 -3 14t-2 19
q0 1 -1 2q-2 2 -4 2q-12 2 -22 7q-8 5 -14.5 14t-6.5 26q1 8 4 14q2 5 6.5 9.5t11.5 4.5q2 0 8.5 -1.5t17.5 -3.5q2 0 3 1q1 0 1 1q14 47 37 84q10 16 22 31t27.5 27t33.5 19t40 7q10 0 23 -3t24.5 -12t19.5 -25t8 -41zM210 239q0 6 -2 10t-5 7.5t-9 3.5q-12 0 -25.5 -11
t-25 -27.5t-18.5 -35t-7 -33.5q0 -5 4 -5q7 0 21.5 5.5t29.5 16.5t26 28t11 41z" />
    <glyph glyph-name="f" unicode="f" horiz-adv-x="263" 
d="M349 491q0 -20 -6.5 -39t-16.5 -33t-22 -22.5t-23 -8.5q-8 0 -11 4t-3 8q0 8 3 19t3 31q0 28 -7.5 34.5t-11.5 6.5q-25 0 -50 -45t-45 -140v-2q0 -1 3 -1q14 2 30.5 3.5t39.5 1.5q8 0 14 -3q5 -2 9.5 -8t4.5 -16q0 -20 -10.5 -32t-23.5 -12q-23 0 -41.5 -2.5t-35.5 -5.5
q-2 -1 -2.5 -2t-1.5 -2t-1 -2q-5 -34 -7.5 -71t-2.5 -78q0 -35 1.5 -55t3 -33.5t3 -25.5t1.5 -30q0 -10 -4.5 -16.5t-10.5 -10t-13 -5t-12 -1.5q-17 0 -26 11.5t-13.5 29.5t-5.5 41t-1 46v29t1 25l2 23q1 52 6 96v2q0 2 -3 2q-1 0 -6 -2t-11 -5t-12.5 -5t-10.5 -2
q-11 0 -15 11q-2 5 -2 12q0 12 4 21t9 15q6 7 14 12q5 2 11 6q5 3 12.5 6t16.5 7q2 0 2 1t1 2q0 1 1 2q12 76 36 131.5t53 91t59 52.5t55 17q10 0 22.5 -3.5t22.5 -13t17 -26t7 -41.5z" />
    <glyph glyph-name="g" unicode="g" horiz-adv-x="366" 
d="M343 90q0 -50 -3.5 -104.5t-11.5 -107t-21 -100t-33 -83t-47 -56.5t-62 -21q-11 0 -17.5 3t-10.5 8q-4 4 -6 11q0 8 5.5 16t12.5 15q8 7 19 14q34 30 55.5 74t33.5 93t16.5 97.5t4.5 86.5v20t-1 17q-1 20 -5.5 26t-7.5 6q-5 0 -26 -19.5t-50.5 -42.5t-63 -42.5
t-63.5 -19.5q-18 0 -28.5 7.5t-16 18t-6.5 22.5t-1 20q0 39 21.5 84.5t55.5 85t77 65.5t85 26q9 0 18 -2t17 -7t13 -15t5 -25q0 -8 -0.5 -14l-1 -12t-2 -14.5t-4.5 -21.5l-1 -1v-2q0 -3 2 -3l4 2q5 2 9 4q10 4 19 4t11.5 -5t3.5 -23q1 -20 1.5 -41t0.5 -44zM231 196
q0 8 -3 15q-2 5 -6 10t-11 5q-27 0 -50 -19t-40 -44.5t-26.5 -50.5t-9.5 -37q0 -14 11 -14q15 0 38 13.5t44.5 33.5t37 43.5t15.5 44.5z" />
    <glyph glyph-name="h" unicode="h" horiz-adv-x="354" 
d="M322 54q0 -29 -2.5 -62.5t-8.5 -70.5q0 -8 -6 -13t-13 -7q-8 -3 -18 -4q-22 0 -29.5 13t-6.5 27q2 43 4.5 76t2.5 59q0 66 -5.5 95t-16.5 29q-13 0 -30 -23.5t-33.5 -56t-30.5 -67.5t-20 -57q-3 -11 -9 -17t-13 -9t-13 -3.5t-10 -0.5q-11 0 -18 14.5t-10.5 36.5
t-4.5 47.5t-1 46.5q0 66 5.5 137.5t13 135t15.5 112.5t12 71q3 18 9 33t27 15q16 0 26 -11.5t10 -37.5q0 -11 -1 -26t-6 -37q-11 -59 -20 -119q-8 -51 -13.5 -110.5t-5.5 -110.5q-1 -3 0 -6q0 -6 4 -6q2 0 6 7q0 2 12 24.5t30.5 49t42 48t47.5 21.5q33 0 55.5 -58.5
t22.5 -184.5z" />
    <glyph glyph-name="i" unicode="i" horiz-adv-x="161" 
d="M151 460q0 -7 -3.5 -19t-11.5 -24t-21.5 -21t-33.5 -9q-19 0 -25.5 11t-6.5 24q0 11 5.5 23t15.5 22.5t23.5 17t28.5 6.5q7 0 18 -5t11 -26zM120 275l-4 -20.5t-6 -37t-5.5 -48.5t-2.5 -56q0 -22 2 -41.5t4 -33.5q3 -18 6 -32q-2 -14 -13.5 -18.5t-19.5 -4.5q-9 0 -17 4
q-4 2 -6 4q-17 20 -23.5 56t-6.5 77q0 31 2.5 61t5.5 54q4 28 8 53q0 4 4 8q3 3 10 5.5t19 2.5q5 0 12.5 -1.5t14 -5t11.5 -10t5 -16.5z" />
    <glyph glyph-name="j" unicode="j" horiz-adv-x="231" 
d="M175 452q0 -20 -6.5 -35t-17 -25.5t-22.5 -16t-24 -5.5q-18 0 -26.5 12t-8.5 24q0 14 6 27.5t15.5 24t22.5 17t28 6.5q12 0 19 -5t10 -10q4 -6 4 -14zM204 274q0 -6 -4 -19t-24 -24q-4 -2 -7 -5q-6 -6 -6 -16v-197q0 -31 -4.5 -70.5t-14 -80t-23.5 -79.5t-34 -69.5
t-45 -49t-56 -18.5q-14 0 -21 4.5t-11 9.5q-4 6 -5 14q0 8 6 16q3 4 7 6q15 11 28.5 25t23.5 28l22 32q18 33 29 77.5t16.5 91t7.5 90t2 75.5q0 12 -0.5 22t-0.5 17v14q-2 11 -5 11q-5 0 -10.5 -3.5l-12 -8t-14 -8t-14.5 -3.5q-9 0 -14.5 3.5t-8 8.5t-3 10t-0.5 8q0 9 3 17
t7 14q4 7 11 13q23 19 48 35q21 14 46 25.5t49 14.5q8 0 20 -5t12 -26z" />
    <glyph glyph-name="k" unicode="k" horiz-adv-x="333" 
d="M347 -43q0 -12 -12 -23t-28 -11q-8 0 -11 1q-3 0 -4 1q-12 1 -23 9.5t-22 21.5t-21 28.5t-19 31.5q-21 38 -40 86q-1 6 -4 6q-2 0 -4 -2l-2 -2q-15 -21 -26 -42t-19 -38q-9 -19 -15 -37q-5 -11 -12 -13.5t-13 -2.5q-12 0 -19.5 7t-11.5 16q-5 11 -7 24q-1 11 -1 23v23
q0 42 3.5 86t8.5 87.5t12 85t14 78.5q17 86 38 169q3 5 7 9t9.5 7t15.5 3q3 0 9.5 -1.5t13.5 -5.5t12.5 -11t5.5 -19q0 -6 -1 -9q-15 -45 -28 -105q-12 -51 -24.5 -124.5t-23.5 -167.5q0 -3 1 -5q2 -4 3 -4t4 4l23 40q11 17 23 37.5t26 37.5q16 21 34 39q15 14 32.5 26.5
t34.5 12.5q4 0 10 -2t12 -6t10.5 -10.5t4.5 -15.5q0 -8 -3.5 -14.5t-8.5 -10.5q-5 -5 -11 -8q-19 -12 -35 -26q-14 -12 -26 -27t-16 -31q7 -36 21 -71q12 -31 33.5 -66t54.5 -64l7 -7q8 -8 8 -18z" />
    <glyph glyph-name="l" unicode="l" horiz-adv-x="176" 
d="M169 558q-16 -66 -27 -136q-11 -60 -19 -132t-8 -140q0 -51 6 -95t22 -75q1 -3 3 -7q4 -8 4 -17t-10 -22t-31 -13q-10 0 -17.5 4t-12.5 9q-6 6 -11 14q-17 32 -23.5 80t-6.5 104q0 52 4.5 107t12 108.5t17 103.5t20.5 92q2 9 8 17q5 7 14.5 12.5t25.5 7.5q11 0 20.5 -2.5
t9.5 -13.5z" />
    <glyph glyph-name="m" unicode="m" horiz-adv-x="550" 
d="M538 -18q0 -10 -5 -17.5t-12 -12.5t-15 -7.5t-13 -2.5q-25 0 -40 15.5t-22.5 39t-10 51t-2.5 51.5q0 20 1 33.5t1 21.5q0 16 -3 20t-8 4q-4 0 -7.5 -3t-6.5 -6q-4 -4 -7 -8q-11 -14 -22.5 -36l-22.5 -42l-24 -50q-8 -14 -17 -26.5t-26 -12.5q-20 0 -31 20t-16.5 46
t-7.5 51t-4 34q-3 14 -11 14q-2 0 -4.5 -1t-4.5 -2q-3 -2 -4 -3q-18 -18 -32.5 -47t-25.5 -57q-12 -33 -22 -69q-5 -18 -13 -21t-18 -3q-12 0 -20 5t-12.5 12t-6 15t-1.5 14q0 20 3 37q1 10 3 20q2 17 3 32.5t1 29.5q0 35 -4.5 60.5t-9.5 42.5q-6 20 -13 34q-1 1 -2 4t-1 11
q0 6 3 13.5t8 14t13 11.5t18 5t23 -8.5t21 -38.5l5 -25q2 -14 3.5 -34.5t1.5 -49.5q0 -1 1 -2q0 -2 2 -2q1 0 3 3q3 7 13 24.5t25.5 36.5t35.5 33.5t42 14.5q20 0 27.5 -13.5t12.5 -57.5q1 -19 4 -33q2 -12 4.5 -22t6.5 -10q2 0 6 4q7 7 15 27q1 4 11.5 26t27.5 46.5t39 44
t47 19.5q17 0 27.5 -9t16 -22.5t7 -30.5t1.5 -32q0 -85 5 -136.5t31 -71.5q2 -1 4 -4q2 -2 3.5 -5t1.5 -7z" />
    <glyph glyph-name="n" unicode="n" horiz-adv-x="363" 
d="M353 23q0 -16 -7.5 -24.5t-16.5 -12.5q-11 -4 -23 -5q-25 0 -39 17.5t-20.5 43t-8 53t-1.5 48.5v19q0 10 -8 10q-13 0 -25.5 -15t-25 -37.5t-24 -48.5l-22 -49t-20 -39t-16.5 -18q-5 -1 -9 -2t-8 -1q-15 0 -23.5 12t-13 31.5t-6 44.5t-1.5 51q0 21 2.5 50.5t6.5 58.5
t9.5 53.5t12.5 36.5q5 9 12 17q6 6 15.5 11.5t23.5 5.5q2 0 7 -0.5t10 -3t9 -7.5t4 -14q0 -13 -8 -30q-8 -22 -13 -44q-5 -19 -8.5 -41.5t-3.5 -41.5q0 -13 4 -13q2 0 3 2q4 6 18 28.5t34.5 47.5t44.5 44.5t50 19.5q29 0 36 -20t7 -65q0 -10 -1 -21t-1 -25q0 -10 0.5 -26.5
t4 -33.5t10 -31.5t17.5 -20.5l6 -4q6 -6 6 -11z" />
    <glyph glyph-name="o" unicode="o" horiz-adv-x="313" 
d="M292 187q0 -49 -14 -85.5t-37 -61t-51.5 -37t-57.5 -12.5q-39 0 -60 19t-31 42q-11 27 -13 62q0 23 5 43.5t12 37.5q8 19 18 36q0 1 -3 4q-1 1 -2 1q-16 0 -25 6.5t-9 16.5q0 13 10.5 26t28 22.5t39 15.5t42.5 6q18 0 43 -5.5t48.5 -20.5t40 -43t16.5 -73zM211 166
q-1 25 -7 44q-5 17 -15.5 30t-30.5 13q-6 0 -14.5 -7t-16 -21t-13 -35t-5.5 -48q0 -8 0.5 -21.5t5 -27.5t14 -24t27.5 -10q20 0 31 16.5t16 36.5q6 24 8 54z" />
    <glyph glyph-name="p" unicode="p" horiz-adv-x="393" 
d="M385 221q0 -52 -24.5 -95.5t-61 -76t-79 -52.5t-78.5 -26q-2 0 -5 -3q-1 -2 -2 -3q-3 -59 -3 -125q0 -23 2 -44q2 -19 4.5 -39t7.5 -34q6 -17 8 -26t2 -13q0 -20 -13.5 -27.5t-22.5 -7.5q-8 0 -11 1q-3 0 -4 1q-17 6 -26 28.5t-13 47.5t-5 46t-1 25v59.5t0.5 45t1 34.5
t0.5 29q0 1 -1 2q-2 2 -5 3q-20 4 -35 13q-13 7 -23.5 19t-10.5 29q0 16 10 24t18 8q11 0 22.5 -7t21.5 -7q4 0 6 3q1 1 1 3q5 71 12 121t14 83q7 38 15 64q3 8 9 15q5 5 14 10t23 5q7 0 16 -2.5t9 -16.5q0 -2 -3.5 -19t-7.5 -38.5l-7.5 -42t-3.5 -29.5q0 -4 2 -4q1 0 5 5
q18 24 44 42q21 16 52 29.5t70 13.5q16 -2 28 -11q11 -8 19.5 -22t8.5 -38zM307 190q0 8 -3 13t-7 7q-4 3 -10 3q-25 0 -51.5 -19t-48 -45t-35 -53t-13.5 -43q0 -6 3 -7q2 -1 4 -1q27 0 55.5 16t52 39t38.5 47.5t15 42.5z" />
    <glyph glyph-name="q" unicode="q" horiz-adv-x="377" 
d="M392 11q0 -4 -1.5 -11t-4.5 -14.5t-8 -13t-13 -5.5t-11.5 4t-13.5 4q-6 0 -14 -2t-15 -5.5t-12 -7t-6 -6.5q-7 -47 -13.5 -107.5t-6.5 -120.5q0 -33 1.5 -51.5t3.5 -30l3.5 -19.5t1.5 -18t-4.5 -15.5t-10 -8t-11 -3t-6.5 -0.5q-26 0 -40.5 31t-14.5 88q0 15 2.5 42.5
t5.5 57.5t7 57.5t7 42.5q0 2 -2 2q-2 -1 -7 -6l-11.5 -11t-14.5 -11t-16 -5q-7 0 -11 3.5t-6 8.5q-3 5 -4 12q0 9 2.5 17t5.5 13q4 6 9 11q8 8 19 18l21 18.5t28 21.5q10 33 13 60t3 28q0 4 -3 4q-5 0 -23 -18t-43 -39.5t-54.5 -39.5t-56.5 -18q-21 0 -32 11t-16 24t-6 24.5
l-1 11.5q0 36 19.5 82t51 86.5t71 68.5t80.5 28q8 0 17.5 -1.5t18 -9t14 -22.5t5.5 -41q0 -10 -1 -22t-4 -28q0 -4 5 -4q3 1 7 3q3 1 6.5 2t7.5 1q15 0 15 -25q0 -12 -1 -18.5t-3 -16.5t-5 -29t-8 -55q0 -1 1 -2t3 -1l22.5 9t24.5 4t23.5 -8t9.5 -29zM219 155q0 10 -1 20.5
t-3.5 19.5t-7.5 15t-14 6q-18 0 -36.5 -16.5t-33.5 -39.5t-24.5 -47.5t-9.5 -40.5q0 -8 2.5 -15.5t12.5 -7.5q11 0 30.5 15t38 34t32.5 36t14 21z" />
    <glyph glyph-name="r" unicode="r" horiz-adv-x="287" 
d="M287 183q0 -8 -5.5 -12.5t-12.5 -6.5q-8 -3 -18 -3q-20 0 -30.5 6.5t-16.5 14.5t-9 14.5t-7 6.5q-6 0 -19.5 -21t-27.5 -54t-24.5 -73t-10.5 -78q0 -17 -9.5 -23t-23.5 -6q-16 0 -24.5 14t-12.5 35t-5 47t-1 50q0 40 2.5 79t5.5 67q3 23 8 38t12.5 23t17.5 11.5t24 3.5
q5 -1 9 -4q3 -2 6 -7.5t3 -14.5q0 -6 -1 -9q-2 -14 -5 -29l-4.5 -29.5t-3.5 -34.5q0 -2 1 -4q1 -3 4 -3t4 5q6 15 14 33l16 33.5t22 36.5q6 9 8 15.5t12 21.5q7 8 16 14q8 5 17 10t20 5q8 0 15 -5t7 -16q0 -13 -2.5 -25.5t-2.5 -29.5q0 -28 5 -44t11 -25.5t11 -15t5 -11.5z
" />
    <glyph glyph-name="s" unicode="s" horiz-adv-x="292" 
d="M272 83q0 -31 -19 -53.5t-46 -37.5t-56 -22t-49 -7q-44 0 -63 18t-19 38q0 17 12 25t21 8q10 0 26 -7.5t39 -7.5q31 0 46.5 9.5t15.5 21.5q0 11 -11.5 18.5t-29 13t-37.5 11t-37.5 14t-29 21t-11.5 31.5q0 24 15.5 51t40.5 49.5t57 37.5t65 15q29 0 46 -16.5t17 -51.5
q0 -16 -8 -30t-29 -14q-12 0 -16 6.5t-7 14t-8 14t-20 6.5q-6 0 -17 -4.5t-22.5 -12.5t-20 -19t-8.5 -24q0 -12 12 -20t30 -15t39.5 -13t39.5 -15t30 -21.5t12 -31.5z" />
    <glyph glyph-name="t" unicode="t" horiz-adv-x="187" 
d="M259 384q0 -10 -5 -15.5t-10 -7.5q-6 -3 -14 -3q-10 0 -26 -2t-31.5 -5.5t-27 -7.5t-12.5 -7q-3 -20 -6 -52q-2 -27 -4 -69t-2 -101q3 -40 9 -75q5 -31 13.5 -62t22.5 -48q9 -12 9 -21q0 -14 -13.5 -20.5t-21.5 -6.5q-16 0 -26 7q-6 3 -10 7q-18 17 -29 45.5t-17 62
t-8.5 70t-2.5 69.5q0 27 1.5 59t3.5 60l6 65q0 3 -2 3h-2q-50 0 -69 8.5t-19 27.5q0 3 1 9t5.5 12t13.5 10.5t24 4.5q11 0 17 -2t20 -2q3 0 12 1t9 6q8 58 18.5 90.5t22 48t24 19t24.5 3.5q6 0 11 -2t8.5 -6.5t3.5 -12.5q0 -12 -3 -23t-8 -24.5t-10.5 -32t-11.5 -47.5
q0 -4 3 -4q4 0 22 4.5t33 4.5q19 0 30 -6t16 -13q6 -9 8 -19z" />
    <glyph glyph-name="u" unicode="u" horiz-adv-x="348" 
d="M334 19q0 -14 -5.5 -21.5t-13.5 -10.5q-9 -4 -20 -4q-17 0 -28.5 9t-18.5 20.5t-10 22t-3 12.5q0 3 -2 3t-4 -2q-1 -1 -2 -1q-17 -30 -35 -46.5t-33.5 -24t-26 -9t-12.5 -1.5q-25 0 -42.5 17t-28.5 42.5t-16 55.5t-5 57q0 25 4.5 56.5t14 58.5t24.5 45.5t37 18.5
q4 0 9.5 -0.5t10.5 -4t8.5 -10.5t3.5 -20q0 -10 -2.5 -23t-10.5 -32q-7 -19 -12 -39q-5 -17 -8 -38t-3 -40q0 -23 8 -39.5t28 -16.5q16 3 30 16q12 11 25 35t21 67q1 7 2 15q1 7 2 16t1 18q0 5 4 12.5t10.5 14.5t16 12t21.5 5q11 0 19.5 -5t8.5 -22q0 -9 -3.5 -30t-3.5 -60
q0 -27 5 -52.5t15 -40.5q4 -6 12 -15.5t8 -20.5z" />
    <glyph glyph-name="v" unicode="v" horiz-adv-x="351" 
d="M352 299q0 -5 -5 -15t-19 -26q-14 -14 -30.5 -37.5t-33.5 -54.5t-32.5 -68.5t-27.5 -79.5q-5 -19 -13 -33q-7 -12 -19 -22t-29 -10q-21 0 -38 15.5t-30.5 40t-23 54.5t-15.5 59.5t-9 54.5t-3 40q0 32 7.5 50t31.5 18q4 0 10.5 -1t12 -5t9.5 -11.5t4 -20.5q0 -22 4 -55.5
t9.5 -65t12.5 -54.5t14 -23q5 0 8 8q17 53 36 101q8 21 18 42.5t21 41.5t23 38t25 31q6 6 13 10q6 4 14 7.5t19 3.5q13 0 24.5 -6.5t11.5 -26.5z" />
    <glyph glyph-name="w" unicode="w" horiz-adv-x="512" 
d="M494 270q0 -60 -17 -114.5t-41 -96t-50 -65.5t-44 -24q-26 0 -44 20.5t-30 46.5q-14 30 -23 68q-1 6 -4 6q-1 0 -4 -3l-2 -2q-13 -27 -30.5 -52t-36 -44t-35.5 -30.5t-29 -11.5q-24 0 -40 25t-25.5 59t-14 68t-4.5 51q0 19 1 35t3 27q2 13 5 24q4 10 9 18q5 7 12.5 12.5
t18.5 5.5q9 0 17 -4q6 -3 11.5 -10.5t5.5 -20.5q-3 -13 -5 -27q-2 -13 -3 -29t-1 -34q0 -8 1.5 -24.5t4.5 -33.5t9 -30t15 -13q5 0 14.5 6.5t22 22.5t27 42.5t30.5 66.5q2 22 10.5 39t36.5 17q11 0 20.5 -6t11.5 -26q4 -45 12 -79q6 -30 16 -54.5t24 -24.5q9 0 21 11.5
t22.5 33.5t17.5 53.5t7 71.5q0 16 -1.5 25.5t-3 16.5t-2.5 13t-1 15q0 19 10 34.5t36 15.5q23 0 31 -24.5t8 -66.5z" />
    <glyph glyph-name="x" unicode="x" horiz-adv-x="350" 
d="M339 266q0 -12 -5.5 -21.5t-22.5 -14.5q-15 -4 -34 -17.5t-37 -30t-32 -32.5t-18 -25q0 -2 1 -3q12 -10 26 -17q12 -7 27 -12t30 -5q14 0 22 -4.5t12 -9.5q4 -6 5 -14q0 -13 -5.5 -22t-14.5 -15t-19 -8.5t-19 -2.5q-20 0 -39.5 7.5t-35.5 17.5q-18 11 -35 26q-1 0 -2 -1
l-1 -1q-29 -42 -41 -71t-14 -43q-3 -11 -10 -17t-14 -9q-8 -4 -17 -5q-23 0 -29.5 11.5t-6.5 23.5q0 8 3 20t11.5 31t24.5 45.5t42 63.5q1 1 1 3q0 1 -0.5 1t-0.5 1v1q-22 27 -34.5 51.5t-18.5 44t-7 31.5t-1 15q0 14 9.5 31t31.5 17q8 0 17.5 -6t13.5 -26q2 -14 6 -30
q4 -14 11 -31t19 -35l1 -1q0 -1 1 -1t3 2l30 34t38.5 40t42.5 33t43 14q16 0 24.5 -5.5t12.5 -11.5q4 -8 5 -17z" />
    <glyph glyph-name="y" unicode="y" horiz-adv-x="332" 
d="M303 236q0 -15 -2.5 -32l-6 -41t-6 -57.5t-2.5 -80.5q0 -94 -19.5 -166t-47.5 -121t-60 -74t-57 -25q-8 0 -12 2.5t-6 6.5q-3 4 -3 10q0 7 3.5 14.5t8.5 13.5q5 7 13 14q38 39 59.5 91t32.5 105t14 100.5t3 77.5q0 6 -2 6q-1 0 -3 -2l-1 -1q-20 -38 -39 -57.5t-35 -29.5
q-18 -11 -35 -13q-26 0 -42 18.5t-26 46t-13.5 59t-3.5 57.5q0 81 21.5 126.5t58.5 45.5q2 0 7 -0.5t9.5 -3t8 -8t3.5 -15.5q0 -11 -7 -26q-8 -18 -14 -39q-5 -18 -9.5 -42.5t-4.5 -51.5q0 -6 0.5 -19t3 -26.5t8 -23.5t15.5 -10q7 0 16.5 5.5t22.5 22.5t29 48t37 81
q5 15 13 26q7 10 17.5 18.5t25.5 8.5q3 0 8 -1t9 -4.5t7 -11.5t3 -22z" />
    <glyph glyph-name="z" unicode="z" horiz-adv-x="328" 
d="M313 -61q0 -22 -8 -57t-26 -77t-47.5 -88t-72.5 -90q-17 -18 -30 -22.5t-20 -4.5q-17 0 -17 13q0 4 2 8.5t4 8.5q3 4 6 9l34 49.5t43.5 72t37 82t15.5 79.5q0 26 -7.5 42.5t-19 25.5t-25.5 12.5t-28 3.5q-15 0 -28 -3.5t-23 -7.5q-11 -5 -21 -11q-5 -5 -9.5 -6.5
t-8.5 -1.5q-9 0 -15.5 5t-10.5 11.5t-5.5 13.5t-1.5 11q0 18 13 37t32 38t41.5 38l41.5 36t32 32.5t13 27.5q0 11 -8.5 13t-15.5 2q-16 0 -32 -6t-29 -13q-16 -9 -30 -19q-11 -7 -16.5 -12l-9.5 -8.5t-8.5 -5.5t-12.5 -2q-17 0 -21.5 11.5t-4.5 19.5q0 24 18 43t45 32
t59.5 20t62.5 7q9 0 24.5 -2t30.5 -8t25.5 -16.5t10.5 -27.5q0 -34 -23.5 -64t-52 -55t-52 -43t-23.5 -27q0 -3 3 -3q2 0 4 1q6 1 14 3q7 1 16 2t20 1q51 0 83 -30.5t32 -99.5z" />
    <glyph glyph-name="braceleft" unicode="{" horiz-adv-x="205" 
d="M172 545q0 -7 -5 -17q-9 -11 -15 -28q-5 -14 -9.5 -36.5t-4.5 -51.5q0 -40 7 -67.5t7 -38.5q0 -6 -2 -16t-8 -22t-17.5 -24t-30.5 -23q-1 0 -2 -1q-2 -2 -2 -4q0 -3 5 -7q13 -9 24 -20q9 -10 17 -23.5t8 -29.5q0 -9 -1.5 -15t-3 -14.5t-3 -22t-1.5 -36.5q0 -30 6.5 -67.5
t24.5 -75.5q0 -6 -3.5 -9.5t-8.5 -3.5q-9 0 -24 11t-29 29t-24 40.5t-10 45.5q0 15 2 30t5 28.5t5 23.5t2 15q0 22 -9 37.5t-20 25.5q-13 11 -29 18q-10 5 -12.5 9.5t-2.5 6.5q0 11 9 16q4 3 10 5q19 8 31 18.5t19 22t9 23t2 20.5q0 14 -3 25t-6.5 22.5t-6.5 24.5t-3 31
q0 26 11.5 50.5t27.5 43t31.5 30t24.5 11.5q8 0 8 -10z" />
    <glyph glyph-name="bar" unicode="|" horiz-adv-x="260" 
d="M181 529q0 -18 -2 -51.5t-5 -75l-6.5 -88t-6.5 -91.5t-5 -86t-2 -70q0 -27 1 -55.5t3 -59.5q-3 -10 -11 -21t-25 -11q-11 0 -17 10.5t-10 25.5t-5 31.5t-1 28.5q0 15 0.5 25.5t1.5 23t2.5 29.5t3.5 45q1 6 2.5 30l3.5 57t4.5 70t4 69.5t3 55t1.5 27.5q0 26 1 51t3 45
q2 24 4 45q1 19 8.5 23t12.5 4q11 0 18 -7.5t11 -19.5t5.5 -27.5t1.5 -32.5z" />
    <glyph glyph-name="braceright" unicode="}" horiz-adv-x="226" 
d="M218 214q0 -2 -2.5 -6.5t-12.5 -9.5q-17 -7 -29 -18q-11 -10 -20 -25.5t-9 -37.5q0 -5 2 -15t5 -23.5t5 -28.5t2 -30q0 -23 -10 -45.5t-24 -40.5t-29 -29t-24 -11q-5 0 -8.5 3.5t-3.5 9.5q18 38 24.5 75.5t6.5 67.5q0 23 -1.5 36.5t-3 22t-3 14.5t-1.5 15q0 16 7.5 29.5
t16.5 23.5q11 11 25 20q5 4 5 7q0 2 -2 4q-1 1 -2 1q-19 11 -30.5 23t-17.5 24t-8 22t-2 16q0 11 7 38.5t7 67.5q0 29 -5 51.5t-10 36.5q-6 17 -14 28q-5 10 -5 17q0 10 8 10q9 0 24.5 -11.5t31.5 -30t27.5 -43t11.5 -50.5q0 -18 -3 -31t-6.5 -24.5t-6.5 -22.5t-3 -25
q0 -9 2 -20.5t9 -23t18.5 -22t31.5 -18.5q5 -2 9 -5q4 -2 7 -6t3 -10z" />
    <glyph glyph-name="asciitilde" unicode="~" 
d="M416 564q0 -26 -17.5 -40.5t-37.5 -21.5q-25 -9 -55 -10q-41 2 -64.5 15t-23.5 42q0 26 11 37.5t34 11.5q10 0 18 -4t15.5 -8.5t17 -8t22.5 -3.5q17 0 37 8q3 1 7 2q3 1 6.5 2t8.5 1q8 0 12 -3.5t6 -8.5q3 -5 3 -11z" />
    <glyph glyph-name="Adieresis" unicode="&#xc4;" horiz-adv-x="496" 
d="M401 644q0 -17 -10.5 -33t-33.5 -16q-13 0 -23 7t-10 24q2 13 7 24q5 9 13.5 17t24.5 8t24 -9.5t8 -21.5zM256 649q0 -17 -10.5 -33t-33.5 -16q-13 0 -23 7t-10 24q2 13 7 24q5 9 13.5 17t24.5 8t24 -9.5t8 -21.5zM480 43q0 -16 -8 -24t-18 -12q-11 -4 -25 -5
q-29 0 -47.5 25.5t-29.5 56.5q-13 36 -20 82q0 5 -3 6t-6 1q-37 -3 -66.5 -9.5t-49.5 -12.5q-24 -7 -42 -15q-8 -5 -11 -11q-2 -4 -3 -7q-12 -44 -17.5 -70t-8 -41.5l-4 -25.5t-5.5 -22q-5 -15 -14 -22.5t-19 -11t-18 -4t-12 -0.5q-11 0 -17 6t-9 14.5t-3.5 16.5t-0.5 12
q0 20 4 44t9 45q6 25 14 50q0 5 -2 7q-1 1 -2 1q-16 6 -21 16.5t-5 15.5q4 21 15 33t22 19q13 7 28 10q4 1 8 5q1 2 2 3q9 23 24 56.5t33.5 70.5t40 74t43.5 66.5t42.5 48t38.5 18.5q11 0 12.5 -3t9.5 -3q3 0 6.5 4t9 8.5t14 9t20.5 4.5q9 1 19.5 -5.5t10.5 -35.5
q0 -12 -1 -21t-1.5 -22t-1.5 -32.5t-1 -52.5q0 -38 2 -82.5t8.5 -89.5t17.5 -86t29 -71q9 -20 9 -32zM327 275q-1 23 -1.5 52t-0.5 55v60q0 2 -1 4q-2 4 -4 4q-12 -3 -25 -18t-25.5 -36.5t-24 -45.5t-20 -44.5l-14 -34.5t-5.5 -15q0 -10 4 -10l10.5 2.5t26.5 5.5t35 6t37 4
q2 0 4 2q4 4 4 9z" />
    <glyph glyph-name="Aring" unicode="&#xc5;" horiz-adv-x="496" 
d="M382 648q0 -29 -23.5 -45t-50.5 -16q-20 0 -31 8.5t-16 19.5q-6 12 -7 28q0 7 4.5 17t13.5 20t22.5 17t32.5 7q8 0 17.5 -3t18 -9.5t14 -17.5t5.5 -26zM480 43q0 -16 -8 -24t-18 -12q-11 -4 -25 -5q-29 0 -47.5 25.5t-29.5 56.5q-13 36 -20 82q0 5 -3 6t-6 1
q-37 -3 -66.5 -9.5t-49.5 -12.5q-24 -7 -42 -15q-8 -5 -11 -11q-2 -4 -3 -7q-12 -44 -17.5 -70t-8 -41.5l-4 -25.5t-5.5 -22q-5 -15 -14 -22.5t-19 -11t-18 -4t-12 -0.5q-11 0 -17 6t-9 14.5t-3.5 16.5t-0.5 12q0 20 4 44t9 45q6 25 14 50q0 5 -2 7q-1 1 -2 1
q-16 6 -21 16.5t-5 15.5q4 21 15 33t22 19q13 7 28 10q4 1 8 5q1 2 2 3q9 23 24 56.5t33.5 70.5t40 74t43.5 66.5t42.5 48t38.5 18.5q11 0 12.5 -3t9.5 -3q3 0 6.5 4t9 8.5t14 9t20.5 4.5q9 1 19.5 -5.5t10.5 -35.5q0 -12 -1 -21t-1.5 -22t-1.5 -32.5t-1 -52.5
q0 -38 2 -82.5t8.5 -89.5t17.5 -86t29 -71q9 -20 9 -32zM345 648q0 16 -10.5 19t-13.5 3q-12 0 -20 -7t-8 -21q0 -4 3.5 -12t21.5 -8q7 0 17 6t10 20zM327 275q-1 23 -1.5 52t-0.5 55v60q0 2 -1 4q-2 4 -4 4q-12 -3 -25 -18t-25.5 -36.5t-24 -45.5t-20 -44.5l-14 -34.5
t-5.5 -15q0 -10 4 -10l10.5 2.5t26.5 5.5t35 6t37 4q2 0 4 2q4 4 4 9z" />
    <glyph glyph-name="Ccedilla" unicode="&#xc7;" horiz-adv-x="443" 
d="M431 140q0 -30 -19.5 -62.5t-51 -59.5t-71 -44.5t-80.5 -18.5l-4 -6q-3 -6 -3 -11q0 -6 5 -8q14 -5 20.5 -12t10.5 -14q4 -8 5 -16q-1 -20 -16.5 -32t-43.5 -12q-7 0 -18 1.5t-11 10.5q0 4 6 6q3 1 6 1q15 0 23 3.5t12 8t5 9t1 6.5q-2 6 -6.5 10t-9.5 6q-6 3 -13 4
q-8 0 -8 9q0 13 7 22t6 12q0 2 -1 2q-37 3 -63.5 16.5t-43.5 32t-27 40t-15 41.5t-6 35.5t-1 22.5q0 38 10 81t28.5 84.5t44.5 79.5t59 66.5t71.5 45.5t81.5 17q6 0 20.5 -1.5t30 -10.5t27.5 -28t12 -55q0 -15 -5 -41t-16.5 -52t-30.5 -45t-48 -19q-14 0 -25 6.5t-11 25.5
q0 15 11 33q7 12 13 24q5 11 9 22t4 22q0 22 -25 22q-23 0 -49.5 -20t-49.5 -55.5t-38.5 -83.5t-15.5 -103q0 -11 1.5 -28.5t7.5 -35t18.5 -30.5t34.5 -13q10 0 28 2.5t40.5 14t47.5 33.5t48 61q4 6 9 10t11 7t14 3q15 0 26 -10t11 -32z" />
    <glyph glyph-name="Eacute" unicode="&#xc9;" horiz-adv-x="434" 
d="M356 669q0 -5 -2.5 -9t-4.5 -6q-3 -3 -6 -5q-20 -8 -36.5 -20.5l-31 -24.5t-28 -21t-27.5 -10q-9 -1 -11 5q-2 3 -1 5q0 18 11 40t26 41t30.5 31.5t23.5 12.5q6 0 15.5 -2t18.5 -6.5t16 -12t7 -18.5zM441 268q0 -23 -17.5 -36.5t-38.5 -21.5q-25 -9 -56 -12
q-36 -4 -66.5 -8.5t-52.5 -9.5q-26 -5 -46 -10q-3 -1 -4 -3t-1 -4q0 -7 6 -25.5t20 -38t37.5 -35t58.5 -15.5q11 0 23.5 2.5l26.5 5.5q7 2 14 5q6 2 13 3.5t15 1.5q13 0 19.5 -6t6.5 -22q0 -15 -8.5 -29.5t-25.5 -26t-42 -18.5t-58 -7q-35 0 -63 7.5t-49 20t-36.5 28
t-26.5 32.5q-26 39 -35 89l-2 2q-3 3 -5 3q-5 0 -13 -2.5l-17.5 -5.5t-19 -5.5t-15.5 -2.5q-11 0 -16.5 3.5t-7.5 8.5q-3 5 -3 13q0 5 2 17t10.5 26t25.5 27t48 21q2 0 4 1q4 2 4 8q0 15 6 41.5t18.5 57.5t32 62.5t48 57.5t65.5 42.5t84 16.5q7 0 20.5 -1t26 -5.5t22 -14
t9.5 -25.5q0 -31 -21.5 -40t-59.5 -9t-66 -17.5t-46 -42.5t-27.5 -53.5t-9.5 -50.5q0 -2 1 -3q2 -2 6 -2q51 8 110.5 14.5t115.5 6.5q9 0 18.5 -0.5t18 -2t14 -4.5t5.5 -9z" />
    <glyph glyph-name="Ntilde" unicode="&#xd1;" horiz-adv-x="481" 
d="M380 564q0 -26 -17.5 -40.5t-37.5 -21.5q-25 -9 -55 -10q-41 2 -64.5 15t-23.5 42q0 26 11 37.5t34 11.5q10 0 18 -4t15.5 -8.5t17 -8t22.5 -3.5q17 0 37 8q3 1 7 2q3 1 6.5 2t8.5 1q8 0 12 -3.5t6 -8.5q3 -5 3 -11zM493 495q0 -8 -2.5 -18.5t-10.5 -24.5
q-22 -38 -39 -99q-14 -53 -26 -135.5t-12 -203.5q0 -22 -8 -33.5t-17 -16.5q-11 -6 -25 -7q-22 0 -43 19.5t-39.5 50t-35 68t-30 74t-23.5 68t-17 50.5q-4 10 -6 10t-3.5 -2.5t-3.5 -4.5q-2 -3 -3 -6q-12 -38 -16.5 -73t-4.5 -66q0 -35 2.5 -55.5t5.5 -33.5t5.5 -22.5
t2.5 -21.5q0 -25 -15.5 -33.5t-29.5 -8.5q-24 0 -37.5 18t-20 43t-8 51.5t-1.5 43.5q0 9 2 37t7 65t14.5 78t25 75t37.5 56.5t53 22.5q11 0 19.5 -5.5t16 -18.5t15 -35.5t16.5 -56.5q14 -49 29 -87q12 -33 26 -60t25 -27q5 0 8 6.5t4 33.5q0 8 1 35t5 63t11.5 75t21.5 72
t35 54.5t52 21.5q14 0 25.5 -6t11.5 -30z" />
    <glyph glyph-name="Odieresis" unicode="&#xd6;" horiz-adv-x="475" 
d="M355 621q0 -17 -10.5 -33t-33.5 -16q-13 0 -23 7t-10 24q2 13 7 24q5 9 13.5 17t24.5 8t24 -9.5t8 -21.5zM210 626q0 -17 -10.5 -33t-33.5 -16q-13 0 -23 7t-10 24q2 13 7 24q5 9 13.5 17t24.5 8t24 -9.5t8 -21.5zM461 293q0 -13 -3.5 -42t-13 -64.5t-26.5 -74t-44.5 -70
t-66 -51.5t-90.5 -20q-25 0 -55.5 12.5t-57 40.5t-44.5 73t-18 110q0 38 7 70.5t15 57t15 39t7 16.5q0 1 -3 4q-2 1 -3 2q-7 0 -20 -6t-24 -6q-8 0 -15 4.5t-7 20.5q0 20 15.5 43t44.5 42.5t69.5 32.5t91.5 13q45 0 85.5 -15.5t72 -46.5t50 -77.5t18.5 -107.5zM362 271
q-3 46 -16 82q-6 15 -14.5 30t-21 26.5t-29.5 18.5t-38 7t-34.5 -4t-21.5 -9q-9 -5 -13 -12q-11 -20 -20 -45q-8 -21 -14 -49.5t-6 -61.5q0 -19 5.5 -50.5t18.5 -62t34.5 -52.5t52.5 -22q16 0 36.5 11t38.5 35t30 63t12 95z" />
    <glyph glyph-name="Udieresis" unicode="&#xdc;" horiz-adv-x="456" 
d="M320 613q0 -17 -10.5 -33t-33.5 -16q-13 0 -23 7t-10 24q2 13 7 24q5 9 13.5 17t24.5 8t24 -9.5t8 -21.5zM175 618q0 -17 -10.5 -33t-33.5 -16q-13 0 -23 7t-10 24q2 13 7 24q5 9 13.5 17t24.5 8t24 -9.5t8 -21.5zM431 416q-3 -128 -29 -227q-11 -43 -28 -83.5t-42 -72.5
t-59 -51.5t-78 -19.5q-29 0 -51 10.5t-38 27.5t-27 39t-18 45q-17 54 -20 123q0 90 15 144.5t47 72.5q5 2 11 4q5 2 11 3t13 1q13 0 23 -5.5t10 -24.5q0 -5 -5.5 -23t-12.5 -46.5t-12.5 -66t-5.5 -80.5q0 -23 3 -45.5t10 -40.5t19 -29.5t31 -11.5q33 0 57.5 29.5t40.5 74.5
t23.5 98.5t7.5 101.5q0 33 -3 72.5t-11 80.5q1 20 12 36.5t42 16.5q38 0 51 -35.5t13 -117.5z" />
    <glyph glyph-name="aacute" unicode="&#xe1;" horiz-adv-x="334" 
d="M280 469q0 -5 -2.5 -9t-4.5 -6q-3 -3 -6 -5q-20 -8 -36.5 -20.5l-31 -24.5t-28 -21t-27.5 -10q-9 -1 -11 5q-2 3 -1 5q0 18 11 40t26 41t30.5 31.5t23.5 12.5q6 0 15.5 -2t18.5 -6.5t16 -12t7 -18.5zM321 -28q0 -12 -6 -18.5t-14 -9.5q-9 -4 -20 -4q-18 0 -30.5 10.5
t-20.5 23.5q-10 15 -16 35q-1 5 -4 5q-2 0 -4 -2l-2 -2q-15 -17 -31 -27.5t-31 -16t-27 -7t-20 -1.5q-29 0 -46 10.5t-25 24t-10 27t-2 19.5q0 20 7 38.5t19 35t27 30.5t31 26q37 27 85 49q3 1 6 3q6 4 6 9q0 11 -18 15t-39 4q-9 0 -17.5 -0.5t-14.5 -1.5q-8 -1 -14 -1
q-11 -1 -17.5 2.5t-9.5 8.5t-4 10.5t-1 8.5t2 9.5t10 14t23.5 13t42.5 5.5q18 0 44 -4t49.5 -13.5t40 -24.5t16.5 -37q0 -16 -14 -30.5t-35 -27.5l-45.5 -27t-45.5 -29t-35 -33.5t-14 -40.5q0 -4 3.5 -13t17.5 -9q10 0 22.5 6t23.5 15.5t19 21.5t8 25q-1 1 -1 2v6
q0 7 3.5 16t10.5 16.5t16 12.5t20 5q6 0 11.5 -3t5.5 -13q3 -28 9 -54q5 -22 14 -44t23 -34l9 -11q3 -5 6 -11t3 -13z" />
    <glyph glyph-name="agrave" unicode="&#xe0;" horiz-adv-x="334" 
d="M204 383q0 -8 -4 -9t-8 -1q-7 0 -18 4t-26 18q-17 14 -32 25q-13 10 -26 18.5t-21 10.5q-4 2 -7 5q-6 6 -6 15q0 1 1.5 7.5t7 13.5t17 12.5t31.5 5.5q12 0 27.5 -15t30 -35t24 -41t9.5 -34zM321 -28q0 -12 -6 -18.5t-14 -9.5q-9 -4 -20 -4q-18 0 -30.5 10.5t-20.5 23.5
q-10 15 -16 35q-1 5 -4 5q-2 0 -4 -2l-2 -2q-15 -17 -31 -27.5t-31 -16t-27 -7t-20 -1.5q-29 0 -46 10.5t-25 24t-10 27t-2 19.5q0 20 7 38.5t19 35t27 30.5t31 26q37 27 85 49q3 1 6 3q6 4 6 9q0 11 -18 15t-39 4q-9 0 -17.5 -0.5t-14.5 -1.5q-8 -1 -14 -1
q-11 -1 -17.5 2.5t-9.5 8.5t-4 10.5t-1 8.5t2 9.5t10 14t23.5 13t42.5 5.5q18 0 44 -4t49.5 -13.5t40 -24.5t16.5 -37q0 -16 -14 -30.5t-35 -27.5l-45.5 -27t-45.5 -29t-35 -33.5t-14 -40.5q0 -4 3.5 -13t17.5 -9q10 0 22.5 6t23.5 15.5t19 21.5t8 25q-1 1 -1 2v6
q0 7 3.5 16t10.5 16.5t16 12.5t20 5q6 0 11.5 -3t5.5 -13q3 -28 9 -54q5 -22 14 -44t23 -34l9 -11q3 -5 6 -11t3 -13z" />
    <glyph glyph-name="acircumflex" unicode="&#xe2;" horiz-adv-x="334" 
d="M275 383q0 -8 -4 -9t-9 -1q-7 0 -18 4.5t-28 17.5q-7 6 -15 12l-15.5 11l-16.5 12q-28 -18 -49 -37t-44 -20q-5 -1 -7 1l-4 4q-2 3 -2 5q0 18 11.5 40t27.5 41t31.5 31.5t24.5 12.5h22q12 0 28.5 -15t31.5 -35t25 -41t10 -34zM321 -28q0 -12 -6 -18.5t-14 -9.5
q-9 -4 -20 -4q-18 0 -30.5 10.5t-20.5 23.5q-10 15 -16 35q-1 5 -4 5q-2 0 -4 -2l-2 -2q-15 -17 -31 -27.5t-31 -16t-27 -7t-20 -1.5q-29 0 -46 10.5t-25 24t-10 27t-2 19.5q0 20 7 38.5t19 35t27 30.5t31 26q37 27 85 49q3 1 6 3q6 4 6 9q0 11 -18 15t-39 4
q-9 0 -17.5 -0.5t-14.5 -1.5q-8 -1 -14 -1q-11 -1 -17.5 2.5t-9.5 8.5t-4 10.5t-1 8.5t2 9.5t10 14t23.5 13t42.5 5.5q18 0 44 -4t49.5 -13.5t40 -24.5t16.5 -37q0 -16 -14 -30.5t-35 -27.5l-45.5 -27t-45.5 -29t-35 -33.5t-14 -40.5q0 -4 3.5 -13t17.5 -9q10 0 22.5 6
t23.5 15.5t19 21.5t8 25q-1 1 -1 2v6q0 7 3.5 16t10.5 16.5t16 12.5t20 5q6 0 11.5 -3t5.5 -13q3 -28 9 -54q5 -22 14 -44t23 -34l9 -11q3 -5 6 -11t3 -13z" />
    <glyph glyph-name="adieresis" unicode="&#xe4;" horiz-adv-x="334" 
d="M297 421q0 -17 -10.5 -33t-33.5 -16q-13 0 -23 7t-10 24q2 13 7 24q5 9 13.5 17t24.5 8t24 -9.5t8 -21.5zM152 426q0 -17 -10.5 -33t-33.5 -16q-13 0 -23 7t-10 24q2 13 7 24q5 9 13.5 17t24.5 8t24 -9.5t8 -21.5zM321 -28q0 -12 -6 -18.5t-14 -9.5q-9 -4 -20 -4
q-18 0 -30.5 10.5t-20.5 23.5q-10 15 -16 35q-1 5 -4 5q-2 0 -4 -2l-2 -2q-15 -17 -31 -27.5t-31 -16t-27 -7t-20 -1.5q-29 0 -46 10.5t-25 24t-10 27t-2 19.5q0 20 7 38.5t19 35t27 30.5t31 26q37 27 85 49q3 1 6 3q6 4 6 9q0 11 -18 15t-39 4q-9 0 -17.5 -0.5t-14.5 -1.5
q-8 -1 -14 -1q-11 -1 -17.5 2.5t-9.5 8.5t-4 10.5t-1 8.5t2 9.5t10 14t23.5 13t42.5 5.5q18 0 44 -4t49.5 -13.5t40 -24.5t16.5 -37q0 -16 -14 -30.5t-35 -27.5l-45.5 -27t-45.5 -29t-35 -33.5t-14 -40.5q0 -4 3.5 -13t17.5 -9q10 0 22.5 6t23.5 15.5t19 21.5t8 25
q-1 1 -1 2v6q0 7 3.5 16t10.5 16.5t16 12.5t20 5q6 0 11.5 -3t5.5 -13q3 -28 9 -54q5 -22 14 -44t23 -34l9 -11q3 -5 6 -11t3 -13z" />
    <glyph glyph-name="atilde" unicode="&#xe3;" horiz-adv-x="334" 
d="M279 444q0 -26 -17.5 -40.5t-37.5 -21.5q-25 -9 -55 -10q-41 2 -64.5 15t-23.5 42q0 26 11 37.5t34 11.5q10 0 18 -4t15.5 -8.5t17 -8t22.5 -3.5q17 0 37 8q3 1 7 2q3 1 6.5 2t8.5 1q8 0 12 -3.5t6 -8.5q3 -5 3 -11zM321 -28q0 -12 -6 -18.5t-14 -9.5q-9 -4 -20 -4
q-18 0 -30.5 10.5t-20.5 23.5q-10 15 -16 35q-1 5 -4 5q-2 0 -4 -2l-2 -2q-15 -17 -31 -27.5t-31 -16t-27 -7t-20 -1.5q-29 0 -46 10.5t-25 24t-10 27t-2 19.5q0 20 7 38.5t19 35t27 30.5t31 26q37 27 85 49q3 1 6 3q6 4 6 9q0 11 -18 15t-39 4q-9 0 -17.5 -0.5t-14.5 -1.5
q-8 -1 -14 -1q-11 -1 -17.5 2.5t-9.5 8.5t-4 10.5t-1 8.5t2 9.5t10 14t23.5 13t42.5 5.5q18 0 44 -4t49.5 -13.5t40 -24.5t16.5 -37q0 -16 -14 -30.5t-35 -27.5l-45.5 -27t-45.5 -29t-35 -33.5t-14 -40.5q0 -4 3.5 -13t17.5 -9q10 0 22.5 6t23.5 15.5t19 21.5t8 25
q-1 1 -1 2v6q0 7 3.5 16t10.5 16.5t16 12.5t20 5q6 0 11.5 -3t5.5 -13q3 -28 9 -54q5 -22 14 -44t23 -34l9 -11q3 -5 6 -11t3 -13z" />
    <glyph glyph-name="aring" unicode="&#xe5;" horiz-adv-x="334" 
d="M230 433q0 -29 -23.5 -45t-50.5 -16q-20 0 -31 8.5t-16 19.5q-6 12 -7 28q0 7 4.5 17t13.5 20t22.5 17t32.5 7q8 0 17.5 -3t18 -9.5t14 -17.5t5.5 -26zM321 -28q0 -12 -6 -18.5t-14 -9.5q-9 -4 -20 -4q-18 0 -30.5 10.5t-20.5 23.5q-10 15 -16 35q-1 5 -4 5q-2 0 -4 -2
l-2 -2q-15 -17 -31 -27.5t-31 -16t-27 -7t-20 -1.5q-29 0 -46 10.5t-25 24t-10 27t-2 19.5q0 20 7 38.5t19 35t27 30.5t31 26q37 27 85 49q3 1 6 3q6 4 6 9q0 11 -18 15t-39 4q-9 0 -17.5 -0.5t-14.5 -1.5q-8 -1 -14 -1q-11 -1 -17.5 2.5t-9.5 8.5t-4 10.5t-1 8.5t2 9.5
t10 14t23.5 13t42.5 5.5q18 0 44 -4t49.5 -13.5t40 -24.5t16.5 -37q0 -16 -14 -30.5t-35 -27.5l-45.5 -27t-45.5 -29t-35 -33.5t-14 -40.5q0 -4 3.5 -13t17.5 -9q10 0 22.5 6t23.5 15.5t19 21.5t8 25q-1 1 -1 2v6q0 7 3.5 16t10.5 16.5t16 12.5t20 5q6 0 11.5 -3t5.5 -13
q3 -28 9 -54q5 -22 14 -44t23 -34l9 -11q3 -5 6 -11t3 -13zM193 433q0 16 -10.5 19t-13.5 3q-12 0 -20 -7t-8 -21q0 -4 3.5 -12t21.5 -8q7 0 17 6t10 20z" />
    <glyph glyph-name="ccedilla" unicode="&#xe7;" horiz-adv-x="307" 
d="M276 95q0 -27 -15 -50t-36.5 -39.5t-45.5 -25.5t-41 -9q-3 -1 -4.5 -4.5t-1.5 -6.5q0 -5 4 -5q3 0 15 -6.5t12 -21.5q0 -14 -12 -24t-32 -10q-5 0 -12.5 1t-8.5 8q0 4 9 4q21 0 25.5 8.5t4.5 13.5q-1 4 -4.5 6.5t-7.5 4.5q-5 2 -11 2q-2 0 -3 1q-2 2 -2 6q0 5 4 13
q2 4 5 8q0 1 -1 2q-35 3 -55 19.5t-29.5 38t-12 42.5t-2.5 33q0 32 13 72.5t37.5 76t60 60t80.5 24.5q5 0 16 -1.5t22.5 -8t20 -20t8.5 -38.5q0 -5 -2.5 -21t-10 -33t-22.5 -30.5t-39 -13.5q-5 1 -9 5q-9 5 -9 18q0 8 3.5 13.5l7 10.5t7 11.5t3.5 17.5q0 6 -3 13.5t-14 7.5
q-14 0 -30 -11.5t-29.5 -32t-22.5 -48.5t-9 -60q0 -13 1.5 -26.5t6.5 -25t13 -18.5t22 -7q6 0 15 2t20.5 9t23.5 20t23 35q4 6 8 10t9.5 7.5t13.5 3.5q11 0 17 -10t6 -21z" />
    <glyph glyph-name="eacute" unicode="&#xe9;" horiz-adv-x="293" 
d="M297 469q0 -5 -2.5 -9t-4.5 -6q-3 -3 -6 -5q-20 -8 -36.5 -20.5l-31 -24.5t-28 -21t-27.5 -10q-9 -1 -11 5q-2 3 -1 5q0 18 11 40t26 41t30.5 31.5t23.5 12.5q6 0 15.5 -2t18.5 -6.5t16 -12t7 -18.5zM282 249q0 -31 -13 -60.5t-34.5 -52.5t-49.5 -37t-59 -14q-2 0 -4 -2
q-1 -1 -1 -2q2 -23 10.5 -36t17.5 -21q11 -9 24 -12q26 -7 31.5 -18.5t5.5 -19.5q0 -13 -6.5 -19.5t-14.5 -9.5q-9 -4 -20 -5q-34 0 -56.5 15.5t-36.5 34.5q-16 22 -25 51l-3 12q-2 6 -3 14t-2 19q0 1 -1 2q-2 2 -4 2q-12 2 -22 7q-8 5 -14.5 14t-6.5 26q1 8 4 14
q2 5 6.5 9.5t11.5 4.5q2 0 8.5 -1.5t17.5 -3.5q2 0 3 1q1 0 1 1q14 47 37 84q10 16 22 31t27.5 27t33.5 19t40 7q10 0 23 -3t24.5 -12t19.5 -25t8 -41zM210 239q0 6 -2 10t-5 7.5t-9 3.5q-12 0 -25.5 -11t-25 -27.5t-18.5 -35t-7 -33.5q0 -5 4 -5q7 0 21.5 5.5t29.5 16.5
t26 28t11 41z" />
    <glyph glyph-name="egrave" unicode="&#xe8;" horiz-adv-x="287" 
d="M228 383q0 -8 -4 -9t-8 -1q-7 0 -18 4t-26 18q-17 14 -32 25q-13 10 -26 18.5t-21 10.5q-4 2 -7 5q-6 6 -6 15q0 1 1.5 7.5t7 13.5t17 12.5t31.5 5.5q12 0 27.5 -15t30 -35t24 -41t9.5 -34zM282 249q0 -31 -13 -60.5t-34.5 -52.5t-49.5 -37t-59 -14q-2 0 -4 -2
q-1 -1 -1 -2q2 -23 10.5 -36t17.5 -21q11 -9 24 -12q26 -7 31.5 -18.5t5.5 -19.5q0 -13 -6.5 -19.5t-14.5 -9.5q-9 -4 -20 -5q-34 0 -56.5 15.5t-36.5 34.5q-16 22 -25 51l-3 12q-2 6 -3 14t-2 19q0 1 -1 2q-2 2 -4 2q-12 2 -22 7q-8 5 -14.5 14t-6.5 26q1 8 4 14
q2 5 6.5 9.5t11.5 4.5q2 0 8.5 -1.5t17.5 -3.5q2 0 3 1q1 0 1 1q14 47 37 84q10 16 22 31t27.5 27t33.5 19t40 7q10 0 23 -3t24.5 -12t19.5 -25t8 -41zM210 239q0 6 -2 10t-5 7.5t-9 3.5q-12 0 -25.5 -11t-25 -27.5t-18.5 -35t-7 -33.5q0 -5 4 -5q7 0 21.5 5.5t29.5 16.5
t26 28t11 41z" />
    <glyph glyph-name="ecircumflex" unicode="&#xea;" horiz-adv-x="287" 
d="M280 383q0 -8 -4 -9t-9 -1q-7 0 -18 4.5t-28 17.5q-7 6 -15 12l-15.5 11l-16.5 12q-28 -18 -49 -37t-44 -20q-5 -1 -7 1l-4 4q-2 3 -2 5q0 18 11.5 40t27.5 41t31.5 31.5t24.5 12.5h22q12 0 28.5 -15t31.5 -35t25 -41t10 -34zM282 249q0 -31 -13 -60.5t-34.5 -52.5
t-49.5 -37t-59 -14q-2 0 -4 -2q-1 -1 -1 -2q2 -23 10.5 -36t17.5 -21q11 -9 24 -12q26 -7 31.5 -18.5t5.5 -19.5q0 -13 -6.5 -19.5t-14.5 -9.5q-9 -4 -20 -5q-34 0 -56.5 15.5t-36.5 34.5q-16 22 -25 51l-3 12q-2 6 -3 14t-2 19q0 1 -1 2q-2 2 -4 2q-12 2 -22 7
q-8 5 -14.5 14t-6.5 26q1 8 4 14q2 5 6.5 9.5t11.5 4.5q2 0 8.5 -1.5t17.5 -3.5q2 0 3 1q1 0 1 1q14 47 37 84q10 16 22 31t27.5 27t33.5 19t40 7q10 0 23 -3t24.5 -12t19.5 -25t8 -41zM210 239q0 6 -2 10t-5 7.5t-9 3.5q-12 0 -25.5 -11t-25 -27.5t-18.5 -35t-7 -33.5
q0 -5 4 -5q7 0 21.5 5.5t29.5 16.5t26 28t11 41z" />
    <glyph glyph-name="edieresis" unicode="&#xeb;" horiz-adv-x="287" 
d="M280 421q0 -17 -10.5 -33t-33.5 -16q-13 0 -23 7t-10 24q2 13 7 24q5 9 13.5 17t24.5 8t24 -9.5t8 -21.5zM135 426q0 -17 -10.5 -33t-33.5 -16q-13 0 -23 7t-10 24q2 13 7 24q5 9 13.5 17t24.5 8t24 -9.5t8 -21.5zM282 249q0 -31 -13 -60.5t-34.5 -52.5t-49.5 -37
t-59 -14q-2 0 -4 -2q-1 -1 -1 -2q2 -23 10.5 -36t17.5 -21q11 -9 24 -12q26 -7 31.5 -18.5t5.5 -19.5q0 -13 -6.5 -19.5t-14.5 -9.5q-9 -4 -20 -5q-34 0 -56.5 15.5t-36.5 34.5q-16 22 -25 51l-3 12q-2 6 -3 14t-2 19q0 1 -1 2q-2 2 -4 2q-12 2 -22 7q-8 5 -14.5 14t-6.5 26
q1 8 4 14q2 5 6.5 9.5t11.5 4.5q2 0 8.5 -1.5t17.5 -3.5q2 0 3 1q1 0 1 1q14 47 37 84q10 16 22 31t27.5 27t33.5 19t40 7q10 0 23 -3t24.5 -12t19.5 -25t8 -41zM210 239q0 6 -2 10t-5 7.5t-9 3.5q-12 0 -25.5 -11t-25 -27.5t-18.5 -35t-7 -33.5q0 -5 4 -5q7 0 21.5 5.5
t29.5 16.5t26 28t11 41z" />
    <glyph glyph-name="iacute" unicode="&#xed;" horiz-adv-x="173" 
d="M191 469q0 -5 -2.5 -9t-4.5 -6q-3 -3 -6 -5q-20 -8 -36.5 -20.5l-31 -24.5t-28 -21t-27.5 -10q-9 -1 -11 5q-2 3 -1 5q0 18 11 40t26 41t30.5 31.5t23.5 12.5q6 0 15.5 -2t18.5 -6.5t16 -12t7 -18.5zM129 275l-4 -20.5t-6 -37t-5.5 -48.5t-2.5 -56q0 -22 2 -41.5t4 -33.5
q3 -18 6 -32q-2 -14 -13.5 -18.5t-19.5 -4.5q-9 0 -17 4q-4 2 -6 4q-17 20 -23.5 56t-6.5 77q0 31 2.5 61t5.5 54q4 28 8 53q0 4 4 8q3 3 10 5.5t19 2.5q5 0 12.5 -1.5t14 -5t11.5 -10t5 -16.5z" />
    <glyph glyph-name="igrave" unicode="&#xec;" horiz-adv-x="173" 
d="M161 383q0 -8 -4 -9t-8 -1q-7 0 -18 4t-26 18q-17 14 -32 25q-13 10 -26 18.5t-21 10.5q-4 2 -7 5q-6 6 -6 15q0 1 1.5 7.5t7 13.5t17 12.5t31.5 5.5q12 0 27.5 -15t30 -35t24 -41t9.5 -34zM129 275l-4 -20.5t-6 -37t-5.5 -48.5t-2.5 -56q0 -22 2 -41.5t4 -33.5
q3 -18 6 -32q-2 -14 -13.5 -18.5t-19.5 -4.5q-9 0 -17 4q-4 2 -6 4q-17 20 -23.5 56t-6.5 77q0 31 2.5 61t5.5 54q4 28 8 53q0 4 4 8q3 3 10 5.5t19 2.5q5 0 12.5 -1.5t14 -5t11.5 -10t5 -16.5z" />
    <glyph glyph-name="icircumflex" unicode="&#xee;" horiz-adv-x="173" 
d="M193 383q0 -8 -4 -9t-9 -1q-7 0 -18 4.5t-28 17.5q-7 6 -15 12l-15.5 11l-16.5 12q-28 -18 -49 -37t-44 -20q-5 -1 -7 1l-4 4q-2 3 -2 5q0 18 11.5 40t27.5 41t31.5 31.5t24.5 12.5h22q12 0 28.5 -15t31.5 -35t25 -41t10 -34zM129 275l-4 -20.5t-6 -37t-5.5 -48.5
t-2.5 -56q0 -22 2 -41.5t4 -33.5q3 -18 6 -32q-2 -14 -13.5 -18.5t-19.5 -4.5q-9 0 -17 4q-4 2 -6 4q-17 20 -23.5 56t-6.5 77q0 31 2.5 61t5.5 54q4 28 8 53q0 4 4 8q3 3 10 5.5t19 2.5q5 0 12.5 -1.5t14 -5t11.5 -10t5 -16.5z" />
    <glyph glyph-name="idieresis" unicode="&#xef;" horiz-adv-x="173" 
d="M198 421q0 -17 -10.5 -33t-33.5 -16q-13 0 -23 7t-10 24q2 13 7 24q5 9 13.5 17t24.5 8t24 -9.5t8 -21.5zM53 426q0 -17 -10.5 -33t-33.5 -16q-13 0 -23 7t-10 24q2 13 7 24q5 9 13.5 17t24.5 8t24 -9.5t8 -21.5zM129 275l-4 -20.5t-6 -37t-5.5 -48.5t-2.5 -56
q0 -22 2 -41.5t4 -33.5q3 -18 6 -32q-2 -14 -13.5 -18.5t-19.5 -4.5q-9 0 -17 4q-4 2 -6 4q-17 20 -23.5 56t-6.5 77q0 31 2.5 61t5.5 54q4 28 8 53q0 4 4 8q3 3 10 5.5t19 2.5q5 0 12.5 -1.5t14 -5t11.5 -10t5 -16.5z" />
    <glyph glyph-name="ntilde" unicode="&#xf1;" horiz-adv-x="363" 
d="M335 421q0 -15 -8.5 -27.5t-30.5 -12.5q-14 0 -25 -3t-19 -7q-9 -4 -16 -10q-13 -8 -22.5 -11t-16.5 -3q-17 0 -21 8.5t-4 18.5q0 8 8 21t23.5 25.5t37.5 21.5t51 9q3 0 10 -1t14.5 -4t13 -9t5.5 -16zM353 23q0 -16 -7.5 -24.5t-16.5 -12.5q-11 -4 -23 -5q-25 0 -39 17.5
t-20.5 43t-8 53t-1.5 48.5v19q0 10 -8 10q-13 0 -25.5 -15t-25 -37.5t-24 -48.5l-22 -49t-20 -39t-16.5 -18q-5 -1 -9 -2t-8 -1q-15 0 -23.5 12t-13 31.5t-6 44.5t-1.5 51q0 21 2.5 50.5t6.5 58.5t9.5 53.5t12.5 36.5q5 9 12 17q6 6 15.5 11.5t23.5 5.5q2 0 7 -0.5t10 -3
t9 -7.5t4 -14q0 -13 -8 -30q-8 -22 -13 -44q-5 -19 -8.5 -41.5t-3.5 -41.5q0 -13 4 -13q2 0 3 2q4 6 18 28.5t34.5 47.5t44.5 44.5t50 19.5q29 0 36 -20t7 -65q0 -10 -1 -21t-1 -25q0 -10 0.5 -26.5t4 -33.5t10 -31.5t17.5 -20.5l6 -4q6 -6 6 -11z" />
    <glyph glyph-name="oacute" unicode="&#xf3;" horiz-adv-x="313" 
d="M260 469q0 -5 -2.5 -9t-4.5 -6q-3 -3 -6 -5q-20 -8 -36.5 -20.5l-31 -24.5t-28 -21t-27.5 -10q-9 -1 -11 5q-2 3 -1 5q0 18 11 40t26 41t30.5 31.5t23.5 12.5q6 0 15.5 -2t18.5 -6.5t16 -12t7 -18.5zM292 187q0 -49 -14 -85.5t-37 -61t-51.5 -37t-57.5 -12.5
q-39 0 -60 19t-31 42q-11 27 -13 62q0 23 5 43.5t12 37.5q8 19 18 36q0 1 -3 4q-1 1 -2 1q-16 0 -25 6.5t-9 16.5q0 13 10.5 26t28 22.5t39 15.5t42.5 6q18 0 43 -5.5t48.5 -20.5t40 -43t16.5 -73zM211 166q-1 25 -7 44q-5 17 -15.5 30t-30.5 13q-6 0 -14.5 -7t-16 -21
t-13 -35t-5.5 -48q0 -8 0.5 -21.5t5 -27.5t14 -24t27.5 -10q20 0 31 16.5t16 36.5q6 24 8 54z" />
    <glyph glyph-name="ograve" unicode="&#xf2;" horiz-adv-x="313" 
d="M209 383q0 -8 -4 -9t-8 -1q-7 0 -18 4t-26 18q-17 14 -32 25q-13 10 -26 18.5t-21 10.5q-4 2 -7 5q-6 6 -6 15q0 1 1.5 7.5t7 13.5t17 12.5t31.5 5.5q12 0 27.5 -15t30 -35t24 -41t9.5 -34zM292 187q0 -49 -14 -85.5t-37 -61t-51.5 -37t-57.5 -12.5q-39 0 -60 19t-31 42
q-11 27 -13 62q0 23 5 43.5t12 37.5q8 19 18 36q0 1 -3 4q-1 1 -2 1q-16 0 -25 6.5t-9 16.5q0 13 10.5 26t28 22.5t39 15.5t42.5 6q18 0 43 -5.5t48.5 -20.5t40 -43t16.5 -73zM211 166q-1 25 -7 44q-5 17 -15.5 30t-30.5 13q-6 0 -14.5 -7t-16 -21t-13 -35t-5.5 -48
q0 -8 0.5 -21.5t5 -27.5t14 -24t27.5 -10q20 0 31 16.5t16 36.5q6 24 8 54z" />
    <glyph glyph-name="ocircumflex" unicode="&#xf4;" horiz-adv-x="313" 
d="M263 383q0 -8 -4 -9t-9 -1q-7 0 -18 4.5t-28 17.5q-7 6 -15 12l-15.5 11l-16.5 12q-28 -18 -49 -37t-44 -20q-5 -1 -7 1l-4 4q-2 3 -2 5q0 18 11.5 40t27.5 41t31.5 31.5t24.5 12.5h22q12 0 28.5 -15t31.5 -35t25 -41t10 -34zM292 187q0 -49 -14 -85.5t-37 -61t-51.5 -37
t-57.5 -12.5q-39 0 -60 19t-31 42q-11 27 -13 62q0 23 5 43.5t12 37.5q8 19 18 36q0 1 -3 4q-1 1 -2 1q-16 0 -25 6.5t-9 16.5q0 13 10.5 26t28 22.5t39 15.5t42.5 6q18 0 43 -5.5t48.5 -20.5t40 -43t16.5 -73zM211 166q-1 25 -7 44q-5 17 -15.5 30t-30.5 13q-6 0 -14.5 -7
t-16 -21t-13 -35t-5.5 -48q0 -8 0.5 -21.5t5 -27.5t14 -24t27.5 -10q20 0 31 16.5t16 36.5q6 24 8 54z" />
    <glyph glyph-name="odieresis" unicode="&#xf6;" horiz-adv-x="313" 
d="M268 421q0 -17 -10.5 -33t-33.5 -16q-13 0 -23 7t-10 24q2 13 7 24q5 9 13.5 17t24.5 8t24 -9.5t8 -21.5zM123 426q0 -17 -10.5 -33t-33.5 -16q-13 0 -23 7t-10 24q2 13 7 24q5 9 13.5 17t24.5 8t24 -9.5t8 -21.5zM292 187q0 -49 -14 -85.5t-37 -61t-51.5 -37
t-57.5 -12.5q-39 0 -60 19t-31 42q-11 27 -13 62q0 23 5 43.5t12 37.5q8 19 18 36q0 1 -3 4q-1 1 -2 1q-16 0 -25 6.5t-9 16.5q0 13 10.5 26t28 22.5t39 15.5t42.5 6q18 0 43 -5.5t48.5 -20.5t40 -43t16.5 -73zM211 166q-1 25 -7 44q-5 17 -15.5 30t-30.5 13q-6 0 -14.5 -7
t-16 -21t-13 -35t-5.5 -48q0 -8 0.5 -21.5t5 -27.5t14 -24t27.5 -10q20 0 31 16.5t16 36.5q6 24 8 54z" />
    <glyph glyph-name="otilde" unicode="&#xf5;" horiz-adv-x="313" 
d="M240 455q0 -26 -17.5 -40.5t-37.5 -21.5q-25 -9 -55 -10q-41 2 -64.5 15t-23.5 42q0 26 11 37.5t34 11.5q10 0 18 -4t15.5 -8.5t17 -8t22.5 -3.5q17 0 37 8q3 1 7 2q3 1 6.5 2t8.5 1q8 0 12 -3.5t6 -8.5q3 -5 3 -11zM292 187q0 -49 -14 -85.5t-37 -61t-51.5 -37
t-57.5 -12.5q-39 0 -60 19t-31 42q-11 27 -13 62q0 23 5 43.5t12 37.5q8 19 18 36q0 1 -3 4q-1 1 -2 1q-16 0 -25 6.5t-9 16.5q0 13 10.5 26t28 22.5t39 15.5t42.5 6q18 0 43 -5.5t48.5 -20.5t40 -43t16.5 -73zM211 166q-1 25 -7 44q-5 17 -15.5 30t-30.5 13q-6 0 -14.5 -7
t-16 -21t-13 -35t-5.5 -48q0 -8 0.5 -21.5t5 -27.5t14 -24t27.5 -10q20 0 31 16.5t16 36.5q6 24 8 54z" />
    <glyph glyph-name="uacute" unicode="&#xfa;" horiz-adv-x="348" 
d="M283 444q0 -5 -2.5 -9t-4.5 -6q-3 -3 -6 -5q-20 -8 -36.5 -20.5l-31 -24.5t-28 -21t-27.5 -10q-9 -1 -11 5q-2 3 -1 5q0 18 11 40t26 41t30.5 31.5t23.5 12.5q6 0 15.5 -2t18.5 -6.5t16 -12t7 -18.5zM334 19q0 -14 -5.5 -21.5t-13.5 -10.5q-9 -4 -20 -4q-17 0 -28.5 9
t-18.5 20.5t-10 22t-3 12.5q0 3 -2 3t-4 -2q-1 -1 -2 -1q-17 -30 -35 -46.5t-33.5 -24t-26 -9t-12.5 -1.5q-25 0 -42.5 17t-28.5 42.5t-16 55.5t-5 57q0 25 4.5 56.5t14 58.5t24.5 45.5t37 18.5q4 0 9.5 -0.5t10.5 -4t8.5 -10.5t3.5 -20q0 -10 -2.5 -23t-10.5 -32
q-7 -19 -12 -39q-5 -17 -8 -38t-3 -40q0 -23 8 -39.5t28 -16.5q16 3 30 16q12 11 25 35t21 67q1 7 2 15q1 7 2 16t1 18q0 5 4 12.5t10.5 14.5t16 12t21.5 5q11 0 19.5 -5t8.5 -22q0 -9 -3.5 -30t-3.5 -60q0 -27 5 -52.5t15 -40.5q4 -6 12 -15.5t8 -20.5z" />
    <glyph glyph-name="ugrave" unicode="&#xf9;" horiz-adv-x="348" 
d="M234 352q0 -8 -4 -9t-8 -1q-7 0 -18 4t-26 18q-17 14 -32 25q-13 10 -26 18.5t-21 10.5q-4 2 -7 5q-6 6 -6 15q0 1 1.5 7.5t7 13.5t17 12.5t31.5 5.5q12 0 27.5 -15t30 -35t24 -41t9.5 -34zM334 19q0 -14 -5.5 -21.5t-13.5 -10.5q-9 -4 -20 -4q-17 0 -28.5 9t-18.5 20.5
t-10 22t-3 12.5q0 3 -2 3t-4 -2q-1 -1 -2 -1q-17 -30 -35 -46.5t-33.5 -24t-26 -9t-12.5 -1.5q-25 0 -42.5 17t-28.5 42.5t-16 55.5t-5 57q0 25 4.5 56.5t14 58.5t24.5 45.5t37 18.5q4 0 9.5 -0.5t10.5 -4t8.5 -10.5t3.5 -20q0 -10 -2.5 -23t-10.5 -32q-7 -19 -12 -39
q-5 -17 -8 -38t-3 -40q0 -23 8 -39.5t28 -16.5q16 3 30 16q12 11 25 35t21 67q1 7 2 15q1 7 2 16t1 18q0 5 4 12.5t10.5 14.5t16 12t21.5 5q11 0 19.5 -5t8.5 -22q0 -9 -3.5 -30t-3.5 -60q0 -27 5 -52.5t15 -40.5q4 -6 12 -15.5t8 -20.5z" />
    <glyph glyph-name="ucircumflex" unicode="&#xfb;" horiz-adv-x="348" 
d="M280 383q0 -8 -4 -9t-9 -1q-7 0 -18 4.5t-28 17.5q-7 6 -15 12l-15.5 11l-16.5 12q-28 -18 -49 -37t-44 -20q-5 -1 -7 1l-4 4q-2 3 -2 5q0 18 11.5 40t27.5 41t31.5 31.5t24.5 12.5h22q12 0 28.5 -15t31.5 -35t25 -41t10 -34zM334 19q0 -14 -5.5 -21.5t-13.5 -10.5
q-9 -4 -20 -4q-17 0 -28.5 9t-18.5 20.5t-10 22t-3 12.5q0 3 -2 3t-4 -2q-1 -1 -2 -1q-17 -30 -35 -46.5t-33.5 -24t-26 -9t-12.5 -1.5q-25 0 -42.5 17t-28.5 42.5t-16 55.5t-5 57q0 25 4.5 56.5t14 58.5t24.5 45.5t37 18.5q4 0 9.5 -0.5t10.5 -4t8.5 -10.5t3.5 -20
q0 -10 -2.5 -23t-10.5 -32q-7 -19 -12 -39q-5 -17 -8 -38t-3 -40q0 -23 8 -39.5t28 -16.5q16 3 30 16q12 11 25 35t21 67q1 7 2 15q1 7 2 16t1 18q0 5 4 12.5t10.5 14.5t16 12t21.5 5q11 0 19.5 -5t8.5 -22q0 -9 -3.5 -30t-3.5 -60q0 -27 5 -52.5t15 -40.5q4 -6 12 -15.5
t8 -20.5z" />
    <glyph glyph-name="udieresis" unicode="&#xfc;" horiz-adv-x="348" 
d="M285 421q0 -17 -10.5 -33t-33.5 -16q-13 0 -23 7t-10 24q2 13 7 24q5 9 13.5 17t24.5 8t24 -9.5t8 -21.5zM140 426q0 -17 -10.5 -33t-33.5 -16q-13 0 -23 7t-10 24q2 13 7 24q5 9 13.5 17t24.5 8t24 -9.5t8 -21.5zM334 19q0 -14 -5.5 -21.5t-13.5 -10.5q-9 -4 -20 -4
q-17 0 -28.5 9t-18.5 20.5t-10 22t-3 12.5q0 3 -2 3t-4 -2q-1 -1 -2 -1q-17 -30 -35 -46.5t-33.5 -24t-26 -9t-12.5 -1.5q-25 0 -42.5 17t-28.5 42.5t-16 55.5t-5 57q0 25 4.5 56.5t14 58.5t24.5 45.5t37 18.5q4 0 9.5 -0.5t10.5 -4t8.5 -10.5t3.5 -20q0 -10 -2.5 -23
t-10.5 -32q-7 -19 -12 -39q-5 -17 -8 -38t-3 -40q0 -23 8 -39.5t28 -16.5q16 3 30 16q12 11 25 35t21 67q1 7 2 15q1 7 2 16t1 18q0 5 4 12.5t10.5 14.5t16 12t21.5 5q11 0 19.5 -5t8.5 -22q0 -9 -3.5 -30t-3.5 -60q0 -27 5 -52.5t15 -40.5q4 -6 12 -15.5t8 -20.5z" />
    <glyph glyph-name="dagger" unicode="&#x2020;" 
d="M427 298q0 -12 -17.5 -19.5t-42.5 -11.5t-52 -5t-46 -1q-4 0 -6 -4q-1 -2 -1 -3q-2 -11 -2.5 -20.5t-1.5 -15.5q-2 -24 -4 -53.5t-3.5 -60t-2 -60t-0.5 -53.5q0 -10 -6 -18t-22 -8q-9 0 -14.5 10t-8.5 24t-3.5 28t-0.5 23q0 30 2 63q1 29 3 64.5t5 73.5q0 4 -5 4
q-13 0 -33 -2.5l-38.5 -5t-33 -5t-16.5 -2.5q-8 0 -16 4t-8 15q0 16 17.5 26t42 15.5t50.5 8t44 4.5q2 0 4 2q1 1 2 3q2 20 3 37.5t6 33.5q6 22 18.5 27.5t17.5 5.5q8 0 11.5 -14t3.5 -35q0 -24 -3 -51q0 -2 1 -3q2 -2 4 -2q40 3 81 3q11 0 22.5 -0.5t25.5 -0.5q9 0 13.5 -3
t6.5 -6.5t2.5 -7t0.5 -4.5z" />
    <glyph glyph-name="degree" unicode="&#xb0;" horiz-adv-x="319" 
d="M252 434q0 -21 -10 -38t-25.5 -29t-35.5 -18.5t-40 -6.5q-31 0 -47 13t-24 29q-9 18 -10 42q0 10 6.5 26t20 30.5t34 25t49.5 10.5q12 0 26.5 -4.5t27 -14.5t20.5 -26t8 -39zM197 434q0 12 -5 19t-11 10t-12 3.5t-8 0.5q-19 0 -31 -11t-12 -31q0 -3 1 -8t4.5 -10t11 -8.5
t21.5 -3.5q11 0 26 9.5t15 29.5z" />
    <glyph glyph-name="cent" unicode="&#xa2;" horiz-adv-x="338" 
d="M298 95q0 -20 -10.5 -39.5t-25 -35t-31 -26t-28.5 -13.5q-3 -1 -3 -8v-5v-16t1 -14l2 -14q0 -5 -4.5 -11t-15.5 -6q-13 -1 -18 16t-6 31q-1 12 -2.5 14t-4.5 2q-36 0 -58 14.5t-34 34.5t-16 41.5t-4 35.5q0 10 2.5 38t15.5 61.5t39 68t74 58.5q1 0 2 1l2 5l2 57q0 7 3 11
t6 6q4 2 9 2q9 0 14 -5.5t7.5 -14.5t3 -20.5t0.5 -23.5q0 -4 1 -4q1 -1 2 0l11 1q23 0 36.5 -11t19.5 -25q7 -16 8 -35q0 -5 -2.5 -20t-10.5 -32t-22.5 -30t-38.5 -13q-8 0 -13 7.5t-5 14.5q0 9 3 15t7 11.5t7 12t3 15.5q0 8 -4 14.5t-12 6.5q-12 0 -27.5 -9.5t-30 -28
t-24.5 -47t-10 -66.5q0 -13 1.5 -26.5t6.5 -25t13 -19t22 -7.5q7 0 17 3t21.5 10.5t23 20t20.5 32.5q1 5 9.5 13t22.5 8q13 0 18 -11t5 -20z" />
    <glyph glyph-name="sterling" unicode="&#xa3;" horiz-adv-x="439" 
d="M415 51q0 -1 -1 -8t-6 -15.5t-14.5 -15.5t-25.5 -7q-14 0 -25.5 3t-26.5 3q-33 0 -68.5 -10t-65.5 -22q-35 -14 -68 -31q-11 -6 -19 -8t-15 -2q-23 0 -29 12.5t-6 24.5q0 11 4.5 20t10.5 16q6 8 15 15l9 6l13 9l16 11q4 2 4.5 5.5t0.5 5.5v1q0 26 -1.5 50t-1.5 47
q0 20 0.5 38.5t1.5 35.5q0 3 -4 3l-80 -14q-6 0 -11.5 3.5t-5.5 14.5q0 10 9.5 17.5t22.5 12.5t27.5 8l24.5 5q2 0 5 1q4 1 14 3q3 0 3 2v2q4 40 9.5 70.5t10.5 52.5q6 25 12 44q4 17 14 30q8 11 22 20.5t37 9.5q11 0 24.5 -5t13.5 -26q0 -15 -8 -35l-13 -42
q-6 -20 -13 -47.5t-12 -60.5q0 -4 3 -4q10 0 25 0.5t32 0.5q32 -1 45 -3.5t13 -14.5q0 -13 -14 -19t-33.5 -9t-40 -3.5t-35.5 -1.5q-1 -1 -2 -1q-2 -2 -2 -3l-4 -46t-2 -47q0 -17 1 -35t3 -35q0 -1 1 -2q2 -2 5 -2q1 0 12.5 3.5t29.5 7.5t39 7.5t41 3.5q5 0 18 -1t26.5 -5.5
t24 -15t10.5 -28.5z" />
    <glyph glyph-name="section" unicode="&#xa7;" horiz-adv-x="482" 
d="M448 277q0 -9 -2.5 -24.5t-13 -36t-31 -46t-55.5 -53.5q-1 0 -2 -1t-1 -4q0 -2 4 -5q12 -4 23 -12q8 -7 15.5 -17.5t7.5 -26.5q0 -29 -24 -60t-60.5 -57.5t-79.5 -43.5t-80 -17q-23 0 -33 10t-12 22q2 23 9.5 30.5t25.5 10.5q72 12 112 36t40 50q0 14 -22.5 25t-50 18.5
t-51 11.5t-26.5 5q-38 7 -59.5 18t-32 22t-13 20t-2.5 12q0 29 19 54.5t42 45.5q26 23 61 42q3 2 5 5q1 2 2 3q0 2 -4.5 6t-9.5 7q-6 4 -13 8q-23 12 -29.5 25.5t-6.5 23.5q0 19 14.5 37.5t37 35.5t50 31t54 24t48.5 16t33 6q18 0 37 -8.5t25 -35.5q0 -9 -4.5 -17.5
t-26.5 -8.5q-23 0 -51.5 -6.5t-53.5 -16.5t-41.5 -23t-16.5 -26q0 -15 18 -23t45 -13t58.5 -9t58.5 -12t45 -21.5t18 -36.5zM351 238q0 16 -16 26t-36 15q-23 6 -51 9q-31 -15 -55 -31q-20 -14 -37 -31.5t-17 -37.5q0 -7 4.5 -14.5t19.5 -9.5l35 -8q14 -4 29.5 -8t24.5 -7
q1 -1 3 -1h6q9 0 15 5q20 14 37 29q14 13 26 29.5t12 34.5z" />
    <glyph glyph-name="bullet" unicode="&#x2022;" horiz-adv-x="319" 
d="M267 165q0 -21 -10 -38t-25.5 -29t-35.5 -18.5t-40 -6.5q-31 0 -47 13t-24 29q-9 18 -10 42q0 10 6.5 26t20 30.5t34 25t49.5 10.5q12 0 26.5 -4.5t27 -14.5t20.5 -26t8 -39z" />
    <glyph glyph-name="paragraph" unicode="&#xb6;" 
d="M489 519q0 -12 -5.5 -21.5t-12.5 -15.5q-8 -7 -17 -12t-14.5 -11t-7.5 -11q-4 -6 -4 -11q-14 -75 -19.5 -137t-5.5 -112q0 -42 2.5 -73.5t5.5 -53.5q4 -26 9 -44q1 -5 1 -13q0 -15 -4 -23.5t-10 -13t-13 -5.5t-13 -1q-11 0 -18 5.5t-12 12.5q-5 8 -8 19q-8 31 -12 69
t-4 80q0 57 5 114t11 102.5t11.5 75t5.5 30.5q0 3 -5 6q-2 1 -4 1q-8 0 -15.5 -1t-12.5 -2l-12 -2q-5 -4 -6 -5q-1 -2 -2 -3q-25 -123 -33 -214.5t-8 -153.5q0 -59 3 -89q2 -18 4 -30q3 -17 3 -28q0 -29 -11 -38t-25 -9q-9 0 -15.5 3.5t-11.5 8.5t-9 12q-11 21 -15 56.5
t-4 77.5q0 40 3 84q0 3 -4 3l-35 -2q-51 -3 -81.5 12.5t-46.5 38t-21 47.5t-5 41q0 59 23.5 101t62 70.5t86.5 45.5t96.5 26t93 12t75.5 3q22 0 34 -1.5t18 -4.5t7.5 -7t1.5 -9zM227 437q0 8 -2.5 10.5t-4.5 2.5q-14 0 -32 -10.5t-33.5 -31t-26.5 -49.5t-11 -65
q0 -16 2.5 -32t10 -29.5t21 -22t34.5 -8.5q5 0 6 10l36 225v0z" />
    <glyph glyph-name="germandbls" unicode="&#xdf;" horiz-adv-x="468" 
d="M450 180q0 -45 -26 -80t-60.5 -59t-69 -36.5t-51.5 -12.5q-18 0 -29 5.5t-17 12.5t-8 13t-2 8q0 5 2 6.5t4 3.5q3 1 7 2q55 15 86 34.5t46.5 39t19 35.5t3.5 23q-1 26 -21.5 42t-45.5 26q-29 11 -66 17q-9 0 -12 9t-3 14q0 22 20.5 34.5t45 23.5t45 24t20.5 37
q0 17 -12 28.5t-27.5 18t-31.5 9.5t-25 3q-30 0 -40.5 -6.5t-13.5 -14.5q-5 -11 -7.5 -20t-4.5 -19q-20 -87 -27 -163.5t-7 -138.5q0 -44 2 -75.5t4.5 -53.5t4.5 -34.5t2 -17.5q0 -17 -7.5 -27t-16.5 -15.5t-17.5 -7.5t-11.5 -2q-14 0 -21.5 6t-11.5 14q-4 9 -6 20
q-5 41 -6.5 81t-1.5 79q0 88 7.5 165.5t17.5 134.5q5 31 10 54t10 39q5 18 10 31q3 5 7 9q7 9 17 13q11 4 26 8q13 3 30.5 5.5t40.5 2.5q30 0 66.5 -7t68 -22.5t53 -39.5t21.5 -58q0 -26 -15.5 -41t-34.5 -24.5t-34.5 -16.5t-15.5 -17q0 -2 4 -6t19 -11q24 -12 43 -28
q17 -14 30.5 -33t13.5 -44z" />
    <glyph glyph-name="registered" unicode="&#xae;" horiz-adv-x="402" 
d="M367 397q0 -34 -13 -64t-35.5 -52.5t-52.5 -35.5t-64 -13t-64 13t-52.5 35.5t-35.5 52.5t-13 64t13 64t35.5 52.5t52.5 35.5t64 13t64 -13t52.5 -35.5t35.5 -52.5t13 -64zM338 397q0 28 -10.5 53t-29 43.5t-43.5 29t-53 10.5t-53 -10.5t-43.5 -29t-29 -43.5t-10.5 -53
t10.5 -53t29 -43.5t43.5 -29t53 -10.5t53 10.5t43.5 29t29 43.5t10.5 53zM275 306q0 -7 -6 -10.5t-11 -3.5q-11 0 -22 12.5t-21 28.5q-11 18 -23 41q-3 -1 -5 -1q-3 -1 -6 -1q-1 -1 -1 -2q-3 -26 -3 -55q0 -4 -5 -9q-2 -2 -4 -2h-5q-11 0 -13 10t-2 14v11t1 11t2 11
q-3 1 -5 4q-4 4 -4 10t3 8q1 1 3 2q4 2 7 2h1q1 14 3 25q3 22 10 37q1 3 4 6q2 2 5 4t8 2t6.5 -1t1.5 -8q-1 -6 -2 -14q-2 -7 -3.5 -16.5t-4.5 -20.5v-1q0 -1 1 -1h1q30 14 40 26.5t10 19.5q0 10 -10 17.5t-24.5 12t-31 6.5t-30.5 2q-6 0 -8 5q-1 2 -1 5q1 9 9.5 12t23.5 3
q10 0 28 -3t35 -10t29.5 -18.5t12.5 -27.5q0 -5 -5.5 -21t-37.5 -41h-1q6 -16 13 -30q6 -12 14.5 -25t19.5 -21q0 -1 1 -2q2 -2 2 -3z" />
    <glyph glyph-name="copyright" unicode="&#xa9;" horiz-adv-x="579" 
d="M563 248q0 -61 -24.5 -115.5t-66.5 -96t-97 -65.5t-115 -24q-54 0 -100.5 19.5t-80.5 53.5t-53 80.5t-19 99.5q0 58 16 102.5t42 78t59 56.5t66.5 37t64.5 20.5t54 6.5q54 0 100.5 -19.5t80.5 -53.5t53.5 -80.5t19.5 -99.5zM513 242q2 43 -14 81.5t-44.5 66.5t-67 44.5
t-83.5 16.5q-33 0 -76 -14.5t-81 -44.5t-64 -77t-26 -111q0 -44 16 -81.5t44 -65.5t66 -44t82 -16q47 0 90.5 18t77.5 50.5t55.5 77.5t24.5 99zM391 160q0 -19 -10 -38.5t-27.5 -35.5t-41 -26.5t-49.5 -10.5q-33 0 -52.5 14t-30 33.5t-14 41.5t-3.5 37q0 30 12 69.5t34.5 75
t54.5 60.5t73 25q20 0 30.5 -10t10.5 -38q0 -6 -1.5 -18.5t-6.5 -24.5t-13.5 -21.5t-22.5 -9.5q-4 0 -10.5 2t-6.5 16q0 3 1 4.5t1 9.5q0 6 -2 13.5t-10 7.5q-12 0 -26 -13.5t-26 -36t-20 -52t-8 -60.5q0 -11 2 -22.5t7 -20.5t13.5 -15t22.5 -6q12 0 33.5 11t44.5 50
q2 3 5 7q6 8 15 9q6 0 13.5 -5.5t7.5 -21.5z" />
    <glyph glyph-name="trademark" unicode="&#x2122;" horiz-adv-x="441" 
d="M392 311q0 -23 -0.5 -41.5t-3.5 -32.5t-10 -21.5t-19 -7.5q-14 0 -18 8q-2 4 -2 8q2 7 4 19q2 11 3 27.5t1 42.5q0 20 -2 30q-15 -20 -22 -33t-12 -20.5t-9.5 -10.5t-13.5 -3q-8 0 -14.5 7.5t-11.5 18t-9 22t-6 20.5q-4 -26 -5 -46t-1 -33q0 -15 1 -19v-12
q-3 -11 -12 -15q-4 -2 -10 -2q-16 0 -19 6t-3 9q-1 8 -1 17v17q0 58 8.5 94.5t14.5 48.5q3 6 13 13.5t24 7.5q7 0 12 -3t5 -11q0 -2 2 -14t5 -26t7 -25.5t8 -11.5q0 1 1 1t2 1q5 5 11 14q10 15 28 53q4 9 13.5 16t19.5 8q9 0 11.5 -3.5t4.5 -11.5q1 -15 2 -32q1 -15 2 -34
t1 -40zM220 427q0 -4 -6 -14t-24 -10q-11 0 -20 -1q-8 -1 -14.5 -3t-6.5 -5q-4 -17 -8 -36q-3 -17 -5.5 -37.5t-2.5 -43.5q0 -28 -4 -49t-26 -21q-4 0 -8 3q-7 5 -7 23q0 21 2 45.5t5 46t6 38.5l4 23q-5 -2 -8 -3t-5 -2q-3 -1 -5 -2q-11 -6 -17 -6q-11 0 -14.5 5t-3.5 14
q0 5 3 11.5t13 14.5q4 1 15 5.5t27.5 9t38 8t45.5 3.5q8 0 17 -2t9 -15z" />
    <glyph glyph-name="acute" unicode="&#xb4;" horiz-adv-x="262" 
d="M216 469q0 -5 -2.5 -9t-4.5 -6q-3 -3 -6 -5q-20 -8 -36.5 -20.5l-31 -24.5t-28 -21t-27.5 -10q-9 -1 -11 5q-2 3 -1 5q0 18 11 40t26 41t30.5 31.5t23.5 12.5q6 0 15.5 -2t18.5 -6.5t16 -12t7 -18.5z" />
    <glyph glyph-name="dieresis" unicode="&#xa8;" 
d="M382 421q0 -17 -10.5 -33t-33.5 -16q-13 0 -23 7t-10 24q2 13 7 24q5 9 13.5 17t24.5 8t24 -9.5t8 -21.5zM237 426q0 -17 -10.5 -33t-33.5 -16q-13 0 -23 7t-10 24q2 13 7 24q5 9 13.5 17t24.5 8t24 -9.5t8 -21.5z" />
    <glyph glyph-name="notequal" unicode="&#x2260;" horiz-adv-x="427" 
d="M395 167q0 -11 -5 -17t-10 -8q-6 -4 -14 -3q-11 0 -36.5 3t-45.5 3t-38.5 -1t-36.5 -3q-4 -7 -5 -13q-10 -26 -16 -53.5t-16 -49.5q-4 -9 -10 -13.5t-22 -4.5q-8 0 -11 8t-3 19q0 15 3.5 32t7.5 28l14 39q-20 -4 -36.5 -7t-27.5 -6l-24 -7q-5 -2 -12 -2q-13 0 -16.5 8
t-3.5 9t1 6.5t5 12t13 13t24 10.5q11 2 26 5q13 2 30.5 5t39.5 6l27 75q-22 -3 -44.5 -7t-41.5 -7l-43 -8q-11 0 -20 5.5t-9 20.5q0 10 15.5 18t41 14.5t57 11t63.5 7.5q7 21 15.5 41.5t18.5 36t21 25t24 9.5q10 0 10 -16q0 -11 -8 -35l-20 -58q7 1 13 1h12q45 0 69 -3
t24 -23q0 -13 -15 -19t-36.5 -7.5t-45.5 -1t-41 -0.5l-14 -36l-15 -38q34 3 76 3q10 0 25.5 -0.5t30 -3t25 -8.5t10.5 -16z" />
    <glyph glyph-name="AE" unicode="&#xc6;" horiz-adv-x="683" 
d="M690 291q0 -5 -2 -13.5t-13 -18t-34.5 -18.5t-65.5 -13q-45 -5 -86.5 -8.5t-73.5 -11.5q-1 0 -2 -1q-2 -2 -2 -6q0 -9 5 -29t18 -40.5t36.5 -36t61.5 -15.5q18 0 27.5 2t16.5 5t15 5t23 2q13 0 19.5 -6t6.5 -21q0 -32 -32 -54t-93 -22q-38 0 -72.5 12t-63 36t-48 59
t-25.5 82q0 1 -2 2l-4 2t-6 1q-40 -8 -65.5 -16.5t-39.5 -15.5q-18 -8 -26 -16q-7 -5 -10 -12l-3 -6q-10 -33 -15.5 -57t-8.5 -41q-4 -19 -5 -33q0 -18 -10 -29t-22.5 -17.5t-24.5 -8.5t-16 -2q-11 0 -16.5 6t-8 14t-3 16t-0.5 12q0 19 4 42t9 43t9 34l4 14q0 2 -2 4l-2 2
q-15 5 -18.5 15.5t-3.5 18.5q4 19 13 30t20 17q11 7 26 9q4 1 8 5q1 2 2 3q23 72 51 125.5t51 89.5q27 42 54 72q9 8 19 14q8 5 18.5 10t21.5 5q5 -1 9 -2.5t7 -1.5t5 2q7 7 16 12q8 5 17.5 8.5t22.5 3.5q3 0 7 -4q2 -3 4.5 -10.5t2.5 -20.5q0 -8 -1 -17t-3 -23q0 -5 5 -5
q15 19 35.5 33.5t43 23.5t44.5 13.5t40 4.5q7 0 21 -1t28 -6t24 -14.5t10 -26.5q0 -19 -12.5 -33.5t-50.5 -14.5q-2 0 -6 1q-3 0 -6.5 0.5t-8.5 0.5q-14 0 -33.5 -4.5t-39.5 -20.5q-17 -13 -32 -32q-13 -17 -25.5 -41.5t-18.5 -58.5q0 -1 1 -2q2 -2 5 -2q16 2 38 4.5t47 4.5
t51.5 3.5t52.5 1.5q20 0 37.5 -1t32.5 -3q4 0 8 -2q8 -4 8 -11zM304 425q0 5 -4 5q-2 0 -6 -2q-2 -1 -3 -1q-15 -12 -31 -40t-28.5 -57.5t-20.5 -52t-8 -23.5q0 -7 5 -7l29 8l27.5 6.5t28.5 5.5q1 0 3 2q4 4 4 9v27q0 20 0.5 41t1.5 38l2 38v3z" />
    <glyph glyph-name="Oslash" unicode="&#xd8;" horiz-adv-x="475" 
d="M461 283q0 -13 -3.5 -42t-13 -64.5t-26.5 -74t-44.5 -70t-66 -51.5t-90.5 -20q-24 0 -48 10q-1 -2 -1.5 -5t-1.5 -5q-8 -22 -13 -38.5t-10 -28t-12 -17t-19 -5.5q-14 0 -20.5 11.5t-6.5 24.5q0 11 8 36t22 60q-31 27 -52 74t-21 119q0 38 7 70.5t15 57t15 39t7 16.5
q0 1 -3 4q-2 1 -3 2q-7 0 -20 -6t-24 -6q-8 0 -15 4.5t-7 20.5q0 20 15.5 43t44.5 42.5t69.5 32.5t91.5 13q57 0 107 -26q6 12 10.5 22t8.5 18l8 16q3 5 7 9q3 3 7 6t9 3q14 -2 19 -11.5t5 -23.5q0 -11 -6 -30.5t-17 -45.5q31 -31 49.5 -77t18.5 -107zM362 261q0 14 -3 29
q-2 13 -6.5 29t-11.5 33l-65 -138l-67 -147q17 -10 36 -10q16 0 36.5 11t38.5 35t30 63t12 95zM296 410q-23 15 -53 15q-21 0 -34.5 -4t-21.5 -9q-9 -5 -13 -12q-11 -20 -20 -45q-8 -21 -14 -49.5t-6 -61.5q0 -21 6.5 -56.5t22.5 -67.5l67.5 148.5z" />
    <glyph glyph-name="lessequal" unicode="&#x2264;" horiz-adv-x="433" 
d="M368 194q0 -14 -10.5 -19t-18.5 -5q-12 0 -18 3q-4 2 -7 4q-21 8 -56 13.5t-68.5 8.5t-58 4t-25.5 1q-21 0 -32.5 4.5t-16.5 10.5q-6 7 -7 16q0 13 16.5 30t42.5 35.5t58 36.5t63 32.5t57.5 23.5t41.5 9q17 0 22.5 -11.5t5.5 -16.5q0 -7 -6.5 -16.5t-31.5 -14.5
q-27 -6 -56 -17q-25 -9 -55 -24.5t-60 -37.5q-1 -1 -2 -3q-2 -4 -2 -6q0 -4 6 -4q33 0 66 -2q28 -2 57.5 -5t51.5 -9q28 -8 35.5 -20.5t7.5 -20.5zM391 96q0 -9 -7 -14.5t-18 -8.5t-25 -4t-29 -1h-49q-32 0 -67 -4.5t-64 -9.5q-34 -6 -67 -13q-8 2 -16.5 7t-11.5 19
q0 13 12.5 21.5t29.5 13t34 7t25 4.5q21 4 47 8q22 3 50 6t60 3q16 0 32 -1t33 -3q23 -4 27 -13.5t4 -16.5z" />
    <glyph glyph-name="greaterequal" unicode="&#x2265;" horiz-adv-x="433" 
d="M378 327q0 -13 -16.5 -30t-42.5 -35.5t-58 -36.5t-63 -32.5t-57.5 -23.5t-41.5 -9q-17 0 -22.5 11.5t-5.5 16.5q0 7 6.5 16.5t31.5 14.5q26 6 55 17q25 9 55.5 24t60.5 38q1 1 2 3q2 4 2 6q0 4 -6 4q-33 0 -66 2q-28 2 -58 5t-51 9q-28 8 -35.5 20.5t-7.5 20.5
q0 14 10.5 19t18.5 5t18 -4q4 -2 7 -3q21 -8 56 -13.5t68.5 -8.5t58 -4t25.5 -1q21 0 32.5 -5t16.5 -11q6 -7 7 -15zM391 125q0 -14 -12.5 -22t-29.5 -12.5t-34 -7t-25 -4.5q-21 -5 -47 -9q-22 -3 -50 -5.5t-60 -2.5q-16 0 -32 1t-33 3q-23 4 -27 13.5t-4 16.5q0 9 7 14.5
t18 8.5t25 4t29 1h49q32 0 66.5 4t63.5 9q34 6 68 14q8 -2 16.5 -7t11.5 -19z" />
    <glyph glyph-name="yen" unicode="&#xa5;" 
d="M473 236q0 -9 -9 -15t-22.5 -9t-29.5 -4t-31 -1h-10q-2 0 -4 -2q-1 -1 -1 -2l-11 -33q0 -3 2 -3l30 1q5 0 15.5 -0.5t21 -2t18.5 -4.5t8 -9q0 -14 -12 -21t-29 -10t-36 -3t-33 -1q-5 -1 -7 -3q-1 -1 -1 -3q-28 -58 -61 -104q-14 -20 -31.5 -38.5t-37 -33t-41 -23.5
t-44.5 -9q-16 0 -25.5 6t-14.5 13t-6.5 13.5t-1.5 7.5q0 11 3.5 17.5t8.5 11.5t12 9q31 11 54 27t38.5 33.5t25 33t14.5 25.5q0 2 -3 2q-19 -3 -41.5 -7t-30.5 -6q-8 0 -13 3q-5 2 -9 6t-4 12q0 10 12.5 17t29 11.5t33 7t24.5 4.5q2 0 6 1q7 2 17 3q1 0 3 1q3 3 4 5
q4 11 6 19l4 16q0 3 -4 3q-50 -6 -96 -14q-7 0 -12 2t-8.5 5t-2.5 9q0 12 12 19t27 11t30.5 6t23.5 4q5 0 5 1q0 3 -4 3q-53 19 -85 48.5t-48.5 61.5t-21.5 63t-5 52q0 32 13.5 53.5t38.5 21.5q5 0 12.5 -1t15 -7t12.5 -19.5t5 -37.5q0 -12 3 -36.5t15.5 -49.5t37 -46
t68.5 -25q3 0 7 1.5t6 7.5q13 40 16.5 70.5t3.5 48.5q0 11 -0.5 16.5t-0.5 6.5q1 19 16.5 37.5t46.5 18.5q11 0 23 -7.5t12 -32.5q-1 -29 -5 -65q-4 -31 -12 -73t-23 -92q0 -3 4 -3q15 0 30 -0.5t29 -0.5q16 -1 21 -10q3 -4 4 -9z" />
    <glyph glyph-name="partialdiff" unicode="&#x2202;" horiz-adv-x="234" 
d="M320 519q0 -5 -1.5 -16t-5.5 -21.5t-11 -18.5t-18 -8q-5 0 -8 3.5t-5 8.5t-3 12q-3 14 -10 18q-4 2 -8 2q-12 0 -21.5 -8.5t-17.5 -18.5q-9 -12 -15 -27q-7 -15 -14 -35q-6 -17 -13 -43t-12 -61q0 -4 2 -4q37 8 72 8q8 0 14 -3q5 -2 10 -8t5 -17q0 -7 -1 -11
q-3 -13 -8.5 -19.5t-10.5 -9.5q-6 -4 -14 -4q-23 0 -41.5 -3t-36.5 -7l-3 -2v-2q-3 -28 -5 -58t-2 -63q0 -74 12 -158q1 -5 1 -9v-7q0 -9 -4.5 -15.5t-11.5 -10.5t-14 -5.5t-11 -1.5q-8 0 -14 2q-3 1 -5 3q-11 3 -16.5 27.5t-7.5 57t-2.5 64.5t-0.5 50q0 51 3 96q0 3 -2 3
h-2q-6 -2 -10.5 -4t-7.5 -4l-6 -3q-8 -4 -15 -4q-11 0 -14.5 9t-3.5 15q0 11 4 20t9 15q6 7 14 13q4 2 10 6q5 2 12.5 5.5l16.5 7.5q2 0 2 1t1 2q0 1 1 2q8 73 24 122.5t32 79.5q18 35 40 56q12 11 26 20q12 8 28 14.5t33 6.5q29 0 45 -17t16 -43z" />
    <glyph glyph-name="summation" unicode="&#x2211;" horiz-adv-x="441" 
d="M417 306q0 -23 -3 -57t-11 -72.5t-22 -76.5t-37 -69t-55.5 -50t-76.5 -19q-32 0 -56.5 13t-42.5 34t-30.5 48t-20.5 55q-18 66 -21 150q0 43 4 96.5t14.5 100.5t30 79t51.5 32q25 0 36.5 -12t11.5 -29q0 -3 -0.5 -5t-0.5 -4q-1 -2 -1 -3q-17 -48 -27 -94t-15 -83.5
t-6 -62.5t-1 -30q0 -69 12.5 -107t28.5 -56t31.5 -21.5t20.5 -3.5q28 0 45.5 24.5t27 60.5t12.5 77t3 73q0 21 -1 38.5t-2 31.5q-1 15 -2 28q2 20 16.5 30.5t31.5 10.5q20 0 31 -12.5t16.5 -31.5t6.5 -41.5t1 -41.5z" />
    <glyph glyph-name="product" unicode="&#x220f;" horiz-adv-x="234" 
d="M225 649q0 -21 -8.5 -37t-21.5 -27t-27 -16.5t-24 -5.5q-22 0 -34 12.5t-12 32.5q0 16 7 31.5t18.5 27.5t26 19.5t29.5 7.5q22 0 34 -12.5t12 -32.5zM198 466q0 -2 -6.5 -38t-14 -96.5t-13.5 -140.5t-6 -170q0 -13 -5 -20t-11 -10q-7 -4 -16 -4q-21 0 -32.5 6t-17.5 14
q-7 9 -8 19q-5 33 -6.5 66t-1.5 65q0 57 4.5 107.5t9.5 88.5q6 44 15 81q3 11 13 22q8 9 24.5 17.5t44.5 13.5q7 0 17 -3.5t10 -17.5z" />
    <glyph glyph-name="pi" unicode="&#x3c0;" horiz-adv-x="458" 
d="M406 313q0 -13 -8.5 -22t-18.5 -16q-11 -8 -26 -13q-2 -1 -5 -4q-1 -2 -2 -3q-6 -26 -8 -50.5t-2 -47.5q0 -37 4.5 -66.5t10.5 -50.5q6 -25 15 -44q4 -8 5 -12.5t1 -7.5q0 -12 -12.5 -21t-29.5 -9q-13 0 -21.5 5.5t-13.5 13.5q-6 8 -11 19q-9 20 -12 57.5t-3 78.5
q0 23 0.5 44.5t1.5 38.5l2 37q0 2 -3 5q-2 1 -3 1q-16 -5 -35 -7q-11 -2 -21 -2q-3 0 -5 -4q-1 -2 -1 -3q-2 -85 -11 -141t-20 -90q-12 -40 -27 -63q-15 -21 -29.5 -27.5t-25.5 -6.5q-32 0 -32 26q0 8 2.5 15t5.5 14l9 15q20 35 31 79.5t16 82.5q6 45 8 91q0 1 -3 4
q-2 1 -3 1q-26 1 -38.5 12.5t-12.5 26.5q0 8 3 14.5t8 11.5q5 6 12 11q1 0 3 1q4 2 9 2q2 0 10 -2q5 -2 12 -3q12 -3 35 -3q21 0 50.5 6t70.5 16q15 6 30 10q13 4 27.5 7.5t26.5 3.5q9 0 21.5 -6t12.5 -25z" />
    <glyph glyph-name="integral" unicode="&#x222b;" horiz-adv-x="202" 
d="M356 396q-1 -17 -8.5 -20.5t-12.5 -3.5q-7 1 -12 1h-10q-18 0 -39 -3t-40 -7q-22 -4 -44 -10q-13 -4 -25 -7l-23 -6q-1 0 -2 -1q-3 -3 -3 -4q-4 -29 -7 -64q-3 -30 -5 -70t-2 -87q3 -42 9 -78q5 -31 13 -62t21 -46q8 -11 8 -20q0 -14 -13.5 -20.5t-21.5 -6.5q-16 0 -26 7
q-6 3 -10 7q-17 16 -27.5 42.5t-16.5 58t-8 66t-2 66.5q0 33 2 67.5t5 63.5q3 33 7 64q0 1 -1 2q-3 3 -4 3q-6 -1 -11 -1h-8h-6q-25 -1 -39 4t-21.5 12.5t-9.5 15t-2 12.5q0 2 1.5 7t6 10.5t12 9.5t20.5 4q9 0 12.5 -1t7.5 -2.5t12 -2.5t26 -1q13 0 14 5q6 36 11 60t10 38
q4 17 9 25q4 11 13 20q7 8 19 14.5t29 6.5q5 0 14.5 -3t9.5 -17q0 -5 -2 -13l-5 -17.5t-9 -24.5q-2 -8 -6 -19l-7 -24t-8 -33q0 -4 3 -4q8 0 17.5 3.5t19.5 6.5q20 7 38 11.5t31 6.5q15 3 28 3q25 0 38.5 -5t20 -11.5t8 -14t1.5 -13.5z" />
    <glyph glyph-name="ordfeminine" unicode="&#xaa;" horiz-adv-x="310" 
d="M276 265q0 -8 -4.5 -12.5t-9.5 -6.5q-6 -3 -14 -3q-13 0 -21.5 7.5t-14.5 16.5q-7 11 -11 24q-1 3 -3 3q-1 0 -1.5 -0.5t-1.5 -0.5l-1 -1q-22 -24 -43.5 -30.5t-32.5 -6.5q-21 0 -32.5 7t-17.5 17t-7.5 19t-1.5 14q0 29 18 51.5t41 39.5q26 19 60 34q2 1 4 3q4 4 4 6
q0 8 -12.5 10.5t-27.5 2.5q-7 0 -12 -0.5t-10 -0.5q-5 -1 -10 -1q-15 -1 -18.5 7.5t-3.5 13.5q0 2 1.5 6.5t7 9.5t16.5 9t29 4q13 0 31 -3t34.5 -9.5t28 -17t11.5 -25.5q0 -17 -20.5 -31t-45.5 -28.5t-45.5 -31.5t-20.5 -41q0 -2 2 -8.5t13 -6.5q7 0 15.5 4t16.5 11
t13.5 15.5t5.5 17.5q-1 0 -1 1v4q0 10 10 22.5t25 12.5q5 0 8.5 -2t3.5 -9q2 -19 6 -37q4 -15 10 -31t16 -24l6 -8q2 -4 4.5 -8t2.5 -9z" />
    <glyph glyph-name="ordmasculine" unicode="&#xba;" horiz-adv-x="293" 
d="M255 407q0 -10 -4.5 -36t-17 -53t-36 -48t-62.5 -21q-12 0 -27 6t-27.5 20t-21.5 36t-9 54q0 18 3.5 34.5t7.5 28.5t7.5 19t3.5 8l-2 2q-1 0 -2 1q-3 0 -9.5 -3t-11.5 -3q-4 0 -7.5 2t-3.5 10q0 10 7.5 21.5t22 21t34.5 15.5t45 6q22 0 42 -7.5t35 -23t24 -38t9 -52.5z
M207 397q-2 22 -8 40q-6 15 -17.5 27.5t-32.5 12.5q-11 0 -17.5 -2t-10.5 -4q-4 -3 -6 -6q-6 -10 -10 -22q-4 -11 -7 -25t-3 -30q0 -9 3 -24.5t9.5 -30.5t17 -25.5t25.5 -10.5q8 0 18 5t18.5 17t14.5 31t6 47z" />
    <glyph glyph-name="Omega" unicode="&#x2126;" horiz-adv-x="284" 
d="M281 32q0 -12 -6.5 -21.5t-17.5 -16.5t-25 -12t-28 -8q-34 -7 -77 -8q-38 0 -62 3q-14 1 -26 3q-22 5 -27 15t-5 20q0 17 11.5 38.5t29.5 43.5t38 44l38 40.5t29.5 32.5t11.5 21q0 5 -5 8.5t-12.5 5t-15 2t-12.5 0.5q-15 0 -23 -1t-13.5 -2l-11 -2t-14.5 -1
q-11 0 -17.5 3t-9.5 7.5t-4 9.5t-1 8q0 6 4 14.5t13.5 16t25.5 12.5t39 5q17 0 43.5 -3.5t52 -12t44 -21.5t18.5 -31q0 -8 -5 -19t-19 -23q-23 -21 -47 -47l-43.5 -50t-42.5 -59q-1 -1 -1 -2q-1 -1 -1 -5q0 -7 12 -8t23 -1q14 0 36.5 4t46.5 18q4 2 8 5q4 2 8.5 4t10.5 2
q11 0 16.5 -5t8.5 -11q4 -7 4 -16z" />
    <glyph glyph-name="ae" unicode="&#xe6;" horiz-adv-x="437" 
d="M432 249q0 -31 -13 -60.5t-34.5 -52.5t-49.5 -37t-59 -14q-2 0 -4 -2q-1 -1 -1 -2q2 -23 10.5 -36t17.5 -21q11 -9 24 -12q26 -7 31.5 -18.5t5.5 -19.5q0 -13 -6.5 -19.5t-14.5 -9.5q-9 -4 -20 -5q-24 0 -42 8t-31 19.5t-22 24.5t-14 24q-2 -1 -2.5 -2t-1.5 -2l-2 -2
q-33 -33 -63 -42.5t-46 -9.5q-29 0 -46 10.5t-25 24t-10 27t-2 19.5q0 20 7 38.5t19 35t27 30.5t31 26q37 27 85 49q3 1 6 3q6 4 6 9q0 11 -18 15t-39 4q-9 0 -17.5 -0.5t-14.5 -1.5q-8 -1 -14 -1q-11 -1 -17.5 2.5t-9.5 8.5t-4 10.5t-1 8.5t2 9.5t10 14t23.5 13t42.5 5.5
q12 0 28 -2t32.5 -5.5t32.5 -10t29 -15.5q17 20 42 32.5t57 12.5q10 0 23 -3t24.5 -12t19.5 -25t8 -41zM360 239q0 6 -2 10t-5 7.5t-9 3.5q-12 0 -25.5 -11t-25 -27.5t-18.5 -35t-7 -33.5q0 -5 4 -5q7 0 21.5 5.5t29.5 16.5t26 28t11 41zM202 161q-4 -3 -8 -4
q-28 -16 -49 -34q-18 -15 -33 -33.5t-15 -38.5q0 -4 3.5 -13t17.5 -9q8 0 18.5 4.5t21.5 12.5t20.5 18t14.5 21q0 10 2 30t7 46z" />
    <glyph glyph-name="oslash" unicode="&#xf8;" horiz-adv-x="313" 
d="M292 187q0 -49 -14 -85.5t-37 -61t-51.5 -37t-57.5 -12.5q-5 0 -9.5 0.5t-9.5 1.5l-4 -11.5l-4 -10.5q-6 -16 -9.5 -28t-7 -20t-9 -12t-14.5 -4q-10 0 -14.5 8t-4.5 18q0 9 7 29l18 49q-16 13 -24.5 31t-12.5 34q-5 18 -6 38q0 23 5 43.5t12 37.5q8 19 18 36q0 1 -3 4
q-1 1 -2 1q-16 0 -25 6.5t-9 16.5q0 13 10.5 26t28 22.5t39 15.5t42.5 6q13 0 30 -2.5t34 -10.5l18 37.5t14 29.5l13 26q2 3 5 6q6 6 12 6q10 -1 14 -8t4 -18q0 -12 -10.5 -39t-27.5 -64q18 -17 30 -42t12 -63zM176 249q-10 4 -18 4q-6 0 -14.5 -7.5t-16 -21t-13 -34.5
t-5.5 -48v-15.5t2 -20.5l32.5 71.5zM211 166q0 5 -1 10t-1.5 11t-2.5 14l-32.5 -69.5l-31.5 -70.5q4 -2 14 -2q20 0 31 16.5t16 36.5q6 24 8 54z" />
    <glyph glyph-name="questiondown" unicode="&#xbf;" 
d="M361 351q0 -9 -4 -20.5t-11.5 -21.5t-19 -16.5t-26.5 -6.5q-16 0 -29 10t-13 36q0 14 7.5 25t17.5 18.5t21 11.5t19 4q23 0 30.5 -12.5t7.5 -27.5zM426 -86q0 -16 -9.5 -33.5t-28 -32.5t-46 -25t-64.5 -10q-23 0 -52.5 6.5t-56 21t-44.5 38.5t-18 59q0 27 11.5 48.5
t29.5 40t38 36t38 36t29.5 39.5t11.5 47q0 6 -1.5 14.5t0 16t6.5 13t19 5.5q16 0 26 -8.5t16 -19t8 -21.5t2 -15q0 -36 -22.5 -65t-49.5 -54t-49.5 -48t-22.5 -47q0 -39 26 -57.5t57 -18.5q36 0 50.5 13.5t14.5 31.5q0 11 -3.5 19t-7 14.5l-7 13t-3.5 14.5q0 12 11 16.5
t18 4.5q19 0 33 -10.5t23 -25t13 -30.5t4 -27z" />
    <glyph glyph-name="exclamdown" unicode="&#xa1;" horiz-adv-x="219" 
d="M172 357q0 -9 -4 -19.5t-12 -19.5t-20 -15.5t-27 -6.5q-16 0 -27 9.5t-11 31.5q0 15 7.5 26t17.5 18.5t21 11t18 3.5q4 0 10 -1t12 -5t10.5 -12t4.5 -21zM143 199q0 -2 -2 -28.5l-5 -66.5t-5 -86.5t-2 -86.5q0 -29 1.5 -52.5t5.5 -36.5q1 -3 1 -8q0 -9 -6 -14t-13 -7
q-8 -3 -18 -3q-20 0 -32.5 7.5t-19.5 29.5q-3 9 -4.5 23t-2.5 27q-1 15 -1 32q0 45 4.5 93t10.5 90q7 48 16 94q1 7 5 12q3 5 9 8.5t17 3.5t20 -4q8 -3 14.5 -9.5t6.5 -17.5z" />
    <glyph glyph-name="florin" unicode="&#x192;" horiz-adv-x="356" 
d="M382 521q0 -20 -6.5 -39t-16.5 -33t-22 -22.5t-23 -8.5q-8 0 -11 4t-3 8q0 8 3 19t3 31q0 28 -7.5 34.5t-11.5 6.5q-25 0 -50 -45t-45 -140v-2q0 -1 3 -1q14 2 30.5 3.5t39.5 1.5q8 0 14 -3q5 -2 9.5 -8t4.5 -16q0 -20 -10.5 -32t-23.5 -12q-23 0 -41.5 -2.5t-35.5 -5.5
q-2 -1 -2.5 -2t-1.5 -2t-1 -2q-5 -34 -8 -75.5t-3 -82.5q0 -31 -4.5 -70.5t-14 -80t-23.5 -79.5t-34 -69.5t-45 -49t-56 -18.5q-14 0 -21 4.5t-11 9.5q-4 6 -5 14q0 8 6 16q3 4 7 6q15 11 28.5 25t23.5 28l22 32q18 33 29 69.5t16.5 73t7.5 72t2 67.5q0 26 1.5 43.5
l3.5 39.5v2q0 2 -3 2q-1 0 -6 -2t-11 -5t-12.5 -5t-10.5 -2q-11 0 -15 11q-2 5 -2 12q0 12 4 21t9 15q6 7 14 12q5 2 11 6q5 3 12.5 6t16.5 7q2 0 2 1t1 2q0 1 1 2q12 76 36 131.5t53 91t59 52.5t55 17q10 0 22.5 -3.5t22.5 -13t17 -26t7 -41.5z" />
    <glyph glyph-name="guillemotleft" unicode="&#xab;" horiz-adv-x="523" 
d="M497 302q0 -7 -4 -15t-15 -15q-44 -26 -77 -50q-15 -10 -28.5 -21l-24.5 -20.5t-18 -18t-7 -14.5q1 -13 15 -34q12 -18 39.5 -46t79.5 -67l6 -8q2 -4 4.5 -8t2.5 -9q0 -8 -7 -16t-20 -8q-10 0 -26 6t-40 25q-39 31 -69 61q-26 26 -47.5 53.5t-21.5 48.5q0 12 9 25.5
t24 28.5t34 30t39 29q47 33 106 65q2 1 6 2q3 1 6 1.5t8 0.5q6 0 12 -2.5t10 -7.5q1 -2 2 -5q2 -6 2 -11zM294 314q0 -8 -6 -17t-24 -17q-39 -25 -71 -48q-27 -20 -49.5 -40t-24.5 -31v-2q0 -3 3.5 -13t17.5 -29t41 -49t75 -73q4 -3 8 -7q3 -4 6 -9t3 -10q0 -11 -9.5 -18.5
t-20.5 -7.5q-8 0 -14 2.5t-11 5.5q-6 4 -11 9q-58 49 -92.5 83.5t-52.5 58t-23 36.5t-5 19q0 16 15.5 35.5t39 39t50.5 38t50 32.5l38 23t14 9q3 1 7 2q3 1 7 2t9 1q11 0 20.5 -5t9.5 -20z" />
    <glyph glyph-name="guillemotright" unicode="&#xbb;" horiz-adv-x="523" 
d="M498 157q0 -6 -5 -19t-23 -36.5t-52.5 -58t-92.5 -83.5q-5 -5 -11 -9q-5 -3 -11.5 -5.5t-13.5 -2.5q-11 0 -20.5 7.5t-9.5 18.5q0 5 2.5 10t5.5 9q4 4 9 7q48 43 75 73t41 49t17.5 29t3.5 13v2q-1 6 -7.5 14t-17 17.5t-23.5 19.5l-26 20q-32 23 -71 48q-18 8 -24 17
t-6 17q0 15 9.5 20t20.5 5q5 0 9 -1t7 -2q4 -1 7 -2q-1 0 14 -9l38 -23t50 -32.5t50.5 -38t39 -39t15.5 -35.5zM293 146q0 -11 -6 -23t-16 -25.5t-22 -27t-25 -26.5q-31 -30 -69 -61q-24 -19 -40 -25t-26 -6q-13 0 -20 8t-7 16q0 5 2 9l4 8q3 4 7 8q52 39 79.5 67t39.5 46
q14 21 15 34q-1 11 -25 32.5t-53 41.5q-34 24 -77 50q-11 7 -15 15t-4 15q0 5 2 11q1 3 2 5q4 5 10 7.5t12 2.5t14 -2q4 -1 6 -2q59 -32 106 -65q20 -14 39 -29t34 -30t24 -28.5t9 -25.5z" />
    <glyph glyph-name="ellipsis" unicode="&#x2026;" horiz-adv-x="555" 
d="M474 64q0 -15 -5.5 -26t-13 -18t-17 -10t-16.5 -3q-19 0 -27 11t-8 25q0 9 2.5 19t8.5 18.5t16 13.5t24 5q4 0 10 -1t12 -4.5t10 -10.5t4 -19zM321 83q0 -15 -5.5 -26t-13 -18t-17 -10t-16.5 -3q-19 0 -27 11t-8 25q0 9 2.5 19t8.5 18.5t16 13.5t24 5q4 0 10 -1t12 -4.5
t10 -10.5t4 -19zM170 64q0 -15 -5.5 -26t-13 -18t-17 -10t-16.5 -3q-19 0 -27 11t-8 25q0 9 2.5 19t8.5 18.5t16 13.5t24 5q4 0 10 -1t12 -4.5t10 -10.5t4 -19z" />
    <glyph glyph-name="Agrave" unicode="&#xc0;" horiz-adv-x="496" 
d="M347 611q0 -8 -4 -9t-8 -1q-7 0 -18 4t-26 18q-17 14 -32 25q-13 10 -26 18.5t-21 10.5q-4 2 -7 5q-6 6 -6 15q0 1 1.5 7.5t7 13.5t17 12.5t31.5 5.5q12 0 27.5 -15t30 -35t24 -41t9.5 -34zM480 43q0 -16 -8 -24t-18 -12q-11 -4 -25 -5q-29 0 -47.5 25.5t-29.5 56.5
q-13 36 -20 82q0 5 -3 6t-6 1q-37 -3 -66.5 -9.5t-49.5 -12.5q-24 -7 -42 -15q-8 -5 -11 -11q-2 -4 -3 -7q-12 -44 -17.5 -70t-8 -41.5l-4 -25.5t-5.5 -22q-5 -15 -14 -22.5t-19 -11t-18 -4t-12 -0.5q-11 0 -17 6t-9 14.5t-3.5 16.5t-0.5 12q0 20 4 44t9 45q6 25 14 50
q0 5 -2 7q-1 1 -2 1q-16 6 -21 16.5t-5 15.5q4 21 15 33t22 19q13 7 28 10q4 1 8 5q1 2 2 3q9 23 24 56.5t33.5 70.5t40 74t43.5 66.5t42.5 48t38.5 18.5q11 0 12.5 -3t9.5 -3q3 0 6.5 4t9 8.5t14 9t20.5 4.5q9 1 19.5 -5.5t10.5 -35.5q0 -12 -1 -21t-1.5 -22t-1.5 -32.5
t-1 -52.5q0 -38 2 -82.5t8.5 -89.5t17.5 -86t29 -71q9 -20 9 -32zM327 275q-1 23 -1.5 52t-0.5 55v60q0 2 -1 4q-2 4 -4 4q-12 -3 -25 -18t-25.5 -36.5t-24 -45.5t-20 -44.5l-14 -34.5t-5.5 -15q0 -10 4 -10l10.5 2.5t26.5 5.5t35 6t37 4q2 0 4 2q4 4 4 9z" />
    <glyph glyph-name="Atilde" unicode="&#xc3;" horiz-adv-x="496" 
d="M377 661q0 -26 -17.5 -40.5t-37.5 -21.5q-25 -9 -55 -10q-41 2 -64.5 15t-23.5 42q0 26 11 37.5t34 11.5q10 0 18 -4t15.5 -8.5t17 -8t22.5 -3.5q17 0 37 8q3 1 7 2q3 1 6.5 2t8.5 1q8 0 12 -3.5t6 -8.5q3 -5 3 -11zM480 43q0 -16 -8 -24t-18 -12q-11 -4 -25 -5
q-29 0 -47.5 25.5t-29.5 56.5q-13 36 -20 82q0 5 -3 6t-6 1q-37 -3 -66.5 -9.5t-49.5 -12.5q-24 -7 -42 -15q-8 -5 -11 -11q-2 -4 -3 -7q-12 -44 -17.5 -70t-8 -41.5l-4 -25.5t-5.5 -22q-5 -15 -14 -22.5t-19 -11t-18 -4t-12 -0.5q-11 0 -17 6t-9 14.5t-3.5 16.5t-0.5 12
q0 20 4 44t9 45q6 25 14 50q0 5 -2 7q-1 1 -2 1q-16 6 -21 16.5t-5 15.5q4 21 15 33t22 19q13 7 28 10q4 1 8 5q1 2 2 3q9 23 24 56.5t33.5 70.5t40 74t43.5 66.5t42.5 48t38.5 18.5q11 0 12.5 -3t9.5 -3q3 0 6.5 4t9 8.5t14 9t20.5 4.5q9 1 19.5 -5.5t10.5 -35.5
q0 -12 -1 -21t-1.5 -22t-1.5 -32.5t-1 -52.5q0 -38 2 -82.5t8.5 -89.5t17.5 -86t29 -71q9 -20 9 -32zM327 275q-1 23 -1.5 52t-0.5 55v60q0 2 -1 4q-2 4 -4 4q-12 -3 -25 -18t-25.5 -36.5t-24 -45.5t-20 -44.5l-14 -34.5t-5.5 -15q0 -10 4 -10l10.5 2.5t26.5 5.5t35 6t37 4
q2 0 4 2q4 4 4 9z" />
    <glyph glyph-name="Otilde" unicode="&#xd5;" horiz-adv-x="475" 
d="M318 659q0 -26 -17.5 -40.5t-37.5 -21.5q-25 -9 -55 -10q-41 2 -64.5 15t-23.5 42q0 26 11 37.5t34 11.5q10 0 18 -4t15.5 -8.5t17 -8t22.5 -3.5q17 0 37 8q3 1 7 2q3 1 6.5 2t8.5 1q8 0 12 -3.5t6 -8.5q3 -5 3 -11zM461 293q0 -13 -3.5 -42t-13 -64.5t-26.5 -74
t-44.5 -70t-66 -51.5t-90.5 -20q-25 0 -55.5 12.5t-57 40.5t-44.5 73t-18 110q0 38 7 70.5t15 57t15 39t7 16.5q0 1 -3 4q-2 1 -3 2q-7 0 -20 -6t-24 -6q-8 0 -15 4.5t-7 20.5q0 20 15.5 43t44.5 42.5t69.5 32.5t91.5 13q45 0 85.5 -15.5t72 -46.5t50 -77.5t18.5 -107.5z
M362 271q-3 46 -16 82q-6 15 -14.5 30t-21 26.5t-29.5 18.5t-38 7t-34.5 -4t-21.5 -9q-9 -5 -13 -12q-11 -20 -20 -45q-8 -21 -14 -49.5t-6 -61.5q0 -19 5.5 -50.5t18.5 -62t34.5 -52.5t52.5 -22q16 0 36.5 11t38.5 35t30 63t12 95z" />
    <glyph glyph-name="OE" unicode="&#x152;" horiz-adv-x="739" 
d="M746 285q0 -23 -17.5 -36.5t-38.5 -21.5q-25 -9 -56 -12q-36 -4 -66.5 -8.5t-52.5 -9.5q-26 -5 -46 -10q-3 -1 -4 -3t-1 -4q0 -7 6 -25.5t20 -38t37.5 -35t58.5 -15.5q11 0 23.5 2.5l26.5 5.5q7 2 14 5q6 2 13 3.5t15 1.5q13 0 19.5 -6t6.5 -22q0 -15 -8.5 -29.5
t-25.5 -26t-42 -18.5t-58 -7q-36 0 -64.5 8t-50.5 21t-37.5 29.5t-25.5 33.5q-28 -41 -70 -68.5t-105 -27.5q-25 0 -55.5 12.5t-57 40.5t-44.5 73t-18 110q0 38 7 70.5t15 57t15 39t7 16.5q0 1 -3 4q-2 1 -3 2q-7 0 -20 -6t-24 -6q-8 0 -15 4.5t-7 20.5q0 20 15.5 43
t44.5 42.5t69.5 32.5t91.5 13q56 0 105 -24.5t81 -73.5q31 42 76.5 72t111.5 30q7 0 20.5 -1t26 -5.5t22 -14t9.5 -25.5q0 -31 -21.5 -40t-59.5 -9q-33 0 -58 -13t-43 -33t-29 -44t-16 -46q1 -5 1 -10v-10v-5.5t-1 -6.5q1 -1 4 -1q51 8 110.5 14.5t115.5 6.5q9 0 18.5 -0.5
t18 -2t14 -4.5t5.5 -9zM362 271q-3 46 -16 82q-6 15 -14.5 30t-21 26.5t-29.5 18.5t-38 7t-34.5 -4t-21.5 -9q-9 -5 -13 -12q-11 -20 -20 -45q-8 -21 -14 -49.5t-6 -61.5q0 -19 5.5 -50.5t18.5 -62t34.5 -52.5t52.5 -22q22 0 50 20t47 68l-28 -9t-26 -5q-11 0 -16.5 3.5
t-7.5 8.5q-3 5 -3 13q0 5 2 17.5t10 26.5t25.5 27.5t48.5 19.5q1 0 4 1q3 0 11 2v11z" />
    <glyph glyph-name="oe" unicode="&#x153;" horiz-adv-x="457" 
d="M452 252q0 -31 -13 -60.5t-34.5 -52.5t-49.5 -37t-59 -14q-2 0 -4 -2q-1 -1 -1 -2q2 -23 10.5 -36t17.5 -21q11 -9 24 -12q26 -7 31.5 -18.5t5.5 -19.5q0 -13 -6.5 -19.5t-14.5 -9.5q-9 -4 -20 -5q-26 0 -45 9t-32.5 22.5t-22 27.5t-12.5 25q-21 -18 -45.5 -27t-49.5 -9
q-39 0 -60 19t-31 42q-11 27 -13 62q0 23 5 43.5t12 37.5q8 19 18 36q0 1 -3 4q-1 1 -2 1q-16 0 -25 6.5t-9 16.5q0 13 10.5 26t28 22.5t39 15.5t42.5 6q12 0 28.5 -2.5t34 -9t33.5 -17.5t28 -29q20 25 46.5 43.5t62.5 18.5q10 0 23 -3t24.5 -12t19.5 -25t8 -41zM380 242
q0 6 -2 10t-5 7.5t-9 3.5q-13 0 -26 -10.5t-24 -26.5t-18 -34.5t-7 -34.5v-6q8 0 23 5.5t30 16.5t26.5 28t11.5 41zM211 166q-1 25 -7 44q-5 17 -15.5 30t-30.5 13q-6 0 -14.5 -7t-16 -21t-13 -35t-5.5 -48q0 -8 0.5 -21.5t5 -27.5t14 -24t27.5 -10q20 0 31 16.5t16 36.5
q6 24 8 54z" />
    <glyph glyph-name="endash" unicode="&#x2013;" horiz-adv-x="279" 
d="M265 240q0 -19 -17.5 -23.5t-38.5 -4.5h-35q-23 0 -48.5 -4.5t-46.5 -9.5q-25 -6 -49 -13q-5 2 -11 7t-8 19q0 13 9 21.5t21 13t24 7t18 4.5q16 4 34 8q16 3 36 6t43 3q11 0 23.5 -1t23.5 -3q17 -4 19.5 -13.5t2.5 -16.5z" />
    <glyph glyph-name="emdash" unicode="&#x2014;" horiz-adv-x="550" 
d="M529 240q0 -9 -10 -14.5t-25.5 -8.5t-35.5 -4t-41 -1h-71q-46 0 -96 -4.5t-92 -9.5q-49 -6 -98 -13q-11 2 -23.5 7t-15.5 19q0 13 18 21.5t42 13.5t48.5 7.5t36.5 3.5q31 4 67 8q31 3 71.5 6t86.5 3q23 0 47 -1t47 -3q16 -2 25 -5.5t13.5 -8t5 -9t0.5 -7.5z" />
    <glyph glyph-name="quotedblleft" unicode="&#x201c;" horiz-adv-x="307" 
d="M251 492v-6.5t-1 -7.5q-1 -7 -2 -16q-1 -8 -1.5 -17t-0.5 -19v-17t1 -14q0 -7 1 -13q1 -4 1.5 -7t0.5 -6q0 -21 -12.5 -29t-18.5 -8q-18 0 -27.5 16.5t-14 36t-5 36.5t-0.5 19q0 10 1.5 24t6.5 26.5t14.5 22.5t25.5 12q7 0 19 -5.5t12 -27.5zM122 345q0 -10 -3.5 -16
t-8.5 -9.5t-10 -5t-7 -1.5q-16 0 -25.5 10.5t-14.5 25.5t-6.5 32.5t-1.5 32.5v22q0 4 1 9q1 15 6 26q5 10 13 18.5t23 9.5q8 1 18 -6t10 -39v-29q0 -15 1 -33.5t4 -37.5q1 -3 1 -9z" />
    <glyph glyph-name="quotedblright" unicode="&#x201d;" horiz-adv-x="334" 
d="M296 414q0 -15 -1.5 -32.5t-6.5 -32.5t-14.5 -25.5t-25.5 -10.5q-2 0 -7 1.5t-10 5t-8.5 9.5t-3.5 16q0 6 1 9q3 19 4 37.5t1 33.5v29q0 32 10 39t18 6q14 -1 22.5 -9.5t13.5 -18.5q5 -11 6 -26v-9q0 -5 0.5 -10t0.5 -12zM169 440q0 -2 -0.5 -19t-5 -36.5t-14 -36
t-27.5 -16.5q-6 0 -18.5 8t-12.5 29q0 3 0.5 6t1.5 7q0 6 1 13q0 6 0.5 14t0.5 17q0 10 -0.5 19t-1.5 17q-1 9 -2 16q-1 4 -1 7.5v6.5q0 22 12 27.5t19 5.5q16 -2 25.5 -12t14.5 -22.5t6.5 -26.5t1.5 -24z" />
    <glyph glyph-name="quoteleft" unicode="&#x2018;" horiz-adv-x="167" 
d="M122 345q0 -10 -3.5 -16t-8.5 -9.5t-10 -5t-7 -1.5q-16 0 -25.5 10.5t-14.5 25.5t-6.5 32.5t-1.5 32.5v22q0 4 1 9q1 15 6 26q5 10 13 18.5t23 9.5q8 1 18 -6t10 -39v-29q0 -15 1 -33.5t4 -37.5q1 -3 1 -9z" />
    <glyph glyph-name="quoteright" unicode="&#x2019;" horiz-adv-x="177" 
d="M139 414q0 -15 -1.5 -32.5t-6.5 -32.5t-14.5 -25.5t-25.5 -10.5q-2 0 -7 1.5t-10 5t-8.5 9.5t-3.5 16q0 6 1 9q3 19 4 37.5t1 33.5v29q0 32 10 39t18 6q14 -1 22.5 -9.5t13.5 -18.5q5 -11 6 -26v-9q0 -5 0.5 -10t0.5 -12z" />
    <glyph glyph-name="divide" unicode="&#xf7;" horiz-adv-x="444" 
d="M284 371q0 -18 -11.5 -33.5t-34.5 -15.5q-12 0 -21.5 7t-10.5 24q1 13 6 24q5 9 14 17t26 8t24.5 -9.5t7.5 -21.5zM399 251q0 -9 -7 -14.5t-18 -8.5t-25 -4t-29 -1h-49q-32 0 -67 -4.5t-64 -9.5q-34 -6 -67 -13q-8 2 -16.5 7t-11.5 19q0 13 12.5 21.5t29.5 13t34 7
t25 4.5q21 4 47 8q22 3 50 6t60 3q16 0 32 -1t33 -3q23 -4 27 -13.5t4 -16.5zM270 145q0 -18 -11.5 -33.5t-34.5 -15.5q-12 0 -21.5 7t-10.5 24q1 13 6 24q5 9 14 17t26 8t24.5 -9.5t7.5 -21.5z" />
    <glyph glyph-name="ydieresis" unicode="&#xff;" horiz-adv-x="332" 
d="M277 421q0 -17 -10.5 -33t-33.5 -16q-13 0 -23 7t-10 24q2 13 7 24q5 9 13.5 17t24.5 8t24 -9.5t8 -21.5zM132 426q0 -17 -10.5 -33t-33.5 -16q-13 0 -23 7t-10 24q2 13 7 24q5 9 13.5 17t24.5 8t24 -9.5t8 -21.5zM303 236q0 -15 -2.5 -32l-6 -41t-6 -57.5t-2.5 -80.5
q0 -94 -19.5 -166t-47.5 -121t-60 -74t-57 -25q-8 0 -12 2.5t-6 6.5q-3 4 -3 10q0 7 3.5 14.5t8.5 13.5q5 7 13 14q38 39 59.5 91t32.5 105t14 100.5t3 77.5q0 6 -2 6q-1 0 -3 -2l-1 -1q-20 -38 -39 -57.5t-35 -29.5q-18 -11 -35 -13q-26 0 -42 18.5t-26 46t-13.5 59
t-3.5 57.5q0 81 21.5 126.5t58.5 45.5q2 0 7 -0.5t9.5 -3t8 -8t3.5 -15.5q0 -11 -7 -26q-8 -18 -14 -39q-5 -18 -9.5 -42.5t-4.5 -51.5q0 -6 0.5 -19t3 -26.5t8 -23.5t15.5 -10q7 0 16.5 5.5t22.5 22.5t29 48t37 81q5 15 13 26q7 10 17.5 18.5t25.5 8.5q3 0 8 -1t9 -4.5
t7 -11.5t3 -22z" />
    <glyph glyph-name="Ydieresis" unicode="&#x178;" horiz-adv-x="411" 
d="M307 631q0 -17 -10.5 -33t-33.5 -16q-13 0 -23 7t-10 24q2 13 7 24q5 9 13.5 17t24.5 8t24 -9.5t8 -21.5zM162 636q0 -17 -10.5 -33t-33.5 -16q-13 0 -23 7t-10 24q2 13 7 24q5 9 13.5 17t24.5 8t24 -9.5t8 -21.5zM399 531q0 -3 -1 -22t-6 -52.5t-16 -80.5t-32 -107
q0 -2 1 -3t1 -2t2 -1q24 -6 31 -20q4 -7 4 -14q0 -27 -21.5 -43t-47.5 -16q-4 0 -7 -3q-2 -2 -2 -3q-15 -39 -39 -84t-55 -83.5t-68 -64t-78 -25.5q-18 0 -28 6.5t-15 14.5q-6 10 -7 22q0 12 3.5 20t8.5 13q5 6 13 10q34 5 58.5 19.5t40.5 30.5q18 18 31 40l23 40t19 42
q1 2 1 5q0 4 -4 4q-67 13 -108 41.5t-63 63.5t-29 72t-7 66q0 26 3 43q1 9 3 17q4 12 12 22q7 8 17 15.5t27 7.5q1 0 8.5 -0.5t15 -5t14 -13.5t6.5 -26q0 -8 -1 -12.5t-2 -10t-2 -14.5t-1 -26q0 -29 7.5 -54t24 -44t44 -31.5t68.5 -16.5q4 0 6 6q14 41 23.5 83t14.5 77
q6 40 9 78q0 15 17 33.5t48 18.5q12 0 23.5 -6t11.5 -27z" />
    <glyph glyph-name="fraction" unicode="&#x2044;" horiz-adv-x="459" 
d="M411 477q0 -8 -3 -16.5t-6 -14.5q-4 -8 -9 -14l-61.5 -90l-72.5 -104l-70 -101.5t-54 -82.5q-12 -19 -19.5 -32.5t-12.5 -23.5q-5 -11 -9 -19q-5 -14 -13.5 -18t-16.5 -4q-7 0 -9 1q-2 0 -4 1q-9 4 -12 10t-3 12q0 7 2 13q1 3 3 5q4 14 37.5 64l83 120.5l106.5 152.5
l107 160q1 2 4 4q2 2 5 3.5t6 1.5q6 0 13.5 -7.5t7.5 -20.5z" />
    <glyph glyph-name="guilsinglleft" unicode="&#x2039;" horiz-adv-x="329" 
d="M294 314q0 -8 -6 -17t-24 -17q-39 -25 -71 -48q-27 -20 -49.5 -40t-24.5 -31v-2q0 -3 3.5 -13t17.5 -29t41 -49t75 -73q4 -3 8 -7q3 -4 6 -9t3 -10q0 -11 -9.5 -18.5t-20.5 -7.5q-8 0 -14 2.5t-11 5.5q-6 4 -11 9q-58 49 -92.5 83.5t-52.5 58t-23 36.5t-5 19
q0 16 15.5 35.5t39 39t50.5 38t50 32.5l38 23t14 9q3 1 7 2q3 1 7 2t9 1q11 0 20.5 -5t9.5 -20z" />
    <glyph glyph-name="guilsinglright" unicode="&#x203a;" horiz-adv-x="331" 
d="M306 157q0 -6 -5 -19t-23 -36.5t-52.5 -58t-92.5 -83.5q-5 -5 -11 -9q-5 -3 -11.5 -5.5t-13.5 -2.5q-11 0 -20.5 7.5t-9.5 18.5q0 5 2.5 10t5.5 9q4 4 9 7q48 43 75 73t41 49t17.5 29t3.5 13v2q-1 6 -7.5 14t-17 17.5t-23.5 19.5l-26 20q-32 23 -71 48q-18 8 -24 17
t-6 17q0 15 9.5 20t20.5 5q5 0 9 -1t7 -2q4 -1 7 -2q-1 0 14 -9l38 -23t50 -32.5t50.5 -38t39 -39t15.5 -35.5z" />
    <glyph glyph-name="fi" unicode="&#xfb01;" horiz-adv-x="348" 
d="M338 430q0 -25 -11 -39t-24 -22q-16 -9 -35 -12q-20 0 -26 11t-6 24q0 15 7 28t17.5 22t23.5 14t24 5t20.5 -7t9.5 -24zM319 535q0 -8 -3.5 -18.5t-9 -20t-13 -16t-14.5 -6.5q-10 0 -13 5.5t-5 12.5t-6.5 12.5t-16.5 5.5q-14 0 -27.5 -19.5t-24.5 -49t-19.5 -64.5
t-12.5 -65q17 3 35 5.5t39 3.5q2 0 9.5 -1.5t12.5 -7.5q7 3 21 3q16 0 24.5 -4.5t12.5 -10.5t5 -11l1 -5q-5 -24 -9 -50q-4 -23 -6.5 -52t-2.5 -61q0 -24 2.5 -48.5t7.5 -47.5q1 -4 1.5 -6.5t0.5 -4.5q0 -7 -4 -11.5t-9.5 -7t-11.5 -3.5t-9 -1q-9 0 -17 4q-4 2 -6 4
q-17 20 -23.5 55.5t-6.5 76.5q0 32 3 64t6 56q-2 -1 -5 -1h-1q-38 -1 -79 -14q-2 -21 -3 -44t-1 -47q0 -44 4 -91.5t13 -99.5q2 -7 2 -11.5v-8.5q0 -9 -5 -14.5t-12 -9.5t-14 -5.5t-10 -1.5q-7 0 -13 2q-3 1 -5 3q-12 6 -18.5 29.5t-10 52.5t-4.5 57.5t-1 44.5v115
q-7 -3 -11.5 -5.5t-8.5 -4.5q-4 -3 -8 -4q-8 -4 -15 -4q-13 0 -15.5 9.5t-2.5 16.5q0 11 3 19.5t7 14.5q4 7 11 13q5 4 12 8q6 4 15 8l20 9q7 69 22 118t33.5 82.5t39 54t39.5 31t34 14t22 3.5q20 0 37.5 -12.5t17.5 -42.5z" />
    <glyph glyph-name="fl" unicode="&#xfb02;" horiz-adv-x="370" 
d="M364 523q0 -5 -1 -7q-13 -56 -23 -118q-9 -53 -16 -118t-7 -131q0 -44 4.5 -85t13.5 -77q1 -3 3 -7q1 -3 2 -7.5t1 -9.5q0 -16 -12 -24q-16 -10 -29 -10q-10 0 -17.5 4t-12.5 9q-6 6 -11 14q-12 38 -17 87t-5 103q0 29 1.5 58.5t3.5 58.5q-4 -5 -8 -7l-8 -4t-8 -2
q-20 -1 -41.5 -5t-41.5 -10q-1 -17 -1.5 -34.5t-0.5 -37.5q0 -47 4 -99.5t15 -109.5q1 -6 1.5 -10.5t0.5 -7.5q0 -9 -5 -15.5t-12 -10t-13.5 -5.5t-10.5 -2q-7 0 -13 2q-3 1 -5 3q-13 6 -20.5 34t-11 65.5t-4.5 77.5t-1 72v49l-26 -13q-8 -4 -15 -4q-13 0 -15 9t-2 16
q0 11 3.5 19.5t8.5 14.5q5 7 13 13q5 2 10 6q5 3 11.5 6t15.5 8q7 82 25 140.5t42.5 95.5t53.5 54t58 17q26 0 43 -14.5t17 -41.5v-5l12 6q5 2 12 4.5t15 2.5q7 0 15.5 -3t8.5 -14zM279 481q-10 -11 -18 -11q-9 0 -12.5 6t-6 12.5t-6.5 12.5t-13 6q-18 0 -30.5 -16.5
t-22 -44t-16.5 -63t-12 -73.5q38 10 79 11q3 0 11.5 -2t13.5 -10q5 39 10 72q5 29 10.5 57.5t12.5 42.5z" />
    <glyph glyph-name="periodcentered" unicode="&#xb7;" horiz-adv-x="251" 
d="M170 173q0 -15 -5.5 -26t-13 -18t-17 -10t-16.5 -3q-19 0 -27 11t-8 25q0 9 2.5 19t8.5 18.5t16 13.5t24 5q4 0 10 -1t12 -4.5t10 -10.5t4 -19z" />
    <glyph glyph-name="quotesinglbase" unicode="&#x201a;" horiz-adv-x="177" 
d="M139 -11q0 -15 -1.5 -32.5t-6.5 -32.5t-14.5 -25.5t-25.5 -10.5q-2 0 -7 1.5t-10 5t-8.5 9.5t-3.5 16q0 6 1 9q3 19 4 37.5t1 33.5v29q0 32 10 39t18 6q14 -1 22.5 -9.5t13.5 -18.5q5 -11 6 -26v-9q0 -5 0.5 -10t0.5 -12z" />
    <glyph glyph-name="quotedblbase" unicode="&#x201e;" horiz-adv-x="334" 
d="M296 -11q0 -15 -1.5 -32.5t-6.5 -32.5t-14.5 -25.5t-25.5 -10.5q-2 0 -7 1.5t-10 5t-8.5 9.5t-3.5 16q0 6 1 9q3 19 4 37.5t1 33.5v29q0 32 10 39t18 6q14 -1 22.5 -9.5t13.5 -18.5q5 -11 6 -26v-9q0 -5 0.5 -10t0.5 -12zM169 15q0 -2 -0.5 -19t-5 -36.5t-14 -36
t-27.5 -16.5q-6 0 -18.5 8t-12.5 29q0 3 0.5 6t1.5 7q0 6 1 13q0 6 0.5 14t0.5 17q0 10 -0.5 19t-1.5 17q-1 9 -2 16q-1 4 -1 7.5v6.5q0 22 12 27.5t19 5.5q16 -2 25.5 -12t14.5 -22.5t6.5 -26.5t1.5 -24z" />
    <glyph glyph-name="perthousand" unicode="&#x2030;" horiz-adv-x="667" 
d="M623 121q0 -38 -11.5 -62t-27 -37t-31.5 -17.5t-24 -4.5q-27 0 -42 12.5t-22 27.5q-8 18 -9 40q0 16 4.5 40t16.5 46t31.5 37.5t49.5 15.5q28 0 46.5 -27.5t18.5 -70.5zM213 397q0 -38 -11.5 -62t-27 -37t-31.5 -17.5t-24 -4.5q-27 0 -42 12.5t-22 27.5q-8 18 -9 40
q0 16 4.5 40t16.5 46t31.5 37.5t49.5 15.5q28 0 46.5 -27.5t18.5 -70.5zM411 477q0 -8 -3 -16.5t-6 -14.5q-4 -8 -9 -14l-61.5 -90l-72.5 -104l-70 -101.5t-54 -82.5q-12 -19 -19.5 -32.5t-12.5 -23.5q-5 -11 -9 -19q-5 -14 -13.5 -18t-16.5 -4q-7 0 -9 1q-2 0 -4 1
q-9 4 -12 10t-3 12q0 7 2 13q1 3 3 5q4 14 37.5 64l83 120.5l106.5 152.5l107 160q1 2 4 4q2 2 5 3.5t6 1.5q6 0 13.5 -7.5t7.5 -20.5zM424 121q0 -38 -11.5 -62t-27 -37t-31.5 -17.5t-24 -4.5q-27 0 -42 12.5t-22 27.5q-8 18 -9 40q0 16 4.5 40t16.5 46t31.5 37.5
t49.5 15.5q28 0 46.5 -27.5t18.5 -70.5zM572 122q0 15 -4 24t-9 13t-10 5t-6 1q-12 1 -23.5 -17t-11.5 -46q0 -3 0.5 -11.5t3 -16.5t7.5 -14.5t14 -6.5q10 1 19 9q8 7 14 20.5t6 39.5zM162 398q0 15 -4 24t-9 13t-10 5t-6 1q-12 1 -23.5 -17t-11.5 -46q0 -3 0.5 -11.5
t3 -16.5t7.5 -14.5t14 -6.5q10 1 19 9q8 7 14 20.5t6 39.5zM373 122q0 15 -4 24t-9 13t-10 5t-6 1q-12 1 -23.5 -17t-11.5 -46q0 -3 0.5 -11.5t3 -16.5t7.5 -14.5t14 -6.5q10 1 19 9q8 7 14 20.5t6 39.5z" />
    <glyph glyph-name="Acircumflex" unicode="&#xc2;" horiz-adv-x="496" 
d="M410 614q0 -8 -4 -9t-9 -1q-7 0 -18 4.5t-28 17.5q-7 6 -15 12l-15.5 11l-16.5 12q-28 -18 -49 -37t-44 -20q-5 -1 -7 1l-4 4q-2 3 -2 5q0 18 11.5 40t27.5 41t31.5 31.5t24.5 12.5h22q12 0 28.5 -15t31.5 -35t25 -41t10 -34zM480 43q0 -16 -8 -24t-18 -12q-11 -4 -25 -5
q-29 0 -47.5 25.5t-29.5 56.5q-13 36 -20 82q0 5 -3 6t-6 1q-37 -3 -66.5 -9.5t-49.5 -12.5q-24 -7 -42 -15q-8 -5 -11 -11q-2 -4 -3 -7q-12 -44 -17.5 -70t-8 -41.5l-4 -25.5t-5.5 -22q-5 -15 -14 -22.5t-19 -11t-18 -4t-12 -0.5q-11 0 -17 6t-9 14.5t-3.5 16.5t-0.5 12
q0 20 4 44t9 45q6 25 14 50q0 5 -2 7q-1 1 -2 1q-16 6 -21 16.5t-5 15.5q4 21 15 33t22 19q13 7 28 10q4 1 8 5q1 2 2 3q9 23 24 56.5t33.5 70.5t40 74t43.5 66.5t42.5 48t38.5 18.5q11 0 12.5 -3t9.5 -3q3 0 6.5 4t9 8.5t14 9t20.5 4.5q9 1 19.5 -5.5t10.5 -35.5
q0 -12 -1 -21t-1.5 -22t-1.5 -32.5t-1 -52.5q0 -38 2 -82.5t8.5 -89.5t17.5 -86t29 -71q9 -20 9 -32zM327 275q-1 23 -1.5 52t-0.5 55v60q0 2 -1 4q-2 4 -4 4q-12 -3 -25 -18t-25.5 -36.5t-24 -45.5t-20 -44.5l-14 -34.5t-5.5 -15q0 -10 4 -10l10.5 2.5t26.5 5.5t35 6t37 4
q2 0 4 2q4 4 4 9z" />
    <glyph glyph-name="Ecircumflex" unicode="&#xca;" horiz-adv-x="434" 
d="M340 583q0 -8 -4 -9t-9 -1q-7 0 -18 4.5t-28 17.5q-7 6 -15 12l-15.5 11l-16.5 12q-28 -18 -49 -37t-44 -20q-5 -1 -7 1l-4 4q-2 3 -2 5q0 18 11.5 40t27.5 41t31.5 31.5t24.5 12.5h22q12 0 28.5 -15t31.5 -35t25 -41t10 -34zM441 268q0 -23 -17.5 -36.5t-38.5 -21.5
q-25 -9 -56 -12q-36 -4 -66.5 -8.5t-52.5 -9.5q-26 -5 -46 -10q-3 -1 -4 -3t-1 -4q0 -7 6 -25.5t20 -38t37.5 -35t58.5 -15.5q11 0 23.5 2.5l26.5 5.5q7 2 14 5q6 2 13 3.5t15 1.5q13 0 19.5 -6t6.5 -22q0 -15 -8.5 -29.5t-25.5 -26t-42 -18.5t-58 -7q-35 0 -63 7.5t-49 20
t-36.5 28t-26.5 32.5q-26 39 -35 89l-2 2q-3 3 -5 3q-5 0 -13 -2.5l-17.5 -5.5t-19 -5.5t-15.5 -2.5q-11 0 -16.5 3.5t-7.5 8.5q-3 5 -3 13q0 5 2 17t10.5 26t25.5 27t48 21q2 0 4 1q4 2 4 8q0 15 6 41.5t18.5 57.5t32 62.5t48 57.5t65.5 42.5t84 16.5q7 0 20.5 -1t26 -5.5
t22 -14t9.5 -25.5q0 -31 -21.5 -40t-59.5 -9t-66 -17.5t-46 -42.5t-27.5 -53.5t-9.5 -50.5q0 -2 1 -3q2 -2 6 -2q51 8 110.5 14.5t115.5 6.5q9 0 18.5 -0.5t18 -2t14 -4.5t5.5 -9z" />
    <glyph glyph-name="Aacute" unicode="&#xc1;" horiz-adv-x="496" 
d="M372 694q0 -5 -2.5 -9t-4.5 -6q-3 -3 -6 -5q-20 -8 -36.5 -20.5l-31 -24.5t-28 -21t-27.5 -10q-9 -1 -11 5q-2 3 -1 5q0 18 11 40t26 41t30.5 31.5t23.5 12.5q6 0 15.5 -2t18.5 -6.5t16 -12t7 -18.5zM480 43q0 -16 -8 -24t-18 -12q-11 -4 -25 -5q-29 0 -47.5 25.5
t-29.5 56.5q-13 36 -20 82q0 5 -3 6t-6 1q-37 -3 -66.5 -9.5t-49.5 -12.5q-24 -7 -42 -15q-8 -5 -11 -11q-2 -4 -3 -7q-12 -44 -17.5 -70t-8 -41.5l-4 -25.5t-5.5 -22q-5 -15 -14 -22.5t-19 -11t-18 -4t-12 -0.5q-11 0 -17 6t-9 14.5t-3.5 16.5t-0.5 12q0 20 4 44t9 45
q6 25 14 50q0 5 -2 7q-1 1 -2 1q-16 6 -21 16.5t-5 15.5q4 21 15 33t22 19q13 7 28 10q4 1 8 5q1 2 2 3q9 23 24 56.5t33.5 70.5t40 74t43.5 66.5t42.5 48t38.5 18.5q11 0 12.5 -3t9.5 -3q3 0 6.5 4t9 8.5t14 9t20.5 4.5q9 1 19.5 -5.5t10.5 -35.5q0 -12 -1 -21t-1.5 -22
t-1.5 -32.5t-1 -52.5q0 -38 2 -82.5t8.5 -89.5t17.5 -86t29 -71q9 -20 9 -32zM327 275q-1 23 -1.5 52t-0.5 55v60q0 2 -1 4q-2 4 -4 4q-12 -3 -25 -18t-25.5 -36.5t-24 -45.5t-20 -44.5l-14 -34.5t-5.5 -15q0 -10 4 -10l10.5 2.5t26.5 5.5t35 6t37 4q2 0 4 2q4 4 4 9z" />
    <glyph glyph-name="Edieresis" unicode="&#xcb;" horiz-adv-x="434" 
d="M341 621q0 -17 -10.5 -33t-33.5 -16q-13 0 -23 7t-10 24q2 13 7 24q5 9 13.5 17t24.5 8t24 -9.5t8 -21.5zM196 626q0 -17 -10.5 -33t-33.5 -16q-13 0 -23 7t-10 24q2 13 7 24q5 9 13.5 17t24.5 8t24 -9.5t8 -21.5zM441 268q0 -23 -17.5 -36.5t-38.5 -21.5q-25 -9 -56 -12
q-36 -4 -66.5 -8.5t-52.5 -9.5q-26 -5 -46 -10q-3 -1 -4 -3t-1 -4q0 -7 6 -25.5t20 -38t37.5 -35t58.5 -15.5q11 0 23.5 2.5l26.5 5.5q7 2 14 5q6 2 13 3.5t15 1.5q13 0 19.5 -6t6.5 -22q0 -15 -8.5 -29.5t-25.5 -26t-42 -18.5t-58 -7q-35 0 -63 7.5t-49 20t-36.5 28
t-26.5 32.5q-26 39 -35 89l-2 2q-3 3 -5 3q-5 0 -13 -2.5l-17.5 -5.5t-19 -5.5t-15.5 -2.5q-11 0 -16.5 3.5t-7.5 8.5q-3 5 -3 13q0 5 2 17t10.5 26t25.5 27t48 21q2 0 4 1q4 2 4 8q0 15 6 41.5t18.5 57.5t32 62.5t48 57.5t65.5 42.5t84 16.5q7 0 20.5 -1t26 -5.5t22 -14
t9.5 -25.5q0 -31 -21.5 -40t-59.5 -9t-66 -17.5t-46 -42.5t-27.5 -53.5t-9.5 -50.5q0 -2 1 -3q2 -2 6 -2q51 8 110.5 14.5t115.5 6.5q9 0 18.5 -0.5t18 -2t14 -4.5t5.5 -9z" />
    <glyph glyph-name="Egrave" unicode="&#xc8;" horiz-adv-x="434" 
d="M291 583q0 -8 -4 -9t-8 -1q-7 0 -18 4t-26 18q-17 14 -32 25q-13 10 -26 18.5t-21 10.5q-4 2 -7 5q-6 6 -6 15q0 1 1.5 7.5t7 13.5t17 12.5t31.5 5.5q12 0 27.5 -15t30 -35t24 -41t9.5 -34zM441 268q0 -23 -17.5 -36.5t-38.5 -21.5q-25 -9 -56 -12q-36 -4 -66.5 -8.5
t-52.5 -9.5q-26 -5 -46 -10q-3 -1 -4 -3t-1 -4q0 -7 6 -25.5t20 -38t37.5 -35t58.5 -15.5q11 0 23.5 2.5l26.5 5.5q7 2 14 5q6 2 13 3.5t15 1.5q13 0 19.5 -6t6.5 -22q0 -15 -8.5 -29.5t-25.5 -26t-42 -18.5t-58 -7q-35 0 -63 7.5t-49 20t-36.5 28t-26.5 32.5q-26 39 -35 89
l-2 2q-3 3 -5 3q-5 0 -13 -2.5l-17.5 -5.5t-19 -5.5t-15.5 -2.5q-11 0 -16.5 3.5t-7.5 8.5q-3 5 -3 13q0 5 2 17t10.5 26t25.5 27t48 21q2 0 4 1q4 2 4 8q0 15 6 41.5t18.5 57.5t32 62.5t48 57.5t65.5 42.5t84 16.5q7 0 20.5 -1t26 -5.5t22 -14t9.5 -25.5q0 -31 -21.5 -40
t-59.5 -9t-66 -17.5t-46 -42.5t-27.5 -53.5t-9.5 -50.5q0 -2 1 -3q2 -2 6 -2q51 8 110.5 14.5t115.5 6.5q9 0 18.5 -0.5t18 -2t14 -4.5t5.5 -9z" />
    <glyph glyph-name="Iacute" unicode="&#xcd;" horiz-adv-x="298" 
d="M265 661q0 -5 -2.5 -9t-4.5 -6q-3 -3 -6 -5q-20 -8 -36.5 -20.5l-31 -24.5t-28 -21t-27.5 -10q-9 -1 -11 5q-2 3 -1 5q0 18 11 40t26 41t30.5 31.5t23.5 12.5q6 0 15.5 -2t18.5 -6.5t16 -12t7 -18.5zM290 468q0 -6 -1 -11.5t-6 -11.5t-15 -11.5t-27 -10.5q-8 -1 -14 -4
q-5 -2 -10.5 -5t-7.5 -6q-12 -41 -20 -95.5t-8 -138.5q0 -15 0.5 -32.5t3 -32t6 -24t9.5 -9.5h6q2 0 5.5 0.5t7.5 0.5q36 0 36 -32q0 -18 -8.5 -28.5t-18.5 -15.5q-12 -6 -27 -7q-25 -2 -47.5 -8t-40.5 -12q-21 -7 -40 -15q-13 -5 -24 -5t-17.5 4.5t-9.5 10.5q-4 6 -5 15
q0 14 5 24t12 17q8 8 18 13q9 5 16 10l11.5 10t5.5 10q0 42 3.5 96t8.5 103q5 57 13 116q1 6 -5 7.5t-11 1.5q-20 -3 -25 -3q-17 0 -22 9t-5 16q0 11 9.5 29.5t46.5 34.5q19 7 40 13q18 5 40.5 9t46.5 4q6 0 17 -0.5t21.5 -4t18.5 -11t8 -20.5z" />
    <glyph glyph-name="Icircumflex" unicode="&#xce;" horiz-adv-x="298" 
d="M269 589q0 -8 -4 -9t-9 -1q-7 0 -18 4.5t-28 17.5q-7 6 -15 12l-15.5 11l-16.5 12q-28 -18 -49 -37t-44 -20q-5 -1 -7 1l-4 4q-2 3 -2 5q0 18 11.5 40t27.5 41t31.5 31.5t24.5 12.5h22q12 0 28.5 -15t31.5 -35t25 -41t10 -34zM290 468q0 -6 -1 -11.5t-6 -11.5t-15 -11.5
t-27 -10.5q-8 -1 -14 -4q-5 -2 -10.5 -5t-7.5 -6q-12 -41 -20 -95.5t-8 -138.5q0 -15 0.5 -32.5t3 -32t6 -24t9.5 -9.5h6q2 0 5.5 0.5t7.5 0.5q36 0 36 -32q0 -18 -8.5 -28.5t-18.5 -15.5q-12 -6 -27 -7q-25 -2 -47.5 -8t-40.5 -12q-21 -7 -40 -15q-13 -5 -24 -5t-17.5 4.5
t-9.5 10.5q-4 6 -5 15q0 14 5 24t12 17q8 8 18 13q9 5 16 10l11.5 10t5.5 10q0 42 3.5 96t8.5 103q5 57 13 116q1 6 -5 7.5t-11 1.5q-20 -3 -25 -3q-17 0 -22 9t-5 16q0 11 9.5 29.5t46.5 34.5q19 7 40 13q18 5 40.5 9t46.5 4q6 0 17 -0.5t21.5 -4t18.5 -11t8 -20.5z" />
    <glyph glyph-name="Idieresis" unicode="&#xcf;" horiz-adv-x="298" 
d="M260 621q0 -17 -10.5 -33t-33.5 -16q-13 0 -23 7t-10 24q2 13 7 24q5 9 13.5 17t24.5 8t24 -9.5t8 -21.5zM115 626q0 -17 -10.5 -33t-33.5 -16q-13 0 -23 7t-10 24q2 13 7 24q5 9 13.5 17t24.5 8t24 -9.5t8 -21.5zM290 468q0 -6 -1 -11.5t-6 -11.5t-15 -11.5t-27 -10.5
q-8 -1 -14 -4q-5 -2 -10.5 -5t-7.5 -6q-12 -41 -20 -95.5t-8 -138.5q0 -15 0.5 -32.5t3 -32t6 -24t9.5 -9.5h6q2 0 5.5 0.5t7.5 0.5q36 0 36 -32q0 -18 -8.5 -28.5t-18.5 -15.5q-12 -6 -27 -7q-25 -2 -47.5 -8t-40.5 -12q-21 -7 -40 -15q-13 -5 -24 -5t-17.5 4.5t-9.5 10.5
q-4 6 -5 15q0 14 5 24t12 17q8 8 18 13q9 5 16 10l11.5 10t5.5 10q0 42 3.5 96t8.5 103q5 57 13 116q1 6 -5 7.5t-11 1.5q-20 -3 -25 -3q-17 0 -22 9t-5 16q0 11 9.5 29.5t46.5 34.5q19 7 40 13q18 5 40.5 9t46.5 4q6 0 17 -0.5t21.5 -4t18.5 -11t8 -20.5z" />
    <glyph glyph-name="Igrave" unicode="&#xcc;" horiz-adv-x="298" 
d="M223 583q0 -8 -4 -9t-8 -1q-7 0 -18 4t-26 18q-17 14 -32 25q-13 10 -26 18.5t-21 10.5q-4 2 -7 5q-6 6 -6 15q0 1 1.5 7.5t7 13.5t17 12.5t31.5 5.5q12 0 27.5 -15t30 -35t24 -41t9.5 -34zM290 468q0 -6 -1 -11.5t-6 -11.5t-15 -11.5t-27 -10.5q-8 -1 -14 -4
q-5 -2 -10.5 -5t-7.5 -6q-12 -41 -20 -95.5t-8 -138.5q0 -15 0.5 -32.5t3 -32t6 -24t9.5 -9.5h6q2 0 5.5 0.5t7.5 0.5q36 0 36 -32q0 -18 -8.5 -28.5t-18.5 -15.5q-12 -6 -27 -7q-25 -2 -47.5 -8t-40.5 -12q-21 -7 -40 -15q-13 -5 -24 -5t-17.5 4.5t-9.5 10.5q-4 6 -5 15
q0 14 5 24t12 17q8 8 18 13q9 5 16 10l11.5 10t5.5 10q0 42 3.5 96t8.5 103q5 57 13 116q1 6 -5 7.5t-11 1.5q-20 -3 -25 -3q-17 0 -22 9t-5 16q0 11 9.5 29.5t46.5 34.5q19 7 40 13q18 5 40.5 9t46.5 4q6 0 17 -0.5t21.5 -4t18.5 -11t8 -20.5z" />
    <glyph glyph-name="Oacute" unicode="&#xd3;" horiz-adv-x="475" 
d="M340 672q0 -5 -2.5 -9t-4.5 -6q-3 -3 -6 -5q-20 -8 -36.5 -20.5l-31 -24.5t-28 -21t-27.5 -10q-9 -1 -11 5q-2 3 -1 5q0 18 11 40t26 41t30.5 31.5t23.5 12.5q6 0 15.5 -2t18.5 -6.5t16 -12t7 -18.5zM461 293q0 -13 -3.5 -42t-13 -64.5t-26.5 -74t-44.5 -70t-66 -51.5
t-90.5 -20q-25 0 -55.5 12.5t-57 40.5t-44.5 73t-18 110q0 38 7 70.5t15 57t15 39t7 16.5q0 1 -3 4q-2 1 -3 2q-7 0 -20 -6t-24 -6q-8 0 -15 4.5t-7 20.5q0 20 15.5 43t44.5 42.5t69.5 32.5t91.5 13q45 0 85.5 -15.5t72 -46.5t50 -77.5t18.5 -107.5zM362 271q-3 46 -16 82
q-6 15 -14.5 30t-21 26.5t-29.5 18.5t-38 7t-34.5 -4t-21.5 -9q-9 -5 -13 -12q-11 -20 -20 -45q-8 -21 -14 -49.5t-6 -61.5q0 -19 5.5 -50.5t18.5 -62t34.5 -52.5t52.5 -22q16 0 36.5 11t38.5 35t30 63t12 95z" />
    <glyph glyph-name="Ocircumflex" unicode="&#xd4;" horiz-adv-x="475" 
d="M343 583q0 -8 -4 -9t-9 -1q-7 0 -18 4.5t-28 17.5q-7 6 -15 12l-15.5 11l-16.5 12q-28 -18 -49 -37t-44 -20q-5 -1 -7 1l-4 4q-2 3 -2 5q0 18 11.5 40t27.5 41t31.5 31.5t24.5 12.5h22q12 0 28.5 -15t31.5 -35t25 -41t10 -34zM461 293q0 -13 -3.5 -42t-13 -64.5
t-26.5 -74t-44.5 -70t-66 -51.5t-90.5 -20q-25 0 -55.5 12.5t-57 40.5t-44.5 73t-18 110q0 38 7 70.5t15 57t15 39t7 16.5q0 1 -3 4q-2 1 -3 2q-7 0 -20 -6t-24 -6q-8 0 -15 4.5t-7 20.5q0 20 15.5 43t44.5 42.5t69.5 32.5t91.5 13q45 0 85.5 -15.5t72 -46.5t50 -77.5
t18.5 -107.5zM362 271q-3 46 -16 82q-6 15 -14.5 30t-21 26.5t-29.5 18.5t-38 7t-34.5 -4t-21.5 -9q-9 -5 -13 -12q-11 -20 -20 -45q-8 -21 -14 -49.5t-6 -61.5q0 -19 5.5 -50.5t18.5 -62t34.5 -52.5t52.5 -22q16 0 36.5 11t38.5 35t30 63t12 95z" />
    <glyph glyph-name="apple" unicode="&#xf8ff;" horiz-adv-x="632" 
d="M344 653q-7 1 -14 1h-14h-14.5t-13.5 -1l-90 85h59l58 -61l59 61h60zM632 304q0 -65 -25 -122.5t-68 -100.5t-100.5 -68t-122.5 -25q-66 0 -123.5 25t-100 68t-67.5 100.5t-25 122.5t25 122.5t67.5 100.5t100 68t123.5 25q65 0 122.5 -25t100.5 -68t68 -100.5t25 -122.5z
M586 304q0 56 -21 105.5t-58 86t-86 58t-105 21.5t-105.5 -21.5t-86.5 -58t-58 -86t-21 -105.5t21 -105.5t58 -86.5t86.5 -58t105.5 -21t105 21t86 58t58 86.5t21 105.5zM458 204q0 -28 -13 -48.5t-34.5 -33.5t-49.5 -19.5t-58 -6.5q-36 0 -68.5 12.5t-60.5 26.5l9 47
q35 -22 68 -31.5t60 -9.5q41 0 65.5 16.5t24.5 42.5q0 21 -16 36.5t-40.5 29.5t-52.5 27.5t-52.5 30t-40.5 37t-16 48.5q0 30 12.5 49.5t31.5 31.5t42.5 17t44.5 5t39 -5t33 -12t27.5 -14.5t21.5 -11.5l-11 -43q-25 22 -53 32t-54 10q-36 0 -58 -15.5t-22 -39.5
q0 -21 16.5 -35.5t41 -26.5t53 -24t53 -28t41 -39t16.5 -56z" />
    <glyph glyph-name="Ograve" unicode="&#xd2;" horiz-adv-x="475" 
d="M281 589q0 -8 -4 -9t-8 -1q-7 0 -18 4t-26 18q-17 14 -32 25q-13 10 -26 18.5t-21 10.5q-4 2 -7 5q-6 6 -6 15q0 1 1.5 7.5t7 13.5t17 12.5t31.5 5.5q12 0 27.5 -15t30 -35t24 -41t9.5 -34zM461 293q0 -13 -3.5 -42t-13 -64.5t-26.5 -74t-44.5 -70t-66 -51.5t-90.5 -20
q-25 0 -55.5 12.5t-57 40.5t-44.5 73t-18 110q0 38 7 70.5t15 57t15 39t7 16.5q0 1 -3 4q-2 1 -3 2q-7 0 -20 -6t-24 -6q-8 0 -15 4.5t-7 20.5q0 20 15.5 43t44.5 42.5t69.5 32.5t91.5 13q45 0 85.5 -15.5t72 -46.5t50 -77.5t18.5 -107.5zM362 271q-3 46 -16 82
q-6 15 -14.5 30t-21 26.5t-29.5 18.5t-38 7t-34.5 -4t-21.5 -9q-9 -5 -13 -12q-11 -20 -20 -45q-8 -21 -14 -49.5t-6 -61.5q0 -19 5.5 -50.5t18.5 -62t34.5 -52.5t52.5 -22q16 0 36.5 11t38.5 35t30 63t12 95z" />
    <glyph glyph-name="Uacute" unicode="&#xda;" horiz-adv-x="456" 
d="M321 669q0 -5 -2.5 -9t-4.5 -6q-3 -3 -6 -5q-20 -8 -36.5 -20.5l-31 -24.5t-28 -21t-27.5 -10q-9 -1 -11 5q-2 3 -1 5q0 18 11 40t26 41t30.5 31.5t23.5 12.5q6 0 15.5 -2t18.5 -6.5t16 -12t7 -18.5zM431 416q-3 -128 -29 -227q-11 -43 -28 -83.5t-42 -72.5t-59 -51.5
t-78 -19.5q-29 0 -51 10.5t-38 27.5t-27 39t-18 45q-17 54 -20 123q0 90 15 144.5t47 72.5q5 2 11 4q5 2 11 3t13 1q13 0 23 -5.5t10 -24.5q0 -5 -5.5 -23t-12.5 -46.5t-12.5 -66t-5.5 -80.5q0 -23 3 -45.5t10 -40.5t19 -29.5t31 -11.5q33 0 57.5 29.5t40.5 74.5t23.5 98.5
t7.5 101.5q0 33 -3 72.5t-11 80.5q1 20 12 36.5t42 16.5q38 0 51 -35.5t13 -117.5z" />
    <glyph glyph-name="Ucircumflex" unicode="&#xdb;" horiz-adv-x="456" 
d="M331 583q0 -8 -4 -9t-9 -1q-7 0 -18 4.5t-28 17.5q-7 6 -15 12l-15.5 11l-16.5 12q-28 -18 -49 -37t-44 -20q-5 -1 -7 1l-4 4q-2 3 -2 5q0 18 11.5 40t27.5 41t31.5 31.5t24.5 12.5h22q12 0 28.5 -15t31.5 -35t25 -41t10 -34zM431 416q-3 -128 -29 -227
q-11 -43 -28 -83.5t-42 -72.5t-59 -51.5t-78 -19.5q-29 0 -51 10.5t-38 27.5t-27 39t-18 45q-17 54 -20 123q0 90 15 144.5t47 72.5q5 2 11 4q5 2 11 3t13 1q13 0 23 -5.5t10 -24.5q0 -5 -5.5 -23t-12.5 -46.5t-12.5 -66t-5.5 -80.5q0 -23 3 -45.5t10 -40.5t19 -29.5
t31 -11.5q33 0 57.5 29.5t40.5 74.5t23.5 98.5t7.5 101.5q0 33 -3 72.5t-11 80.5q1 20 12 36.5t42 16.5q38 0 51 -35.5t13 -117.5z" />
    <glyph glyph-name="Ugrave" unicode="&#xd9;" horiz-adv-x="456" 
d="M268 583q0 -8 -4 -9t-8 -1q-7 0 -18 4t-26 18q-17 14 -32 25q-13 10 -26 18.5t-21 10.5q-4 2 -7 5q-6 6 -6 15q0 1 1.5 7.5t7 13.5t17 12.5t31.5 5.5q12 0 27.5 -15t30 -35t24 -41t9.5 -34zM431 416q-3 -128 -29 -227q-11 -43 -28 -83.5t-42 -72.5t-59 -51.5t-78 -19.5
q-29 0 -51 10.5t-38 27.5t-27 39t-18 45q-17 54 -20 123q0 90 15 144.5t47 72.5q5 2 11 4q5 2 11 3t13 1q13 0 23 -5.5t10 -24.5q0 -5 -5.5 -23t-12.5 -46.5t-12.5 -66t-5.5 -80.5q0 -23 3 -45.5t10 -40.5t19 -29.5t31 -11.5q33 0 57.5 29.5t40.5 74.5t23.5 98.5t7.5 101.5
q0 33 -3 72.5t-11 80.5q1 20 12 36.5t42 16.5q38 0 51 -35.5t13 -117.5z" />
    <glyph glyph-name="dotlessi" unicode="&#x131;" horiz-adv-x="173" 
d="M129 275l-4 -20.5t-6 -37t-5.5 -48.5t-2.5 -56q0 -22 2 -41.5t4 -33.5q3 -18 6 -32q-2 -14 -13.5 -18.5t-19.5 -4.5q-9 0 -17 4q-4 2 -6 4q-17 20 -23.5 56t-6.5 77q0 31 2.5 61t5.5 54q4 28 8 53q0 4 4 8q3 3 10 5.5t19 2.5q5 0 12.5 -1.5t14 -5t11.5 -10t5 -16.5z" />
    <glyph glyph-name="circumflex" unicode="&#x2c6;" horiz-adv-x="324" 
d="M272 383q0 -8 -4 -9t-9 -1q-7 0 -18 4.5t-28 17.5q-7 6 -15 12l-15.5 11l-16.5 12q-28 -18 -49 -37t-44 -20q-5 -1 -7 1l-4 4q-2 3 -2 5q0 18 11.5 40t27.5 41t31.5 31.5t24.5 12.5h22q12 0 28.5 -15t31.5 -35t25 -41t10 -34z" />
    <glyph glyph-name="tilde" unicode="&#x2dc;" 
d="M385 421q0 -15 -8.5 -27.5t-30.5 -12.5q-14 0 -25 -3t-19 -7q-9 -4 -16 -10q-13 -8 -22.5 -11t-16.5 -3q-17 0 -21 8.5t-4 18.5q0 8 8 21t23.5 25.5t37.5 21.5t51 9q3 0 10 -1t14.5 -4t13 -9t5.5 -16z" />
    <glyph glyph-name="macron" unicode="&#xaf;" horiz-adv-x="444" 
d="M307 484q0 -14 -6.5 -22t-15 -12.5t-17 -7t-12.5 -4.5q-11 -5 -23 -9q-11 -3 -25.5 -5.5t-30.5 -2.5q-17 0 -32 4q-12 4 -14 13.5t-2 16.5q0 19 12.5 23.5t27.5 4.5h24q16 0 33.5 4t32.5 9q18 6 34 14q4 -2 8 -7t6 -19z" />
    <glyph glyph-name="dotaccent" unicode="&#x2d9;" horiz-adv-x="251" 
d="M170 474q0 -15 -5.5 -26t-13 -18t-17 -10t-16.5 -3q-19 0 -27 11t-8 25q0 9 2.5 19t8.5 18.5t16 13.5t24 5q4 0 10 -1t12 -4.5t10 -10.5t4 -19z" />
    <glyph glyph-name="ring" unicode="&#x2da;" 
d="M310 433q0 -29 -23.5 -45t-50.5 -16q-20 0 -31 8.5t-16 19.5q-6 12 -7 28q0 7 4.5 17t13.5 20t22.5 17t32.5 7q8 0 17.5 -3t18 -9.5t14 -17.5t5.5 -26zM273 433q0 16 -10.5 19t-13.5 3q-12 0 -20 -7t-8 -21q0 -4 3.5 -12t21.5 -8q7 0 17 6t10 20z" />
    <glyph glyph-name="cedilla" unicode="&#xb8;" 
d="M292 -60q-1 -21 -18 -34.5t-48 -13.5q-7 0 -19 1.5t-12 12.5q0 4 6 6q3 1 6 1q16 0 25 3.5t13.5 9t5.5 10.5t1 8q-2 6 -7 10t-10 7q-6 3 -14 5q-9 0 -9 9q0 11 3.5 19t7.5 13l27 -2q-3 -5 -3 -9q0 -6 5 -8q15 -6 23 -14t12 -16q4 -9 5 -18z" />
    <glyph glyph-name="hungarumlaut" unicode="&#x2dd;" horiz-adv-x="305" 
d="M266 489q0 -8 -3.5 -21.5l-12.5 -47.5q-3 -13 -8.5 -28t-13 -28t-17.5 -21.5t-23 -8.5q-6 0 -18.5 4.5t-12.5 25.5l42 139q8 24 15.5 31t15.5 7q12 0 19 -6t10.5 -14.5t5 -17.5t1.5 -14zM157 489q0 -8 -3.5 -21.5l-12.5 -47.5q-3 -13 -8.5 -28t-13 -28t-17.5 -21.5
t-23 -8.5q-6 0 -18.5 4.5t-12.5 25.5l42 139q8 24 15.5 31t15.5 7q12 0 19 -6t10.5 -14.5t5 -17.5t1.5 -14z" />
    <glyph glyph-name="caron" unicode="&#x2c7;" horiz-adv-x="324" 
d="M272 489q0 -18 -11.5 -40t-27.5 -41t-31.5 -31.5t-24.5 -12.5h-22q-12 0 -28.5 14.5t-31.5 35t-25 41.5t-10 34q0 8 4 9t9 1q7 0 18 -4.5t28 -17.5q7 -6 15 -12q7 -5 15 -11.5t17 -11.5q28 18 49 37t44 20q8 0 11 -5q2 -3 2 -5z" />
    <glyph glyph-name="Eth" unicode="&#xd0;" horiz-adv-x="460" 
d="M450 279q0 -55 -23.5 -104.5t-61 -91.5t-84.5 -75.5t-94 -56.5t-90 -35.5t-72 -12.5q-25 0 -31 8.5t-6 13.5q2 17 10 28t16 16q10 6 22 8q61 15 117 47t98 72t67 82t25 78q0 40 -21.5 68.5t-49.5 46.5t-55 26.5t-38 8.5q-2 0 -3 -1q-3 -3 -3 -4q-2 -15 -4 -32
q-2 -15 -3 -34t-2 -41l13 1h16q20 0 31 -3t11 -15q-1 -19 -23 -24t-48 -7q0 -29 3 -56.5t10 -47.5l2 -8t2 -8.5t1 -9.5q0 -17 -13 -25t-28 -8q-23 0 -37 16.5t-21.5 39t-9.5 47t-2 41.5v9l-48 -8q-6 0 -11.5 3.5t-5.5 14.5q0 9 6.5 16t16.5 11.5t21.5 7.5t22.5 5
q2 33 5.5 67t8.5 64q0 2 -1 3t-5 3q-32 3 -53 3.5t-26 0.5q-19 0 -22.5 9t-3.5 12q2 20 13.5 31.5t23.5 16.5q14 6 31 7h29t24 -1q5 0 5 4q3 22 21.5 41.5t47.5 19.5q5 0 12.5 -2.5t7.5 -14.5q0 -3 -2 -17t-5 -37q0 -3 2 -5q1 -1 2 -1q46 -9 93 -27t84.5 -44.5t61 -61.5
t23.5 -78z" />
    <glyph glyph-name="Euro" unicode="&#x20ac;" horiz-adv-x="468" 
d="M440 37q0 -10 -6 -23.5t-24 -28.5q-12 -8 -28 -14q-14 -5 -32.5 -9.5t-41.5 -4.5q-54 0 -92.5 20.5t-63 48t-36 56t-12.5 44.5v1q0 2 -3 2q-11 -2 -19.5 -4t-21.5 -4q-8 0 -16 4t-8 17q0 14 18 23.5t38 15.5q1 0 2 1q2 2 2 5v44q0 1 -2 3q-1 0 -2 1l-48 -9q-10 0 -17.5 4
t-7.5 13q0 11 8.5 18t21 12t27 7.5l25.5 4.5q2 0 4 2q1 1 1 2q8 37 27.5 77t50 73.5t71.5 55t92 21.5q13 0 26.5 -2t25 -7.5t18.5 -14t7 -21.5q0 -17 -12.5 -33t-41.5 -16q-6 0 -12.5 1t-14.5 1q-19 0 -39 -8.5t-38 -24.5t-33 -38t-23 -49q0 -3 4 -3q23 2 46 2.5t46 0.5
q14 0 24.5 -3t9.5 -17q0 -14 -13 -20.5t-31 -9t-38 -2.5t-34 -1l-22 -2q-1 0 -4 -3q-1 -1 -1 -2v-39q0 -1 1 -2q2 -2 4 -2q24 3 52 5t58 2q5 0 14.5 -0.5t19 -2t16.5 -4.5t7 -9q0 -14 -12.5 -20.5t-30.5 -9.5t-37.5 -4t-33.5 -2l-22 -2t-22 -3q-4 -2 -4 -3q-1 -1 0 -2
q8 -28 24 -50q14 -19 37 -34t58 -15q11 0 22.5 2.5l25.5 5.5q7 2 14 5q6 2 13 3.5t14 1.5q13 0 19 -6t6 -22z" />
    <glyph glyph-name="eth" unicode="&#xf0;" horiz-adv-x="313" 
d="M292 177q0 -49 -14 -85.5t-37 -61t-51.5 -37t-57.5 -12.5q-39 0 -60 19t-31 42q-11 27 -13 62q0 23 5 43.5t12 37.5q8 19 18 36q0 1 -3 4q-1 1 -2 1q-16 0 -25 6.5t-9 16.5q0 13 10.5 26t28 22.5t39 15.5t42.5 6q13 0 31 -3q-18 39 -38 66q-20 -10 -40 -19t-27 -9
q-16 0 -16 20q0 15 17 27.5t34 20.5q-12 13 -23 22.5l-19 16.5q-10 8 -18 13q-19 10 -26 21.5t-7 22.5q0 10 5 15.5t12 8.5t15.5 3.5t14.5 0.5q26 0 62.5 -24.5t70.5 -68.5l31 11q8 3 15.5 3.5t12.5 0.5q7 0 11.5 -3t6.5 -13q0 -14 -14.5 -23t-33.5 -16q30 -48 50.5 -108.5
t20.5 -127.5zM211 156q-1 25 -7 44q-5 17 -15.5 30t-30.5 13q-6 0 -14.5 -7t-16 -21t-13 -35t-5.5 -48q0 -8 0.5 -21.5t5 -27.5t14 -24t27.5 -10q20 0 31 16.5t16 36.5q6 24 8 54z" />
    <glyph glyph-name="Lslash" unicode="&#x141;" horiz-adv-x="327" 
d="M363 50q0 -17 -8 -26t-18 -14q-11 -5 -26 -6q-11 0 -22 3t-26 3q-41 0 -79 -11.5t-70 -26l-56 -26t-37 -11.5q-20 0 -27.5 12t-7.5 25q0 15 8 27t19 22t22.5 17.5l19.5 12.5q3 2 4 5t1 5q-3 51 -3 92q0 22 0.5 41.5t1.5 39.5l-36 -6q-6 0 -11.5 3.5t-5.5 14.5
q0 17 18.5 25.5t38.5 12.5q5 42 10.5 74.5t11.5 55.5q6 26 14 46q5 17 15 30q8 11 22.5 21t36.5 10q5 0 12 -1t13 -4t10 -9.5t4 -17.5q0 -16 -8 -35q-8 -20 -15 -45q-7 -21 -14 -50.5t-13 -64.5l15 1h16q20 0 31 -3t11 -15q0 -10 -7.5 -16t-19 -9t-25.5 -4.5t-28 -1.5
q-2 -22 -3.5 -44.5t-1.5 -45.5q0 -17 1 -35t3 -35q0 -2 1 -3q2 -2 5 -2q1 0 12.5 3t28.5 7t38.5 7t41.5 3q11 0 25.5 -1.5t27 -6.5t21 -15t8.5 -28z" />
    </font>
</defs>
</svg>
